M48
; DRILL file {KiCad (5.1.4)-1} date 11/18/2019 7:24:19 PM
; FORMAT={-:-/ absolute / metric / decimal}
; #@! TF.CreationDate,2019-11-18T19:24:19+01:00
; #@! TF.GenerationSoftware,Kicad,Pcbnew,(5.1.4)-1
; #@! TF.FileFunction,Plated,1,2,PTH
FMAT,2
METRIC
T1C0.350
T2C0.600
T3C1.000
T4C2.200
%
G90
G05
T1
X151.15Y-92.85
X151.65Y-88.8
X152.705Y-87.905
X154.13Y-98.275
X154.68Y-115.2
X154.955Y-98.25
X154.98Y-97.5
X155.25Y-92.7
X155.28Y-93.65
X155.28Y-94.525
X155.7Y-88.25
X155.702Y-98.0
X155.702Y-98.806
X155.956Y-99.822
X156.6Y-86.85
X156.65Y-89.55
X156.815Y-99.822
X157.43Y-105.475
X157.55Y-88.25
X158.55Y-89.65
X158.65Y-86.8
X159.78Y-104.275
X159.95Y-91.15
X159.955Y-107.05
X160.08Y-115.4
X160.63Y-96.05
X161.29Y-104.04
X161.3Y-90.65
X162.7Y-87.9
T2
X153.505Y-93.6
X153.505Y-94.8
X154.505Y-102.45
X154.53Y-103.45
T3
X151.13Y-97.79
X151.13Y-100.33
X151.13Y-102.87
X151.13Y-105.41
X163.83Y-97.79
X163.83Y-100.33
X163.83Y-102.87
X163.83Y-105.41
T4
X157.48Y-114.3
T0
M30
