G04 #@! TF.GenerationSoftware,KiCad,Pcbnew,(5.1.4)-1*
G04 #@! TF.CreationDate,2019-11-18T19:24:08+01:00*
G04 #@! TF.ProjectId,olmBoard-v1,6f6c6d42-6f61-4726-942d-76312e6b6963,0.1*
G04 #@! TF.SameCoordinates,Original*
G04 #@! TF.FileFunction,Soldermask,Top*
G04 #@! TF.FilePolarity,Negative*
%FSLAX46Y46*%
G04 Gerber Fmt 4.6, Leading zero omitted, Abs format (unit mm)*
G04 Created by KiCad (PCBNEW (5.1.4)-1) date 2019-11-18 19:24:08*
%MOMM*%
%LPD*%
G04 APERTURE LIST*
%ADD10C,0.100000*%
G04 APERTURE END LIST*
D10*
G36*
X158049085Y-112423975D02*
G01*
X158404143Y-112571045D01*
X158404145Y-112571046D01*
X158723690Y-112784559D01*
X158995441Y-113056310D01*
X159189400Y-113346591D01*
X159208955Y-113375857D01*
X159356025Y-113730915D01*
X159431000Y-114107842D01*
X159431000Y-114492158D01*
X159356025Y-114869085D01*
X159208955Y-115224143D01*
X159208954Y-115224145D01*
X158995441Y-115543690D01*
X158723690Y-115815441D01*
X158404145Y-116028954D01*
X158404144Y-116028955D01*
X158404143Y-116028955D01*
X158049085Y-116176025D01*
X157672158Y-116251000D01*
X157287842Y-116251000D01*
X156910915Y-116176025D01*
X156555857Y-116028955D01*
X156555856Y-116028955D01*
X156555855Y-116028954D01*
X156236310Y-115815441D01*
X155964559Y-115543690D01*
X155751046Y-115224145D01*
X155751045Y-115224143D01*
X155603975Y-114869085D01*
X155529000Y-114492158D01*
X155529000Y-114107842D01*
X155603975Y-113730915D01*
X155751045Y-113375857D01*
X155770600Y-113346591D01*
X155964559Y-113056310D01*
X156236310Y-112784559D01*
X156555855Y-112571046D01*
X156555857Y-112571045D01*
X156910915Y-112423975D01*
X157287842Y-112349000D01*
X157672158Y-112349000D01*
X158049085Y-112423975D01*
X158049085Y-112423975D01*
G37*
G36*
X162495091Y-114095085D02*
G01*
X162529069Y-114105393D01*
X162560390Y-114122134D01*
X162587839Y-114144661D01*
X162610366Y-114172110D01*
X162627107Y-114203431D01*
X162637415Y-114237409D01*
X162641500Y-114278890D01*
X162641500Y-114880110D01*
X162637415Y-114921591D01*
X162627107Y-114955569D01*
X162610366Y-114986890D01*
X162587839Y-115014339D01*
X162560390Y-115036866D01*
X162529069Y-115053607D01*
X162495091Y-115063915D01*
X162453610Y-115068000D01*
X161777390Y-115068000D01*
X161735909Y-115063915D01*
X161701931Y-115053607D01*
X161670610Y-115036866D01*
X161643161Y-115014339D01*
X161620634Y-114986890D01*
X161603893Y-114955569D01*
X161593585Y-114921591D01*
X161589500Y-114880110D01*
X161589500Y-114278890D01*
X161593585Y-114237409D01*
X161603893Y-114203431D01*
X161620634Y-114172110D01*
X161643161Y-114144661D01*
X161670610Y-114122134D01*
X161701931Y-114105393D01*
X161735909Y-114095085D01*
X161777390Y-114091000D01*
X162453610Y-114091000D01*
X162495091Y-114095085D01*
X162495091Y-114095085D01*
G37*
G36*
X151446091Y-114095085D02*
G01*
X151480069Y-114105393D01*
X151511390Y-114122134D01*
X151538839Y-114144661D01*
X151561366Y-114172110D01*
X151578107Y-114203431D01*
X151588415Y-114237409D01*
X151592500Y-114278890D01*
X151592500Y-114880110D01*
X151588415Y-114921591D01*
X151578107Y-114955569D01*
X151561366Y-114986890D01*
X151538839Y-115014339D01*
X151511390Y-115036866D01*
X151480069Y-115053607D01*
X151446091Y-115063915D01*
X151404610Y-115068000D01*
X150728390Y-115068000D01*
X150686909Y-115063915D01*
X150652931Y-115053607D01*
X150621610Y-115036866D01*
X150594161Y-115014339D01*
X150571634Y-114986890D01*
X150554893Y-114955569D01*
X150544585Y-114921591D01*
X150540500Y-114880110D01*
X150540500Y-114278890D01*
X150544585Y-114237409D01*
X150554893Y-114203431D01*
X150571634Y-114172110D01*
X150594161Y-114144661D01*
X150621610Y-114122134D01*
X150652931Y-114105393D01*
X150686909Y-114095085D01*
X150728390Y-114091000D01*
X151404610Y-114091000D01*
X151446091Y-114095085D01*
X151446091Y-114095085D01*
G37*
G36*
X152906591Y-114095085D02*
G01*
X152940569Y-114105393D01*
X152971890Y-114122134D01*
X152999339Y-114144661D01*
X153021866Y-114172110D01*
X153038607Y-114203431D01*
X153048915Y-114237409D01*
X153053000Y-114278890D01*
X153053000Y-114880110D01*
X153048915Y-114921591D01*
X153038607Y-114955569D01*
X153021866Y-114986890D01*
X152999339Y-115014339D01*
X152971890Y-115036866D01*
X152940569Y-115053607D01*
X152906591Y-115063915D01*
X152865110Y-115068000D01*
X152188890Y-115068000D01*
X152147409Y-115063915D01*
X152113431Y-115053607D01*
X152082110Y-115036866D01*
X152054661Y-115014339D01*
X152032134Y-114986890D01*
X152015393Y-114955569D01*
X152005085Y-114921591D01*
X152001000Y-114880110D01*
X152001000Y-114278890D01*
X152005085Y-114237409D01*
X152015393Y-114203431D01*
X152032134Y-114172110D01*
X152054661Y-114144661D01*
X152082110Y-114122134D01*
X152113431Y-114105393D01*
X152147409Y-114095085D01*
X152188890Y-114091000D01*
X152865110Y-114091000D01*
X152906591Y-114095085D01*
X152906591Y-114095085D01*
G37*
G36*
X154367091Y-114095085D02*
G01*
X154401069Y-114105393D01*
X154432390Y-114122134D01*
X154459839Y-114144661D01*
X154482366Y-114172110D01*
X154499107Y-114203431D01*
X154509415Y-114237409D01*
X154513500Y-114278890D01*
X154513500Y-114880110D01*
X154509415Y-114921591D01*
X154499107Y-114955569D01*
X154482366Y-114986890D01*
X154459839Y-115014339D01*
X154432390Y-115036866D01*
X154401069Y-115053607D01*
X154367091Y-115063915D01*
X154325610Y-115068000D01*
X153649390Y-115068000D01*
X153607909Y-115063915D01*
X153573931Y-115053607D01*
X153542610Y-115036866D01*
X153515161Y-115014339D01*
X153492634Y-114986890D01*
X153475893Y-114955569D01*
X153465585Y-114921591D01*
X153461500Y-114880110D01*
X153461500Y-114278890D01*
X153465585Y-114237409D01*
X153475893Y-114203431D01*
X153492634Y-114172110D01*
X153515161Y-114144661D01*
X153542610Y-114122134D01*
X153573931Y-114105393D01*
X153607909Y-114095085D01*
X153649390Y-114091000D01*
X154325610Y-114091000D01*
X154367091Y-114095085D01*
X154367091Y-114095085D01*
G37*
G36*
X161098091Y-114095085D02*
G01*
X161132069Y-114105393D01*
X161163390Y-114122134D01*
X161190839Y-114144661D01*
X161213366Y-114172110D01*
X161230107Y-114203431D01*
X161240415Y-114237409D01*
X161244500Y-114278890D01*
X161244500Y-114880110D01*
X161240415Y-114921591D01*
X161230107Y-114955569D01*
X161213366Y-114986890D01*
X161190839Y-115014339D01*
X161163390Y-115036866D01*
X161132069Y-115053607D01*
X161098091Y-115063915D01*
X161056610Y-115068000D01*
X160380390Y-115068000D01*
X160338909Y-115063915D01*
X160304931Y-115053607D01*
X160273610Y-115036866D01*
X160246161Y-115014339D01*
X160223634Y-114986890D01*
X160206893Y-114955569D01*
X160196585Y-114921591D01*
X160192500Y-114880110D01*
X160192500Y-114278890D01*
X160196585Y-114237409D01*
X160206893Y-114203431D01*
X160223634Y-114172110D01*
X160246161Y-114144661D01*
X160273610Y-114122134D01*
X160304931Y-114105393D01*
X160338909Y-114095085D01*
X160380390Y-114091000D01*
X161056610Y-114091000D01*
X161098091Y-114095085D01*
X161098091Y-114095085D01*
G37*
G36*
X164219199Y-112464954D02*
G01*
X164231450Y-112465556D01*
X164249869Y-112465556D01*
X164272149Y-112467750D01*
X164356233Y-112484476D01*
X164377660Y-112490976D01*
X164456858Y-112523780D01*
X164462303Y-112526691D01*
X164462309Y-112526693D01*
X164471169Y-112531429D01*
X164471173Y-112531432D01*
X164476614Y-112534340D01*
X164547899Y-112581971D01*
X164565204Y-112596172D01*
X164625828Y-112656796D01*
X164640029Y-112674101D01*
X164687660Y-112745386D01*
X164690568Y-112750827D01*
X164690571Y-112750831D01*
X164695307Y-112759691D01*
X164695309Y-112759697D01*
X164698220Y-112765142D01*
X164731024Y-112844340D01*
X164737524Y-112865767D01*
X164754250Y-112949851D01*
X164756444Y-112972131D01*
X164756444Y-112990550D01*
X164757046Y-113002801D01*
X164758852Y-113021139D01*
X164758852Y-113508860D01*
X164757263Y-113524999D01*
X164754348Y-113534608D01*
X164749610Y-113543472D01*
X164743237Y-113551237D01*
X164730794Y-113561448D01*
X164720425Y-113568378D01*
X164703098Y-113585705D01*
X164689485Y-113606080D01*
X164680109Y-113628720D01*
X164675329Y-113652753D01*
X164675330Y-113677257D01*
X164680112Y-113701290D01*
X164689490Y-113723929D01*
X164703105Y-113744302D01*
X164720432Y-113761629D01*
X164730802Y-113768558D01*
X164743237Y-113778763D01*
X164749610Y-113786528D01*
X164754348Y-113795392D01*
X164757263Y-113805001D01*
X164758852Y-113821140D01*
X164758852Y-114308862D01*
X164757046Y-114327199D01*
X164756444Y-114339450D01*
X164756444Y-114357869D01*
X164754250Y-114380149D01*
X164737524Y-114464233D01*
X164731024Y-114485660D01*
X164698220Y-114564858D01*
X164695309Y-114570303D01*
X164695307Y-114570309D01*
X164690571Y-114579169D01*
X164690568Y-114579173D01*
X164687660Y-114584614D01*
X164640029Y-114655899D01*
X164625828Y-114673204D01*
X164565204Y-114733828D01*
X164547899Y-114748029D01*
X164476614Y-114795660D01*
X164471173Y-114798568D01*
X164471169Y-114798571D01*
X164462309Y-114803307D01*
X164462303Y-114803309D01*
X164456858Y-114806220D01*
X164377660Y-114839024D01*
X164356233Y-114845524D01*
X164272149Y-114862250D01*
X164249869Y-114864444D01*
X164231450Y-114864444D01*
X164219199Y-114865046D01*
X164200862Y-114866852D01*
X163713138Y-114866852D01*
X163694801Y-114865046D01*
X163682550Y-114864444D01*
X163664131Y-114864444D01*
X163641851Y-114862250D01*
X163557767Y-114845524D01*
X163536340Y-114839024D01*
X163457142Y-114806220D01*
X163451697Y-114803309D01*
X163451691Y-114803307D01*
X163442831Y-114798571D01*
X163442827Y-114798568D01*
X163437386Y-114795660D01*
X163366101Y-114748029D01*
X163348796Y-114733828D01*
X163288172Y-114673204D01*
X163273971Y-114655899D01*
X163226340Y-114584614D01*
X163223432Y-114579173D01*
X163223429Y-114579169D01*
X163218693Y-114570309D01*
X163218691Y-114570303D01*
X163215780Y-114564858D01*
X163182976Y-114485660D01*
X163176476Y-114464233D01*
X163159750Y-114380149D01*
X163157556Y-114357869D01*
X163157556Y-114339450D01*
X163156954Y-114327199D01*
X163155148Y-114308862D01*
X163155148Y-113821140D01*
X163156737Y-113805001D01*
X163159652Y-113795392D01*
X163164390Y-113786528D01*
X163170763Y-113778763D01*
X163183206Y-113768552D01*
X163193575Y-113761622D01*
X163210902Y-113744295D01*
X163224515Y-113723920D01*
X163233891Y-113701280D01*
X163238671Y-113677247D01*
X163238670Y-113652743D01*
X163233888Y-113628710D01*
X163224510Y-113606071D01*
X163210895Y-113585698D01*
X163193568Y-113568371D01*
X163183198Y-113561442D01*
X163170763Y-113551237D01*
X163164390Y-113543472D01*
X163159652Y-113534608D01*
X163156737Y-113524999D01*
X163155148Y-113508860D01*
X163155148Y-113021139D01*
X163156954Y-113002801D01*
X163157556Y-112990550D01*
X163157556Y-112972131D01*
X163159750Y-112949851D01*
X163176476Y-112865767D01*
X163182976Y-112844340D01*
X163215780Y-112765142D01*
X163218691Y-112759697D01*
X163218693Y-112759691D01*
X163223429Y-112750831D01*
X163223432Y-112750827D01*
X163226340Y-112745386D01*
X163273971Y-112674101D01*
X163288172Y-112656796D01*
X163348796Y-112596172D01*
X163366101Y-112581971D01*
X163437386Y-112534340D01*
X163442827Y-112531432D01*
X163442831Y-112531429D01*
X163451691Y-112526693D01*
X163451697Y-112526691D01*
X163457142Y-112523780D01*
X163536340Y-112490976D01*
X163557767Y-112484476D01*
X163641851Y-112467750D01*
X163664131Y-112465556D01*
X163682550Y-112465556D01*
X163694801Y-112464954D01*
X163713139Y-112463148D01*
X164200861Y-112463148D01*
X164219199Y-112464954D01*
X164219199Y-112464954D01*
G37*
G36*
X162495091Y-112520085D02*
G01*
X162529069Y-112530393D01*
X162560390Y-112547134D01*
X162587839Y-112569661D01*
X162610366Y-112597110D01*
X162627107Y-112628431D01*
X162637415Y-112662409D01*
X162641500Y-112703890D01*
X162641500Y-113305110D01*
X162637415Y-113346591D01*
X162627107Y-113380569D01*
X162610366Y-113411890D01*
X162587839Y-113439339D01*
X162560390Y-113461866D01*
X162529069Y-113478607D01*
X162495091Y-113488915D01*
X162453610Y-113493000D01*
X161777390Y-113493000D01*
X161735909Y-113488915D01*
X161701931Y-113478607D01*
X161670610Y-113461866D01*
X161643161Y-113439339D01*
X161620634Y-113411890D01*
X161603893Y-113380569D01*
X161593585Y-113346591D01*
X161589500Y-113305110D01*
X161589500Y-112703890D01*
X161593585Y-112662409D01*
X161603893Y-112628431D01*
X161620634Y-112597110D01*
X161643161Y-112569661D01*
X161670610Y-112547134D01*
X161701931Y-112530393D01*
X161735909Y-112520085D01*
X161777390Y-112516000D01*
X162453610Y-112516000D01*
X162495091Y-112520085D01*
X162495091Y-112520085D01*
G37*
G36*
X161098091Y-112520085D02*
G01*
X161132069Y-112530393D01*
X161163390Y-112547134D01*
X161190839Y-112569661D01*
X161213366Y-112597110D01*
X161230107Y-112628431D01*
X161240415Y-112662409D01*
X161244500Y-112703890D01*
X161244500Y-113305110D01*
X161240415Y-113346591D01*
X161230107Y-113380569D01*
X161213366Y-113411890D01*
X161190839Y-113439339D01*
X161163390Y-113461866D01*
X161132069Y-113478607D01*
X161098091Y-113488915D01*
X161056610Y-113493000D01*
X160380390Y-113493000D01*
X160338909Y-113488915D01*
X160304931Y-113478607D01*
X160273610Y-113461866D01*
X160246161Y-113439339D01*
X160223634Y-113411890D01*
X160206893Y-113380569D01*
X160196585Y-113346591D01*
X160192500Y-113305110D01*
X160192500Y-112703890D01*
X160196585Y-112662409D01*
X160206893Y-112628431D01*
X160223634Y-112597110D01*
X160246161Y-112569661D01*
X160273610Y-112547134D01*
X160304931Y-112530393D01*
X160338909Y-112520085D01*
X160380390Y-112516000D01*
X161056610Y-112516000D01*
X161098091Y-112520085D01*
X161098091Y-112520085D01*
G37*
G36*
X152906591Y-112520085D02*
G01*
X152940569Y-112530393D01*
X152971890Y-112547134D01*
X152999339Y-112569661D01*
X153021866Y-112597110D01*
X153038607Y-112628431D01*
X153048915Y-112662409D01*
X153053000Y-112703890D01*
X153053000Y-113305110D01*
X153048915Y-113346591D01*
X153038607Y-113380569D01*
X153021866Y-113411890D01*
X152999339Y-113439339D01*
X152971890Y-113461866D01*
X152940569Y-113478607D01*
X152906591Y-113488915D01*
X152865110Y-113493000D01*
X152188890Y-113493000D01*
X152147409Y-113488915D01*
X152113431Y-113478607D01*
X152082110Y-113461866D01*
X152054661Y-113439339D01*
X152032134Y-113411890D01*
X152015393Y-113380569D01*
X152005085Y-113346591D01*
X152001000Y-113305110D01*
X152001000Y-112703890D01*
X152005085Y-112662409D01*
X152015393Y-112628431D01*
X152032134Y-112597110D01*
X152054661Y-112569661D01*
X152082110Y-112547134D01*
X152113431Y-112530393D01*
X152147409Y-112520085D01*
X152188890Y-112516000D01*
X152865110Y-112516000D01*
X152906591Y-112520085D01*
X152906591Y-112520085D01*
G37*
G36*
X151446091Y-112520085D02*
G01*
X151480069Y-112530393D01*
X151511390Y-112547134D01*
X151538839Y-112569661D01*
X151561366Y-112597110D01*
X151578107Y-112628431D01*
X151588415Y-112662409D01*
X151592500Y-112703890D01*
X151592500Y-113305110D01*
X151588415Y-113346591D01*
X151578107Y-113380569D01*
X151561366Y-113411890D01*
X151538839Y-113439339D01*
X151511390Y-113461866D01*
X151480069Y-113478607D01*
X151446091Y-113488915D01*
X151404610Y-113493000D01*
X150728390Y-113493000D01*
X150686909Y-113488915D01*
X150652931Y-113478607D01*
X150621610Y-113461866D01*
X150594161Y-113439339D01*
X150571634Y-113411890D01*
X150554893Y-113380569D01*
X150544585Y-113346591D01*
X150540500Y-113305110D01*
X150540500Y-112703890D01*
X150544585Y-112662409D01*
X150554893Y-112628431D01*
X150571634Y-112597110D01*
X150594161Y-112569661D01*
X150621610Y-112547134D01*
X150652931Y-112530393D01*
X150686909Y-112520085D01*
X150728390Y-112516000D01*
X151404610Y-112516000D01*
X151446091Y-112520085D01*
X151446091Y-112520085D01*
G37*
G36*
X154367091Y-112520085D02*
G01*
X154401069Y-112530393D01*
X154432390Y-112547134D01*
X154459839Y-112569661D01*
X154482366Y-112597110D01*
X154499107Y-112628431D01*
X154509415Y-112662409D01*
X154513500Y-112703890D01*
X154513500Y-113305110D01*
X154509415Y-113346591D01*
X154499107Y-113380569D01*
X154482366Y-113411890D01*
X154459839Y-113439339D01*
X154432390Y-113461866D01*
X154401069Y-113478607D01*
X154367091Y-113488915D01*
X154325610Y-113493000D01*
X153649390Y-113493000D01*
X153607909Y-113488915D01*
X153573931Y-113478607D01*
X153542610Y-113461866D01*
X153515161Y-113439339D01*
X153492634Y-113411890D01*
X153475893Y-113380569D01*
X153465585Y-113346591D01*
X153461500Y-113305110D01*
X153461500Y-112703890D01*
X153465585Y-112662409D01*
X153475893Y-112628431D01*
X153492634Y-112597110D01*
X153515161Y-112569661D01*
X153542610Y-112547134D01*
X153573931Y-112530393D01*
X153607909Y-112520085D01*
X153649390Y-112516000D01*
X154325610Y-112516000D01*
X154367091Y-112520085D01*
X154367091Y-112520085D01*
G37*
G36*
X159446499Y-108897237D02*
G01*
X159456108Y-108900152D01*
X159464972Y-108904890D01*
X159472737Y-108911263D01*
X159479110Y-108919028D01*
X159483848Y-108927892D01*
X159486763Y-108937501D01*
X159488352Y-108953640D01*
X159488352Y-109941360D01*
X159486763Y-109957499D01*
X159483848Y-109967108D01*
X159479110Y-109975972D01*
X159472758Y-109983712D01*
X159472737Y-109983737D01*
X159464927Y-109990140D01*
X159464872Y-109990177D01*
X159455353Y-109997980D01*
X159455378Y-109998011D01*
X159441528Y-110009353D01*
X159425963Y-110028279D01*
X159414389Y-110049877D01*
X159407251Y-110073319D01*
X159404824Y-110097702D01*
X159407200Y-110122091D01*
X159414289Y-110145547D01*
X159425818Y-110167170D01*
X159441343Y-110186128D01*
X159460269Y-110201693D01*
X159463325Y-110203529D01*
X159465014Y-110204918D01*
X159465016Y-110204919D01*
X159471212Y-110210015D01*
X159472774Y-110211300D01*
X159479142Y-110219075D01*
X159482291Y-110224983D01*
X159483867Y-110227938D01*
X159486757Y-110237501D01*
X159486782Y-110237585D01*
X159488352Y-110253613D01*
X159488352Y-111391360D01*
X159486763Y-111407499D01*
X159483848Y-111417108D01*
X159479110Y-111425972D01*
X159472737Y-111433737D01*
X159464972Y-111440110D01*
X159456108Y-111444848D01*
X159446499Y-111447763D01*
X159430360Y-111449352D01*
X157942640Y-111449352D01*
X157926501Y-111447763D01*
X157916892Y-111444848D01*
X157908028Y-111440110D01*
X157900263Y-111433737D01*
X157893890Y-111425972D01*
X157889152Y-111417108D01*
X157886237Y-111407499D01*
X157884648Y-111391360D01*
X157884648Y-110253640D01*
X157886237Y-110237501D01*
X157889152Y-110227892D01*
X157893890Y-110219028D01*
X157900263Y-110211263D01*
X157913237Y-110200616D01*
X157922468Y-110194447D01*
X157939794Y-110177119D01*
X157953407Y-110156744D01*
X157962783Y-110134105D01*
X157967563Y-110110072D01*
X157967562Y-110085568D01*
X157962780Y-110061535D01*
X157953402Y-110038896D01*
X157939787Y-110018522D01*
X157922459Y-110001196D01*
X157913183Y-109994325D01*
X157900300Y-109983774D01*
X157899168Y-109982397D01*
X157893919Y-109976016D01*
X157889174Y-109967161D01*
X157888249Y-109964123D01*
X157886258Y-109957585D01*
X157886258Y-109957582D01*
X157886248Y-109957550D01*
X157885253Y-109947500D01*
X157885253Y-109947435D01*
X157884648Y-109941325D01*
X157884648Y-108953640D01*
X157886237Y-108937501D01*
X157889152Y-108927892D01*
X157893890Y-108919028D01*
X157900263Y-108911263D01*
X157908028Y-108904890D01*
X157916892Y-108900152D01*
X157926501Y-108897237D01*
X157942640Y-108895648D01*
X159430360Y-108895648D01*
X159446499Y-108897237D01*
X159446499Y-108897237D01*
G37*
G36*
X152207499Y-108897237D02*
G01*
X152217108Y-108900152D01*
X152225972Y-108904890D01*
X152233737Y-108911263D01*
X152240110Y-108919028D01*
X152244848Y-108927892D01*
X152247763Y-108937501D01*
X152249352Y-108953640D01*
X152249352Y-109941360D01*
X152247763Y-109957499D01*
X152244848Y-109967108D01*
X152240110Y-109975972D01*
X152233758Y-109983712D01*
X152233737Y-109983737D01*
X152225927Y-109990140D01*
X152225872Y-109990177D01*
X152216353Y-109997980D01*
X152216378Y-109998011D01*
X152202528Y-110009353D01*
X152186963Y-110028279D01*
X152175389Y-110049877D01*
X152168251Y-110073319D01*
X152165824Y-110097702D01*
X152168200Y-110122091D01*
X152175289Y-110145547D01*
X152186818Y-110167170D01*
X152202343Y-110186128D01*
X152221269Y-110201693D01*
X152224325Y-110203529D01*
X152226014Y-110204918D01*
X152226016Y-110204919D01*
X152232212Y-110210015D01*
X152233774Y-110211300D01*
X152240142Y-110219075D01*
X152243291Y-110224983D01*
X152244867Y-110227938D01*
X152247757Y-110237501D01*
X152247782Y-110237585D01*
X152249352Y-110253613D01*
X152249352Y-111391360D01*
X152247763Y-111407499D01*
X152244848Y-111417108D01*
X152240110Y-111425972D01*
X152233737Y-111433737D01*
X152225972Y-111440110D01*
X152217108Y-111444848D01*
X152207499Y-111447763D01*
X152191360Y-111449352D01*
X150703640Y-111449352D01*
X150687501Y-111447763D01*
X150677892Y-111444848D01*
X150669028Y-111440110D01*
X150661263Y-111433737D01*
X150654890Y-111425972D01*
X150650152Y-111417108D01*
X150647237Y-111407499D01*
X150645648Y-111391360D01*
X150645648Y-110253640D01*
X150647237Y-110237501D01*
X150650152Y-110227892D01*
X150654890Y-110219028D01*
X150661263Y-110211263D01*
X150674237Y-110200616D01*
X150683468Y-110194447D01*
X150700794Y-110177119D01*
X150714407Y-110156744D01*
X150723783Y-110134105D01*
X150728563Y-110110072D01*
X150728562Y-110085568D01*
X150723780Y-110061535D01*
X150714402Y-110038896D01*
X150700787Y-110018522D01*
X150683459Y-110001196D01*
X150674183Y-109994325D01*
X150661300Y-109983774D01*
X150660168Y-109982397D01*
X150654919Y-109976016D01*
X150650174Y-109967161D01*
X150649249Y-109964123D01*
X150647258Y-109957585D01*
X150647258Y-109957582D01*
X150647248Y-109957550D01*
X150646253Y-109947500D01*
X150646253Y-109947435D01*
X150645648Y-109941325D01*
X150645648Y-108953640D01*
X150647237Y-108937501D01*
X150650152Y-108927892D01*
X150654890Y-108919028D01*
X150661263Y-108911263D01*
X150669028Y-108904890D01*
X150677892Y-108900152D01*
X150687501Y-108897237D01*
X150703640Y-108895648D01*
X152191360Y-108895648D01*
X152207499Y-108897237D01*
X152207499Y-108897237D01*
G37*
G36*
X154620499Y-108897237D02*
G01*
X154630108Y-108900152D01*
X154638972Y-108904890D01*
X154646737Y-108911263D01*
X154653110Y-108919028D01*
X154657848Y-108927892D01*
X154660763Y-108937501D01*
X154662352Y-108953640D01*
X154662352Y-109941360D01*
X154660763Y-109957499D01*
X154657848Y-109967108D01*
X154653110Y-109975972D01*
X154646758Y-109983712D01*
X154646737Y-109983737D01*
X154638927Y-109990140D01*
X154638872Y-109990177D01*
X154629353Y-109997980D01*
X154629378Y-109998011D01*
X154615528Y-110009353D01*
X154599963Y-110028279D01*
X154588389Y-110049877D01*
X154581251Y-110073319D01*
X154578824Y-110097702D01*
X154581200Y-110122091D01*
X154588289Y-110145547D01*
X154599818Y-110167170D01*
X154615343Y-110186128D01*
X154634269Y-110201693D01*
X154637325Y-110203529D01*
X154639014Y-110204918D01*
X154639016Y-110204919D01*
X154645212Y-110210015D01*
X154646774Y-110211300D01*
X154653142Y-110219075D01*
X154656291Y-110224983D01*
X154657867Y-110227938D01*
X154660757Y-110237501D01*
X154660782Y-110237585D01*
X154662352Y-110253613D01*
X154662352Y-111391360D01*
X154660763Y-111407499D01*
X154657848Y-111417108D01*
X154653110Y-111425972D01*
X154646737Y-111433737D01*
X154638972Y-111440110D01*
X154630108Y-111444848D01*
X154620499Y-111447763D01*
X154604360Y-111449352D01*
X153116640Y-111449352D01*
X153100501Y-111447763D01*
X153090892Y-111444848D01*
X153082028Y-111440110D01*
X153074263Y-111433737D01*
X153067890Y-111425972D01*
X153063152Y-111417108D01*
X153060237Y-111407499D01*
X153058648Y-111391360D01*
X153058648Y-110253640D01*
X153060237Y-110237501D01*
X153063152Y-110227892D01*
X153067890Y-110219028D01*
X153074263Y-110211263D01*
X153087237Y-110200616D01*
X153096468Y-110194447D01*
X153113794Y-110177119D01*
X153127407Y-110156744D01*
X153136783Y-110134105D01*
X153141563Y-110110072D01*
X153141562Y-110085568D01*
X153136780Y-110061535D01*
X153127402Y-110038896D01*
X153113787Y-110018522D01*
X153096459Y-110001196D01*
X153087183Y-109994325D01*
X153074300Y-109983774D01*
X153073168Y-109982397D01*
X153067919Y-109976016D01*
X153063174Y-109967161D01*
X153062249Y-109964123D01*
X153060258Y-109957585D01*
X153060258Y-109957582D01*
X153060248Y-109957550D01*
X153059253Y-109947500D01*
X153059253Y-109947435D01*
X153058648Y-109941325D01*
X153058648Y-108953640D01*
X153060237Y-108937501D01*
X153063152Y-108927892D01*
X153067890Y-108919028D01*
X153074263Y-108911263D01*
X153082028Y-108904890D01*
X153090892Y-108900152D01*
X153100501Y-108897237D01*
X153116640Y-108895648D01*
X154604360Y-108895648D01*
X154620499Y-108897237D01*
X154620499Y-108897237D01*
G37*
G36*
X157033499Y-108897237D02*
G01*
X157043108Y-108900152D01*
X157051972Y-108904890D01*
X157059737Y-108911263D01*
X157066110Y-108919028D01*
X157070848Y-108927892D01*
X157073763Y-108937501D01*
X157075352Y-108953640D01*
X157075352Y-109941360D01*
X157073763Y-109957499D01*
X157070848Y-109967108D01*
X157066110Y-109975972D01*
X157059758Y-109983712D01*
X157059737Y-109983737D01*
X157051927Y-109990140D01*
X157051872Y-109990177D01*
X157042353Y-109997980D01*
X157042378Y-109998011D01*
X157028528Y-110009353D01*
X157012963Y-110028279D01*
X157001389Y-110049877D01*
X156994251Y-110073319D01*
X156991824Y-110097702D01*
X156994200Y-110122091D01*
X157001289Y-110145547D01*
X157012818Y-110167170D01*
X157028343Y-110186128D01*
X157047269Y-110201693D01*
X157050325Y-110203529D01*
X157052014Y-110204918D01*
X157052016Y-110204919D01*
X157058212Y-110210015D01*
X157059774Y-110211300D01*
X157066142Y-110219075D01*
X157069291Y-110224983D01*
X157070867Y-110227938D01*
X157073757Y-110237501D01*
X157073782Y-110237585D01*
X157075352Y-110253613D01*
X157075352Y-111391360D01*
X157073763Y-111407499D01*
X157070848Y-111417108D01*
X157066110Y-111425972D01*
X157059737Y-111433737D01*
X157051972Y-111440110D01*
X157043108Y-111444848D01*
X157033499Y-111447763D01*
X157017360Y-111449352D01*
X155529640Y-111449352D01*
X155513501Y-111447763D01*
X155503892Y-111444848D01*
X155495028Y-111440110D01*
X155487263Y-111433737D01*
X155480890Y-111425972D01*
X155476152Y-111417108D01*
X155473237Y-111407499D01*
X155471648Y-111391360D01*
X155471648Y-110253640D01*
X155473237Y-110237501D01*
X155476152Y-110227892D01*
X155480890Y-110219028D01*
X155487263Y-110211263D01*
X155500237Y-110200616D01*
X155509468Y-110194447D01*
X155526794Y-110177119D01*
X155540407Y-110156744D01*
X155549783Y-110134105D01*
X155554563Y-110110072D01*
X155554562Y-110085568D01*
X155549780Y-110061535D01*
X155540402Y-110038896D01*
X155526787Y-110018522D01*
X155509459Y-110001196D01*
X155500183Y-109994325D01*
X155487300Y-109983774D01*
X155486168Y-109982397D01*
X155480919Y-109976016D01*
X155476174Y-109967161D01*
X155475249Y-109964123D01*
X155473258Y-109957585D01*
X155473258Y-109957582D01*
X155473248Y-109957550D01*
X155472253Y-109947500D01*
X155472253Y-109947435D01*
X155471648Y-109941325D01*
X155471648Y-108953640D01*
X155473237Y-108937501D01*
X155476152Y-108927892D01*
X155480890Y-108919028D01*
X155487263Y-108911263D01*
X155495028Y-108904890D01*
X155503892Y-108900152D01*
X155513501Y-108897237D01*
X155529640Y-108895648D01*
X157017360Y-108895648D01*
X157033499Y-108897237D01*
X157033499Y-108897237D01*
G37*
G36*
X161859499Y-108897237D02*
G01*
X161869108Y-108900152D01*
X161877972Y-108904890D01*
X161885737Y-108911263D01*
X161892110Y-108919028D01*
X161896848Y-108927892D01*
X161899763Y-108937501D01*
X161901352Y-108953640D01*
X161901352Y-109941360D01*
X161899763Y-109957499D01*
X161896848Y-109967108D01*
X161892110Y-109975972D01*
X161885758Y-109983712D01*
X161885737Y-109983737D01*
X161877927Y-109990140D01*
X161877872Y-109990177D01*
X161868353Y-109997980D01*
X161868378Y-109998011D01*
X161854528Y-110009353D01*
X161838963Y-110028279D01*
X161827389Y-110049877D01*
X161820251Y-110073319D01*
X161817824Y-110097702D01*
X161820200Y-110122091D01*
X161827289Y-110145547D01*
X161838818Y-110167170D01*
X161854343Y-110186128D01*
X161873269Y-110201693D01*
X161876325Y-110203529D01*
X161878014Y-110204918D01*
X161878016Y-110204919D01*
X161884212Y-110210015D01*
X161885774Y-110211300D01*
X161892142Y-110219075D01*
X161895291Y-110224983D01*
X161896867Y-110227938D01*
X161899757Y-110237501D01*
X161899782Y-110237585D01*
X161901352Y-110253613D01*
X161901352Y-111391360D01*
X161899763Y-111407499D01*
X161896848Y-111417108D01*
X161892110Y-111425972D01*
X161885737Y-111433737D01*
X161877972Y-111440110D01*
X161869108Y-111444848D01*
X161859499Y-111447763D01*
X161843360Y-111449352D01*
X160355640Y-111449352D01*
X160339501Y-111447763D01*
X160329892Y-111444848D01*
X160321028Y-111440110D01*
X160313263Y-111433737D01*
X160306890Y-111425972D01*
X160302152Y-111417108D01*
X160299237Y-111407499D01*
X160297648Y-111391360D01*
X160297648Y-110253640D01*
X160299237Y-110237501D01*
X160302152Y-110227892D01*
X160306890Y-110219028D01*
X160313263Y-110211263D01*
X160326237Y-110200616D01*
X160335468Y-110194447D01*
X160352794Y-110177119D01*
X160366407Y-110156744D01*
X160375783Y-110134105D01*
X160380563Y-110110072D01*
X160380562Y-110085568D01*
X160375780Y-110061535D01*
X160366402Y-110038896D01*
X160352787Y-110018522D01*
X160335459Y-110001196D01*
X160326183Y-109994325D01*
X160313300Y-109983774D01*
X160312168Y-109982397D01*
X160306919Y-109976016D01*
X160302174Y-109967161D01*
X160301249Y-109964123D01*
X160299258Y-109957585D01*
X160299258Y-109957582D01*
X160299248Y-109957550D01*
X160298253Y-109947500D01*
X160298253Y-109947435D01*
X160297648Y-109941325D01*
X160297648Y-108953640D01*
X160299237Y-108937501D01*
X160302152Y-108927892D01*
X160306890Y-108919028D01*
X160313263Y-108911263D01*
X160321028Y-108904890D01*
X160329892Y-108900152D01*
X160339501Y-108897237D01*
X160355640Y-108895648D01*
X161843360Y-108895648D01*
X161859499Y-108897237D01*
X161859499Y-108897237D01*
G37*
G36*
X164272499Y-108897237D02*
G01*
X164282108Y-108900152D01*
X164290972Y-108904890D01*
X164298737Y-108911263D01*
X164305110Y-108919028D01*
X164309848Y-108927892D01*
X164312763Y-108937501D01*
X164314352Y-108953640D01*
X164314352Y-109941360D01*
X164312763Y-109957499D01*
X164309848Y-109967108D01*
X164305110Y-109975972D01*
X164298758Y-109983712D01*
X164298737Y-109983737D01*
X164290927Y-109990140D01*
X164290872Y-109990177D01*
X164281353Y-109997980D01*
X164281378Y-109998011D01*
X164267528Y-110009353D01*
X164251963Y-110028279D01*
X164240389Y-110049877D01*
X164233251Y-110073319D01*
X164230824Y-110097702D01*
X164233200Y-110122091D01*
X164240289Y-110145547D01*
X164251818Y-110167170D01*
X164267343Y-110186128D01*
X164286269Y-110201693D01*
X164289325Y-110203529D01*
X164291014Y-110204918D01*
X164291016Y-110204919D01*
X164297212Y-110210015D01*
X164298774Y-110211300D01*
X164305142Y-110219075D01*
X164308291Y-110224983D01*
X164309867Y-110227938D01*
X164312757Y-110237501D01*
X164312782Y-110237585D01*
X164314352Y-110253613D01*
X164314352Y-111391360D01*
X164312763Y-111407499D01*
X164309848Y-111417108D01*
X164305110Y-111425972D01*
X164298737Y-111433737D01*
X164290972Y-111440110D01*
X164282108Y-111444848D01*
X164272499Y-111447763D01*
X164256360Y-111449352D01*
X162768640Y-111449352D01*
X162752501Y-111447763D01*
X162742892Y-111444848D01*
X162734028Y-111440110D01*
X162726263Y-111433737D01*
X162719890Y-111425972D01*
X162715152Y-111417108D01*
X162712237Y-111407499D01*
X162710648Y-111391360D01*
X162710648Y-110253640D01*
X162712237Y-110237501D01*
X162715152Y-110227892D01*
X162719890Y-110219028D01*
X162726263Y-110211263D01*
X162739237Y-110200616D01*
X162748468Y-110194447D01*
X162765794Y-110177119D01*
X162779407Y-110156744D01*
X162788783Y-110134105D01*
X162793563Y-110110072D01*
X162793562Y-110085568D01*
X162788780Y-110061535D01*
X162779402Y-110038896D01*
X162765787Y-110018522D01*
X162748459Y-110001196D01*
X162739183Y-109994325D01*
X162726300Y-109983774D01*
X162725168Y-109982397D01*
X162719919Y-109976016D01*
X162715174Y-109967161D01*
X162714249Y-109964123D01*
X162712258Y-109957585D01*
X162712258Y-109957582D01*
X162712248Y-109957550D01*
X162711253Y-109947500D01*
X162711253Y-109947435D01*
X162710648Y-109941325D01*
X162710648Y-108953640D01*
X162712237Y-108937501D01*
X162715152Y-108927892D01*
X162719890Y-108919028D01*
X162726263Y-108911263D01*
X162734028Y-108904890D01*
X162742892Y-108900152D01*
X162752501Y-108897237D01*
X162768640Y-108895648D01*
X164256360Y-108895648D01*
X164272499Y-108897237D01*
X164272499Y-108897237D01*
G37*
G36*
X154326999Y-104736737D02*
G01*
X154341528Y-104741145D01*
X154354711Y-104746606D01*
X154378745Y-104751388D01*
X154403249Y-104751389D01*
X154427282Y-104746609D01*
X154449921Y-104737232D01*
X154451765Y-104736000D01*
X155683050Y-104736000D01*
X155695164Y-104742475D01*
X155718613Y-104749588D01*
X155742999Y-104751990D01*
X155767385Y-104749588D01*
X155790834Y-104742475D01*
X155795746Y-104740152D01*
X155807001Y-104736737D01*
X155823140Y-104735148D01*
X156360861Y-104735148D01*
X156379199Y-104736954D01*
X156391450Y-104737556D01*
X156409869Y-104737556D01*
X156432149Y-104739750D01*
X156516233Y-104756476D01*
X156537660Y-104762976D01*
X156616858Y-104795780D01*
X156622303Y-104798691D01*
X156622309Y-104798693D01*
X156631169Y-104803429D01*
X156631173Y-104803432D01*
X156636614Y-104806340D01*
X156707899Y-104853971D01*
X156725204Y-104868172D01*
X156785828Y-104928796D01*
X156800029Y-104946101D01*
X156847660Y-105017386D01*
X156850568Y-105022827D01*
X156850571Y-105022831D01*
X156855307Y-105031691D01*
X156855309Y-105031697D01*
X156858220Y-105037142D01*
X156891024Y-105116340D01*
X156897524Y-105137767D01*
X156914250Y-105221851D01*
X156916444Y-105244131D01*
X156916444Y-105262550D01*
X156917046Y-105274801D01*
X156918852Y-105293139D01*
X156918852Y-105780862D01*
X156917046Y-105799199D01*
X156916444Y-105811450D01*
X156916444Y-105829869D01*
X156914250Y-105852149D01*
X156897524Y-105936233D01*
X156891024Y-105957660D01*
X156858220Y-106036858D01*
X156855309Y-106042303D01*
X156855307Y-106042309D01*
X156850571Y-106051169D01*
X156850568Y-106051173D01*
X156847660Y-106056614D01*
X156800029Y-106127899D01*
X156785828Y-106145204D01*
X156725204Y-106205828D01*
X156707899Y-106220029D01*
X156636614Y-106267660D01*
X156631173Y-106270568D01*
X156631169Y-106270571D01*
X156622309Y-106275307D01*
X156622303Y-106275309D01*
X156616858Y-106278220D01*
X156537660Y-106311024D01*
X156516233Y-106317524D01*
X156432149Y-106334250D01*
X156409869Y-106336444D01*
X156391450Y-106336444D01*
X156379199Y-106337046D01*
X156360862Y-106338852D01*
X155823140Y-106338852D01*
X155807001Y-106337263D01*
X155792472Y-106332855D01*
X155779289Y-106327394D01*
X155755255Y-106322612D01*
X155730751Y-106322611D01*
X155706718Y-106327391D01*
X155684079Y-106336768D01*
X155682235Y-106338000D01*
X154450950Y-106338000D01*
X154438836Y-106331525D01*
X154415387Y-106324412D01*
X154391001Y-106322010D01*
X154366615Y-106324412D01*
X154343166Y-106331525D01*
X154338254Y-106333848D01*
X154326999Y-106337263D01*
X154310860Y-106338852D01*
X153773138Y-106338852D01*
X153754801Y-106337046D01*
X153742550Y-106336444D01*
X153724131Y-106336444D01*
X153701851Y-106334250D01*
X153617767Y-106317524D01*
X153596340Y-106311024D01*
X153517142Y-106278220D01*
X153511697Y-106275309D01*
X153511691Y-106275307D01*
X153502831Y-106270571D01*
X153502827Y-106270568D01*
X153497386Y-106267660D01*
X153426101Y-106220029D01*
X153408796Y-106205828D01*
X153348172Y-106145204D01*
X153333971Y-106127899D01*
X153286340Y-106056614D01*
X153283432Y-106051173D01*
X153283429Y-106051169D01*
X153278693Y-106042309D01*
X153278691Y-106042303D01*
X153275780Y-106036858D01*
X153242976Y-105957660D01*
X153236476Y-105936233D01*
X153219750Y-105852149D01*
X153217556Y-105829869D01*
X153217556Y-105811450D01*
X153216954Y-105799199D01*
X153215148Y-105780862D01*
X153215148Y-105293139D01*
X153216954Y-105274801D01*
X153217556Y-105262550D01*
X153217556Y-105244131D01*
X153219750Y-105221851D01*
X153236476Y-105137767D01*
X153242976Y-105116340D01*
X153275780Y-105037142D01*
X153278691Y-105031697D01*
X153278693Y-105031691D01*
X153283429Y-105022831D01*
X153283432Y-105022827D01*
X153286340Y-105017386D01*
X153333971Y-104946101D01*
X153348172Y-104928796D01*
X153408796Y-104868172D01*
X153426101Y-104853971D01*
X153497386Y-104806340D01*
X153502827Y-104803432D01*
X153502831Y-104803429D01*
X153511691Y-104798693D01*
X153511697Y-104798691D01*
X153517142Y-104795780D01*
X153596340Y-104762976D01*
X153617767Y-104756476D01*
X153701851Y-104739750D01*
X153724131Y-104737556D01*
X153742550Y-104737556D01*
X153754801Y-104736954D01*
X153773139Y-104735148D01*
X154310860Y-104735148D01*
X154326999Y-104736737D01*
X154326999Y-104736737D01*
G37*
G36*
X159152999Y-104736737D02*
G01*
X159167528Y-104741145D01*
X159180711Y-104746606D01*
X159204745Y-104751388D01*
X159229249Y-104751389D01*
X159253282Y-104746609D01*
X159275921Y-104737232D01*
X159277765Y-104736000D01*
X160509050Y-104736000D01*
X160521164Y-104742475D01*
X160544613Y-104749588D01*
X160568999Y-104751990D01*
X160593385Y-104749588D01*
X160616834Y-104742475D01*
X160621746Y-104740152D01*
X160633001Y-104736737D01*
X160649140Y-104735148D01*
X161186861Y-104735148D01*
X161205199Y-104736954D01*
X161217450Y-104737556D01*
X161235869Y-104737556D01*
X161258149Y-104739750D01*
X161342233Y-104756476D01*
X161363660Y-104762976D01*
X161442858Y-104795780D01*
X161448303Y-104798691D01*
X161448309Y-104798693D01*
X161457169Y-104803429D01*
X161457173Y-104803432D01*
X161462614Y-104806340D01*
X161533899Y-104853971D01*
X161551204Y-104868172D01*
X161611828Y-104928796D01*
X161626029Y-104946101D01*
X161673660Y-105017386D01*
X161676568Y-105022827D01*
X161676571Y-105022831D01*
X161681307Y-105031691D01*
X161681309Y-105031697D01*
X161684220Y-105037142D01*
X161717024Y-105116340D01*
X161723524Y-105137767D01*
X161740250Y-105221851D01*
X161742444Y-105244131D01*
X161742444Y-105262550D01*
X161743046Y-105274801D01*
X161744852Y-105293139D01*
X161744852Y-105780862D01*
X161743046Y-105799199D01*
X161742444Y-105811450D01*
X161742444Y-105829869D01*
X161740250Y-105852149D01*
X161723524Y-105936233D01*
X161717024Y-105957660D01*
X161684220Y-106036858D01*
X161681309Y-106042303D01*
X161681307Y-106042309D01*
X161676571Y-106051169D01*
X161676568Y-106051173D01*
X161673660Y-106056614D01*
X161626029Y-106127899D01*
X161611828Y-106145204D01*
X161551204Y-106205828D01*
X161533899Y-106220029D01*
X161462614Y-106267660D01*
X161457173Y-106270568D01*
X161457169Y-106270571D01*
X161448309Y-106275307D01*
X161448303Y-106275309D01*
X161442858Y-106278220D01*
X161363660Y-106311024D01*
X161342233Y-106317524D01*
X161258149Y-106334250D01*
X161235869Y-106336444D01*
X161217450Y-106336444D01*
X161205199Y-106337046D01*
X161186862Y-106338852D01*
X160649140Y-106338852D01*
X160633001Y-106337263D01*
X160618472Y-106332855D01*
X160605289Y-106327394D01*
X160581255Y-106322612D01*
X160556751Y-106322611D01*
X160532718Y-106327391D01*
X160510079Y-106336768D01*
X160508235Y-106338000D01*
X159276950Y-106338000D01*
X159264836Y-106331525D01*
X159241387Y-106324412D01*
X159217001Y-106322010D01*
X159192615Y-106324412D01*
X159169166Y-106331525D01*
X159164254Y-106333848D01*
X159152999Y-106337263D01*
X159136860Y-106338852D01*
X158599138Y-106338852D01*
X158580801Y-106337046D01*
X158568550Y-106336444D01*
X158550131Y-106336444D01*
X158527851Y-106334250D01*
X158443767Y-106317524D01*
X158422340Y-106311024D01*
X158343142Y-106278220D01*
X158337697Y-106275309D01*
X158337691Y-106275307D01*
X158328831Y-106270571D01*
X158328827Y-106270568D01*
X158323386Y-106267660D01*
X158252101Y-106220029D01*
X158234796Y-106205828D01*
X158174172Y-106145204D01*
X158159971Y-106127899D01*
X158112340Y-106056614D01*
X158109432Y-106051173D01*
X158109429Y-106051169D01*
X158104693Y-106042309D01*
X158104691Y-106042303D01*
X158101780Y-106036858D01*
X158068976Y-105957660D01*
X158062476Y-105936233D01*
X158045750Y-105852149D01*
X158043556Y-105829869D01*
X158043556Y-105811450D01*
X158042954Y-105799199D01*
X158041148Y-105780862D01*
X158041148Y-105293139D01*
X158042954Y-105274801D01*
X158043556Y-105262550D01*
X158043556Y-105244131D01*
X158045750Y-105221851D01*
X158062476Y-105137767D01*
X158068976Y-105116340D01*
X158101780Y-105037142D01*
X158104691Y-105031697D01*
X158104693Y-105031691D01*
X158109429Y-105022831D01*
X158109432Y-105022827D01*
X158112340Y-105017386D01*
X158159971Y-104946101D01*
X158174172Y-104928796D01*
X158234796Y-104868172D01*
X158252101Y-104853971D01*
X158323386Y-104806340D01*
X158328827Y-104803432D01*
X158328831Y-104803429D01*
X158337691Y-104798693D01*
X158337697Y-104798691D01*
X158343142Y-104795780D01*
X158422340Y-104762976D01*
X158443767Y-104756476D01*
X158527851Y-104739750D01*
X158550131Y-104737556D01*
X158568550Y-104737556D01*
X158580801Y-104736954D01*
X158599139Y-104735148D01*
X159136860Y-104735148D01*
X159152999Y-104736737D01*
X159152999Y-104736737D01*
G37*
G36*
X164731000Y-106311000D02*
G01*
X162929000Y-106311000D01*
X162929000Y-104509000D01*
X164731000Y-104509000D01*
X164731000Y-106311000D01*
X164731000Y-106311000D01*
G37*
G36*
X152031000Y-106311000D02*
G01*
X150229000Y-106311000D01*
X150229000Y-104509000D01*
X152031000Y-104509000D01*
X152031000Y-106311000D01*
X152031000Y-106311000D01*
G37*
G36*
X163940442Y-101975518D02*
G01*
X164006627Y-101982037D01*
X164176466Y-102033557D01*
X164332991Y-102117222D01*
X164351345Y-102132285D01*
X164470186Y-102229814D01*
X164542085Y-102317425D01*
X164582778Y-102367009D01*
X164666443Y-102523534D01*
X164717963Y-102693373D01*
X164735359Y-102870000D01*
X164717963Y-103046627D01*
X164666443Y-103216466D01*
X164582778Y-103372991D01*
X164553448Y-103408729D01*
X164470186Y-103510186D01*
X164368729Y-103593448D01*
X164332991Y-103622778D01*
X164176466Y-103706443D01*
X164006627Y-103757963D01*
X163940443Y-103764481D01*
X163874260Y-103771000D01*
X163785740Y-103771000D01*
X163719557Y-103764481D01*
X163653373Y-103757963D01*
X163483534Y-103706443D01*
X163327009Y-103622778D01*
X163291271Y-103593448D01*
X163189814Y-103510186D01*
X163106552Y-103408729D01*
X163077222Y-103372991D01*
X162993557Y-103216466D01*
X162942037Y-103046627D01*
X162924641Y-102870000D01*
X162942037Y-102693373D01*
X162993557Y-102523534D01*
X163077222Y-102367009D01*
X163117915Y-102317425D01*
X163189814Y-102229814D01*
X163308655Y-102132285D01*
X163327009Y-102117222D01*
X163483534Y-102033557D01*
X163653373Y-101982037D01*
X163719558Y-101975518D01*
X163785740Y-101969000D01*
X163874260Y-101969000D01*
X163940442Y-101975518D01*
X163940442Y-101975518D01*
G37*
G36*
X151240442Y-101975518D02*
G01*
X151306627Y-101982037D01*
X151476466Y-102033557D01*
X151632991Y-102117222D01*
X151651345Y-102132285D01*
X151770186Y-102229814D01*
X151842085Y-102317425D01*
X151882778Y-102367009D01*
X151966443Y-102523534D01*
X152017963Y-102693373D01*
X152035359Y-102870000D01*
X152017963Y-103046627D01*
X151966443Y-103216466D01*
X151882778Y-103372991D01*
X151853448Y-103408729D01*
X151770186Y-103510186D01*
X151668729Y-103593448D01*
X151632991Y-103622778D01*
X151476466Y-103706443D01*
X151306627Y-103757963D01*
X151240443Y-103764481D01*
X151174260Y-103771000D01*
X151085740Y-103771000D01*
X151019557Y-103764481D01*
X150953373Y-103757963D01*
X150783534Y-103706443D01*
X150627009Y-103622778D01*
X150591271Y-103593448D01*
X150489814Y-103510186D01*
X150406552Y-103408729D01*
X150377222Y-103372991D01*
X150293557Y-103216466D01*
X150242037Y-103046627D01*
X150224641Y-102870000D01*
X150242037Y-102693373D01*
X150293557Y-102523534D01*
X150377222Y-102367009D01*
X150417915Y-102317425D01*
X150489814Y-102229814D01*
X150608655Y-102132285D01*
X150627009Y-102117222D01*
X150783534Y-102033557D01*
X150953373Y-101982037D01*
X151019558Y-101975518D01*
X151085740Y-101969000D01*
X151174260Y-101969000D01*
X151240442Y-101975518D01*
X151240442Y-101975518D01*
G37*
G36*
X158445355Y-100671083D02*
G01*
X158450029Y-100672501D01*
X158454331Y-100674800D01*
X158458104Y-100677896D01*
X158461200Y-100681669D01*
X158463499Y-100685971D01*
X158464917Y-100690645D01*
X158466000Y-100701641D01*
X158466000Y-100990359D01*
X158464917Y-101001355D01*
X158463499Y-101006029D01*
X158461200Y-101010330D01*
X158455971Y-101016702D01*
X158442357Y-101037076D01*
X158432980Y-101059715D01*
X158428200Y-101083749D01*
X158428200Y-101108253D01*
X158432981Y-101132286D01*
X158442358Y-101154925D01*
X158455971Y-101175298D01*
X158461200Y-101181670D01*
X158463499Y-101185971D01*
X158464917Y-101190645D01*
X158466000Y-101201641D01*
X158466000Y-101490359D01*
X158464917Y-101501355D01*
X158463499Y-101506029D01*
X158461200Y-101510330D01*
X158455971Y-101516702D01*
X158442357Y-101537076D01*
X158432980Y-101559715D01*
X158428200Y-101583749D01*
X158428200Y-101608253D01*
X158432981Y-101632286D01*
X158442358Y-101654925D01*
X158455971Y-101675298D01*
X158461200Y-101681670D01*
X158463499Y-101685971D01*
X158464917Y-101690645D01*
X158466000Y-101701641D01*
X158466000Y-101990359D01*
X158464917Y-102001355D01*
X158463499Y-102006029D01*
X158461200Y-102010330D01*
X158455971Y-102016702D01*
X158442357Y-102037076D01*
X158432980Y-102059715D01*
X158428200Y-102083749D01*
X158428200Y-102108253D01*
X158432981Y-102132286D01*
X158442358Y-102154925D01*
X158455971Y-102175298D01*
X158461200Y-102181670D01*
X158463499Y-102185971D01*
X158464917Y-102190645D01*
X158466000Y-102201641D01*
X158466000Y-102490359D01*
X158464917Y-102501355D01*
X158463499Y-102506029D01*
X158461200Y-102510331D01*
X158458104Y-102514104D01*
X158454331Y-102517200D01*
X158450029Y-102519499D01*
X158445355Y-102520917D01*
X158434359Y-102522000D01*
X157795641Y-102522000D01*
X157784645Y-102520917D01*
X157779971Y-102519499D01*
X157775669Y-102517200D01*
X157771896Y-102514104D01*
X157768800Y-102510331D01*
X157766501Y-102506029D01*
X157765083Y-102501355D01*
X157764000Y-102490359D01*
X157764000Y-102201641D01*
X157765083Y-102190645D01*
X157766501Y-102185971D01*
X157768800Y-102181670D01*
X157774029Y-102175298D01*
X157787643Y-102154924D01*
X157797020Y-102132285D01*
X157801800Y-102108251D01*
X157801800Y-102083747D01*
X157797019Y-102059714D01*
X157787642Y-102037075D01*
X157774029Y-102016702D01*
X157768800Y-102010330D01*
X157766501Y-102006029D01*
X157765083Y-102001355D01*
X157764000Y-101990359D01*
X157764000Y-101701641D01*
X157765083Y-101690645D01*
X157766501Y-101685971D01*
X157768800Y-101681670D01*
X157774029Y-101675298D01*
X157787643Y-101654924D01*
X157797020Y-101632285D01*
X157801800Y-101608251D01*
X157801800Y-101583747D01*
X157797019Y-101559714D01*
X157787642Y-101537075D01*
X157774029Y-101516702D01*
X157768800Y-101510330D01*
X157766501Y-101506029D01*
X157765083Y-101501355D01*
X157764000Y-101490359D01*
X157764000Y-101201641D01*
X157765083Y-101190645D01*
X157766501Y-101185971D01*
X157768800Y-101181670D01*
X157774029Y-101175298D01*
X157787643Y-101154924D01*
X157797020Y-101132285D01*
X157801800Y-101108251D01*
X157801800Y-101083747D01*
X157797019Y-101059714D01*
X157787642Y-101037075D01*
X157774029Y-101016702D01*
X157768800Y-101010330D01*
X157766501Y-101006029D01*
X157765083Y-101001355D01*
X157764000Y-100990359D01*
X157764000Y-100701641D01*
X157765083Y-100690645D01*
X157766501Y-100685971D01*
X157768800Y-100681669D01*
X157771896Y-100677896D01*
X157775669Y-100674800D01*
X157779971Y-100672501D01*
X157784645Y-100671083D01*
X157795641Y-100670000D01*
X158434359Y-100670000D01*
X158445355Y-100671083D01*
X158445355Y-100671083D01*
G37*
G36*
X157145355Y-100671083D02*
G01*
X157150029Y-100672501D01*
X157154331Y-100674800D01*
X157158104Y-100677896D01*
X157161200Y-100681669D01*
X157163499Y-100685971D01*
X157164917Y-100690645D01*
X157166000Y-100701641D01*
X157166000Y-100990359D01*
X157164917Y-101001355D01*
X157163499Y-101006029D01*
X157161200Y-101010330D01*
X157155971Y-101016702D01*
X157142357Y-101037076D01*
X157132980Y-101059715D01*
X157128200Y-101083749D01*
X157128200Y-101108253D01*
X157132981Y-101132286D01*
X157142358Y-101154925D01*
X157155971Y-101175298D01*
X157161200Y-101181670D01*
X157163499Y-101185971D01*
X157164917Y-101190645D01*
X157166000Y-101201641D01*
X157166000Y-101490359D01*
X157164917Y-101501355D01*
X157163499Y-101506029D01*
X157161200Y-101510330D01*
X157155971Y-101516702D01*
X157142357Y-101537076D01*
X157132980Y-101559715D01*
X157128200Y-101583749D01*
X157128200Y-101608253D01*
X157132981Y-101632286D01*
X157142358Y-101654925D01*
X157155971Y-101675298D01*
X157161200Y-101681670D01*
X157163499Y-101685971D01*
X157164917Y-101690645D01*
X157166000Y-101701641D01*
X157166000Y-101990359D01*
X157164917Y-102001355D01*
X157163499Y-102006029D01*
X157161200Y-102010330D01*
X157155971Y-102016702D01*
X157142357Y-102037076D01*
X157132980Y-102059715D01*
X157128200Y-102083749D01*
X157128200Y-102108253D01*
X157132981Y-102132286D01*
X157142358Y-102154925D01*
X157155971Y-102175298D01*
X157161200Y-102181670D01*
X157163499Y-102185971D01*
X157164917Y-102190645D01*
X157166000Y-102201641D01*
X157166000Y-102490359D01*
X157164917Y-102501355D01*
X157163499Y-102506029D01*
X157161200Y-102510331D01*
X157158104Y-102514104D01*
X157154331Y-102517200D01*
X157150029Y-102519499D01*
X157145355Y-102520917D01*
X157134359Y-102522000D01*
X156495641Y-102522000D01*
X156484645Y-102520917D01*
X156479971Y-102519499D01*
X156475669Y-102517200D01*
X156471896Y-102514104D01*
X156468800Y-102510331D01*
X156466501Y-102506029D01*
X156465083Y-102501355D01*
X156464000Y-102490359D01*
X156464000Y-102201641D01*
X156465083Y-102190645D01*
X156466501Y-102185971D01*
X156468800Y-102181670D01*
X156474029Y-102175298D01*
X156487643Y-102154924D01*
X156497020Y-102132285D01*
X156501800Y-102108251D01*
X156501800Y-102083747D01*
X156497019Y-102059714D01*
X156487642Y-102037075D01*
X156474029Y-102016702D01*
X156468800Y-102010330D01*
X156466501Y-102006029D01*
X156465083Y-102001355D01*
X156464000Y-101990359D01*
X156464000Y-101701641D01*
X156465083Y-101690645D01*
X156466501Y-101685971D01*
X156468800Y-101681670D01*
X156474029Y-101675298D01*
X156487643Y-101654924D01*
X156497020Y-101632285D01*
X156501800Y-101608251D01*
X156501800Y-101583747D01*
X156497019Y-101559714D01*
X156487642Y-101537075D01*
X156474029Y-101516702D01*
X156468800Y-101510330D01*
X156466501Y-101506029D01*
X156465083Y-101501355D01*
X156464000Y-101490359D01*
X156464000Y-101201641D01*
X156465083Y-101190645D01*
X156466501Y-101185971D01*
X156468800Y-101181670D01*
X156474029Y-101175298D01*
X156487643Y-101154924D01*
X156497020Y-101132285D01*
X156501800Y-101108251D01*
X156501800Y-101083747D01*
X156497019Y-101059714D01*
X156487642Y-101037075D01*
X156474029Y-101016702D01*
X156468800Y-101010330D01*
X156466501Y-101006029D01*
X156465083Y-101001355D01*
X156464000Y-100990359D01*
X156464000Y-100701641D01*
X156465083Y-100690645D01*
X156466501Y-100685971D01*
X156468800Y-100681669D01*
X156471896Y-100677896D01*
X156475669Y-100674800D01*
X156479971Y-100672501D01*
X156484645Y-100671083D01*
X156495641Y-100670000D01*
X157134359Y-100670000D01*
X157145355Y-100671083D01*
X157145355Y-100671083D01*
G37*
G36*
X161420901Y-101671360D02*
G01*
X161442925Y-101678041D01*
X161463222Y-101688890D01*
X161481011Y-101703489D01*
X161495610Y-101721278D01*
X161506459Y-101741575D01*
X161513140Y-101763599D01*
X161516000Y-101792640D01*
X161516000Y-102266360D01*
X161513140Y-102295401D01*
X161506459Y-102317425D01*
X161495610Y-102337722D01*
X161481011Y-102355511D01*
X161463222Y-102370110D01*
X161442925Y-102380959D01*
X161420901Y-102387640D01*
X161391860Y-102390500D01*
X159918140Y-102390500D01*
X159889099Y-102387640D01*
X159867075Y-102380959D01*
X159846778Y-102370110D01*
X159828989Y-102355511D01*
X159814390Y-102337722D01*
X159803541Y-102317425D01*
X159796860Y-102295401D01*
X159794000Y-102266360D01*
X159794000Y-101792640D01*
X159796860Y-101763599D01*
X159803541Y-101741575D01*
X159814390Y-101721278D01*
X159828989Y-101703489D01*
X159846778Y-101688890D01*
X159867075Y-101678041D01*
X159889099Y-101671360D01*
X159918140Y-101668500D01*
X161391860Y-101668500D01*
X161420901Y-101671360D01*
X161420901Y-101671360D01*
G37*
G36*
X153922591Y-100506085D02*
G01*
X153956569Y-100516393D01*
X153987890Y-100533134D01*
X154015339Y-100555661D01*
X154037866Y-100583110D01*
X154054607Y-100614431D01*
X154064915Y-100648409D01*
X154069000Y-100689890D01*
X154069000Y-101291110D01*
X154064915Y-101332591D01*
X154054607Y-101366569D01*
X154037866Y-101397890D01*
X154015339Y-101425339D01*
X153987890Y-101447866D01*
X153956569Y-101464607D01*
X153922591Y-101474915D01*
X153881110Y-101479000D01*
X153204890Y-101479000D01*
X153163409Y-101474915D01*
X153129431Y-101464607D01*
X153098110Y-101447866D01*
X153070661Y-101425339D01*
X153048134Y-101397890D01*
X153031393Y-101366569D01*
X153021085Y-101332591D01*
X153017000Y-101291110D01*
X153017000Y-100689890D01*
X153021085Y-100648409D01*
X153031393Y-100614431D01*
X153048134Y-100583110D01*
X153070661Y-100555661D01*
X153098110Y-100533134D01*
X153129431Y-100516393D01*
X153163409Y-100506085D01*
X153204890Y-100502000D01*
X153881110Y-100502000D01*
X153922591Y-100506085D01*
X153922591Y-100506085D01*
G37*
G36*
X155319591Y-100506085D02*
G01*
X155353569Y-100516393D01*
X155384890Y-100533134D01*
X155412339Y-100555661D01*
X155434866Y-100583110D01*
X155451607Y-100614431D01*
X155461915Y-100648409D01*
X155466000Y-100689890D01*
X155466000Y-101291110D01*
X155461915Y-101332591D01*
X155451607Y-101366569D01*
X155434866Y-101397890D01*
X155412339Y-101425339D01*
X155384890Y-101447866D01*
X155353569Y-101464607D01*
X155319591Y-101474915D01*
X155278110Y-101479000D01*
X154601890Y-101479000D01*
X154560409Y-101474915D01*
X154526431Y-101464607D01*
X154495110Y-101447866D01*
X154467661Y-101425339D01*
X154445134Y-101397890D01*
X154428393Y-101366569D01*
X154418085Y-101332591D01*
X154414000Y-101291110D01*
X154414000Y-100689890D01*
X154418085Y-100648409D01*
X154428393Y-100614431D01*
X154445134Y-100583110D01*
X154467661Y-100555661D01*
X154495110Y-100533134D01*
X154526431Y-100516393D01*
X154560409Y-100506085D01*
X154601890Y-100502000D01*
X155278110Y-100502000D01*
X155319591Y-100506085D01*
X155319591Y-100506085D01*
G37*
G36*
X151240443Y-99435519D02*
G01*
X151306627Y-99442037D01*
X151476466Y-99493557D01*
X151632991Y-99577222D01*
X151668729Y-99606552D01*
X151770186Y-99689814D01*
X151822221Y-99753220D01*
X151882778Y-99827009D01*
X151966443Y-99983534D01*
X152017963Y-100153373D01*
X152035359Y-100330000D01*
X152017963Y-100506627D01*
X151966948Y-100674800D01*
X151966442Y-100676468D01*
X151965679Y-100677896D01*
X151882778Y-100832991D01*
X151853448Y-100868729D01*
X151770186Y-100970186D01*
X151688680Y-101037075D01*
X151632991Y-101082778D01*
X151632989Y-101082779D01*
X151498015Y-101154925D01*
X151476466Y-101166443D01*
X151306627Y-101217963D01*
X151242042Y-101224324D01*
X151174260Y-101231000D01*
X151085740Y-101231000D01*
X151017958Y-101224324D01*
X150953373Y-101217963D01*
X150783534Y-101166443D01*
X150761986Y-101154925D01*
X150627011Y-101082779D01*
X150627009Y-101082778D01*
X150571320Y-101037075D01*
X150489814Y-100970186D01*
X150406552Y-100868729D01*
X150377222Y-100832991D01*
X150294321Y-100677896D01*
X150293558Y-100676468D01*
X150293052Y-100674800D01*
X150242037Y-100506627D01*
X150224641Y-100330000D01*
X150242037Y-100153373D01*
X150293557Y-99983534D01*
X150377222Y-99827009D01*
X150437779Y-99753220D01*
X150489814Y-99689814D01*
X150591271Y-99606552D01*
X150627009Y-99577222D01*
X150783534Y-99493557D01*
X150953373Y-99442037D01*
X151019558Y-99435518D01*
X151085740Y-99429000D01*
X151174260Y-99429000D01*
X151240443Y-99435519D01*
X151240443Y-99435519D01*
G37*
G36*
X163940443Y-99435519D02*
G01*
X164006627Y-99442037D01*
X164176466Y-99493557D01*
X164332991Y-99577222D01*
X164368729Y-99606552D01*
X164470186Y-99689814D01*
X164522221Y-99753220D01*
X164582778Y-99827009D01*
X164666443Y-99983534D01*
X164717963Y-100153373D01*
X164735359Y-100330000D01*
X164717963Y-100506627D01*
X164666948Y-100674800D01*
X164666442Y-100676468D01*
X164665679Y-100677896D01*
X164582778Y-100832991D01*
X164553448Y-100868729D01*
X164470186Y-100970186D01*
X164388680Y-101037075D01*
X164332991Y-101082778D01*
X164332989Y-101082779D01*
X164198015Y-101154925D01*
X164176466Y-101166443D01*
X164006627Y-101217963D01*
X163942042Y-101224324D01*
X163874260Y-101231000D01*
X163785740Y-101231000D01*
X163717958Y-101224324D01*
X163653373Y-101217963D01*
X163483534Y-101166443D01*
X163461986Y-101154925D01*
X163327011Y-101082779D01*
X163327009Y-101082778D01*
X163271320Y-101037075D01*
X163189814Y-100970186D01*
X163106552Y-100868729D01*
X163077222Y-100832991D01*
X162994321Y-100677896D01*
X162993558Y-100676468D01*
X162993052Y-100674800D01*
X162942037Y-100506627D01*
X162924641Y-100330000D01*
X162942037Y-100153373D01*
X162993557Y-99983534D01*
X163077222Y-99827009D01*
X163137779Y-99753220D01*
X163189814Y-99689814D01*
X163291271Y-99606552D01*
X163327009Y-99577222D01*
X163483534Y-99493557D01*
X163653373Y-99442037D01*
X163719558Y-99435518D01*
X163785740Y-99429000D01*
X163874260Y-99429000D01*
X163940443Y-99435519D01*
X163940443Y-99435519D01*
G37*
G36*
X161420901Y-99796360D02*
G01*
X161442925Y-99803041D01*
X161463222Y-99813890D01*
X161481011Y-99828489D01*
X161495610Y-99846278D01*
X161506459Y-99866575D01*
X161513140Y-99888599D01*
X161516000Y-99917640D01*
X161516000Y-100391360D01*
X161513140Y-100420401D01*
X161506459Y-100442425D01*
X161495610Y-100462722D01*
X161481011Y-100480511D01*
X161463222Y-100495110D01*
X161442925Y-100505959D01*
X161420901Y-100512640D01*
X161391860Y-100515500D01*
X159918140Y-100515500D01*
X159889099Y-100512640D01*
X159867075Y-100505959D01*
X159846778Y-100495110D01*
X159828989Y-100480511D01*
X159814390Y-100462722D01*
X159803541Y-100442425D01*
X159796860Y-100420401D01*
X159794000Y-100391360D01*
X159794000Y-99917640D01*
X159796860Y-99888599D01*
X159803541Y-99866575D01*
X159814390Y-99846278D01*
X159828989Y-99828489D01*
X159846778Y-99813890D01*
X159867075Y-99803041D01*
X159889099Y-99796360D01*
X159918140Y-99793500D01*
X161391860Y-99793500D01*
X161420901Y-99796360D01*
X161420901Y-99796360D01*
G37*
G36*
X155319591Y-98931085D02*
G01*
X155353569Y-98941393D01*
X155384890Y-98958134D01*
X155412339Y-98980661D01*
X155434866Y-99008110D01*
X155451607Y-99039431D01*
X155461915Y-99073409D01*
X155466000Y-99114890D01*
X155466000Y-99716110D01*
X155461915Y-99757591D01*
X155451607Y-99791569D01*
X155434866Y-99822890D01*
X155412339Y-99850339D01*
X155384890Y-99872866D01*
X155353569Y-99889607D01*
X155319591Y-99899915D01*
X155278110Y-99904000D01*
X154601890Y-99904000D01*
X154560409Y-99899915D01*
X154526431Y-99889607D01*
X154495110Y-99872866D01*
X154467661Y-99850339D01*
X154445134Y-99822890D01*
X154428393Y-99791569D01*
X154418085Y-99757591D01*
X154414000Y-99716110D01*
X154414000Y-99114890D01*
X154418085Y-99073409D01*
X154428393Y-99039431D01*
X154445134Y-99008110D01*
X154467661Y-98980661D01*
X154495110Y-98958134D01*
X154526431Y-98941393D01*
X154560409Y-98931085D01*
X154601890Y-98927000D01*
X155278110Y-98927000D01*
X155319591Y-98931085D01*
X155319591Y-98931085D01*
G37*
G36*
X153922591Y-98931085D02*
G01*
X153956569Y-98941393D01*
X153987890Y-98958134D01*
X154015339Y-98980661D01*
X154037866Y-99008110D01*
X154054607Y-99039431D01*
X154064915Y-99073409D01*
X154069000Y-99114890D01*
X154069000Y-99716110D01*
X154064915Y-99757591D01*
X154054607Y-99791569D01*
X154037866Y-99822890D01*
X154015339Y-99850339D01*
X153987890Y-99872866D01*
X153956569Y-99889607D01*
X153922591Y-99899915D01*
X153881110Y-99904000D01*
X153204890Y-99904000D01*
X153163409Y-99899915D01*
X153129431Y-99889607D01*
X153098110Y-99872866D01*
X153070661Y-99850339D01*
X153048134Y-99822890D01*
X153031393Y-99791569D01*
X153021085Y-99757591D01*
X153017000Y-99716110D01*
X153017000Y-99114890D01*
X153021085Y-99073409D01*
X153031393Y-99039431D01*
X153048134Y-99008110D01*
X153070661Y-98980661D01*
X153098110Y-98958134D01*
X153129431Y-98941393D01*
X153163409Y-98931085D01*
X153204890Y-98927000D01*
X153881110Y-98927000D01*
X153922591Y-98931085D01*
X153922591Y-98931085D01*
G37*
G36*
X161034591Y-98283585D02*
G01*
X161068569Y-98293893D01*
X161099890Y-98310634D01*
X161127339Y-98333161D01*
X161149866Y-98360610D01*
X161166607Y-98391931D01*
X161176915Y-98425909D01*
X161181000Y-98467390D01*
X161181000Y-99068610D01*
X161176915Y-99110091D01*
X161166607Y-99144069D01*
X161149866Y-99175390D01*
X161127339Y-99202839D01*
X161099890Y-99225366D01*
X161068569Y-99242107D01*
X161034591Y-99252415D01*
X160993110Y-99256500D01*
X160316890Y-99256500D01*
X160275409Y-99252415D01*
X160241431Y-99242107D01*
X160210110Y-99225366D01*
X160182661Y-99202839D01*
X160160134Y-99175390D01*
X160143393Y-99144069D01*
X160133085Y-99110091D01*
X160129000Y-99068610D01*
X160129000Y-98467390D01*
X160133085Y-98425909D01*
X160143393Y-98391931D01*
X160160134Y-98360610D01*
X160182661Y-98333161D01*
X160210110Y-98310634D01*
X160241431Y-98293893D01*
X160275409Y-98283585D01*
X160316890Y-98279500D01*
X160993110Y-98279500D01*
X161034591Y-98283585D01*
X161034591Y-98283585D01*
G37*
G36*
X157034591Y-98093585D02*
G01*
X157068569Y-98103893D01*
X157099890Y-98120634D01*
X157127339Y-98143161D01*
X157149866Y-98170610D01*
X157166607Y-98201931D01*
X157176915Y-98235909D01*
X157181000Y-98277390D01*
X157181000Y-98953610D01*
X157176915Y-98995091D01*
X157166607Y-99029069D01*
X157149866Y-99060390D01*
X157127339Y-99087839D01*
X157099890Y-99110366D01*
X157068569Y-99127107D01*
X157034591Y-99137415D01*
X156993110Y-99141500D01*
X156391890Y-99141500D01*
X156350409Y-99137415D01*
X156316431Y-99127107D01*
X156285110Y-99110366D01*
X156257661Y-99087839D01*
X156235134Y-99060390D01*
X156218393Y-99029069D01*
X156208085Y-98995091D01*
X156204000Y-98953610D01*
X156204000Y-98277390D01*
X156208085Y-98235909D01*
X156218393Y-98201931D01*
X156235134Y-98170610D01*
X156257661Y-98143161D01*
X156285110Y-98120634D01*
X156316431Y-98103893D01*
X156350409Y-98093585D01*
X156391890Y-98089500D01*
X156993110Y-98089500D01*
X157034591Y-98093585D01*
X157034591Y-98093585D01*
G37*
G36*
X158609591Y-98093585D02*
G01*
X158643569Y-98103893D01*
X158674890Y-98120634D01*
X158702339Y-98143161D01*
X158724866Y-98170610D01*
X158741607Y-98201931D01*
X158751915Y-98235909D01*
X158756000Y-98277390D01*
X158756000Y-98953610D01*
X158751915Y-98995091D01*
X158741607Y-99029069D01*
X158724866Y-99060390D01*
X158702339Y-99087839D01*
X158674890Y-99110366D01*
X158643569Y-99127107D01*
X158609591Y-99137415D01*
X158568110Y-99141500D01*
X157966890Y-99141500D01*
X157925409Y-99137415D01*
X157891431Y-99127107D01*
X157860110Y-99110366D01*
X157832661Y-99087839D01*
X157810134Y-99060390D01*
X157793393Y-99029069D01*
X157783085Y-98995091D01*
X157779000Y-98953610D01*
X157779000Y-98277390D01*
X157783085Y-98235909D01*
X157793393Y-98201931D01*
X157810134Y-98170610D01*
X157832661Y-98143161D01*
X157860110Y-98120634D01*
X157891431Y-98103893D01*
X157925409Y-98093585D01*
X157966890Y-98089500D01*
X158568110Y-98089500D01*
X158609591Y-98093585D01*
X158609591Y-98093585D01*
G37*
G36*
X163940442Y-96895518D02*
G01*
X164006627Y-96902037D01*
X164176466Y-96953557D01*
X164332991Y-97037222D01*
X164368729Y-97066552D01*
X164470186Y-97149814D01*
X164553448Y-97251271D01*
X164582778Y-97287009D01*
X164666443Y-97443534D01*
X164717963Y-97613373D01*
X164735359Y-97790000D01*
X164717963Y-97966627D01*
X164666443Y-98136466D01*
X164582778Y-98292991D01*
X164560067Y-98320664D01*
X164470186Y-98430186D01*
X164368729Y-98513448D01*
X164332991Y-98542778D01*
X164176466Y-98626443D01*
X164006627Y-98677963D01*
X163940442Y-98684482D01*
X163874260Y-98691000D01*
X163785740Y-98691000D01*
X163719558Y-98684482D01*
X163653373Y-98677963D01*
X163483534Y-98626443D01*
X163327009Y-98542778D01*
X163291271Y-98513448D01*
X163189814Y-98430186D01*
X163099933Y-98320664D01*
X163077222Y-98292991D01*
X162993557Y-98136466D01*
X162942037Y-97966627D01*
X162924641Y-97790000D01*
X162942037Y-97613373D01*
X162993557Y-97443534D01*
X163077222Y-97287009D01*
X163106552Y-97251271D01*
X163189814Y-97149814D01*
X163291271Y-97066552D01*
X163327009Y-97037222D01*
X163483534Y-96953557D01*
X163653373Y-96902037D01*
X163719558Y-96895518D01*
X163785740Y-96889000D01*
X163874260Y-96889000D01*
X163940442Y-96895518D01*
X163940442Y-96895518D01*
G37*
G36*
X151240442Y-96895518D02*
G01*
X151306627Y-96902037D01*
X151476466Y-96953557D01*
X151632991Y-97037222D01*
X151668729Y-97066552D01*
X151770186Y-97149814D01*
X151853448Y-97251271D01*
X151882778Y-97287009D01*
X151966443Y-97443534D01*
X152017963Y-97613373D01*
X152035359Y-97790000D01*
X152017963Y-97966627D01*
X151966443Y-98136466D01*
X151882778Y-98292991D01*
X151860067Y-98320664D01*
X151770186Y-98430186D01*
X151668729Y-98513448D01*
X151632991Y-98542778D01*
X151476466Y-98626443D01*
X151306627Y-98677963D01*
X151240442Y-98684482D01*
X151174260Y-98691000D01*
X151085740Y-98691000D01*
X151019558Y-98684482D01*
X150953373Y-98677963D01*
X150783534Y-98626443D01*
X150627009Y-98542778D01*
X150591271Y-98513448D01*
X150489814Y-98430186D01*
X150399933Y-98320664D01*
X150377222Y-98292991D01*
X150293557Y-98136466D01*
X150242037Y-97966627D01*
X150224641Y-97790000D01*
X150242037Y-97613373D01*
X150293557Y-97443534D01*
X150377222Y-97287009D01*
X150406552Y-97251271D01*
X150489814Y-97149814D01*
X150591271Y-97066552D01*
X150627009Y-97037222D01*
X150783534Y-96953557D01*
X150953373Y-96902037D01*
X151019558Y-96895518D01*
X151085740Y-96889000D01*
X151174260Y-96889000D01*
X151240442Y-96895518D01*
X151240442Y-96895518D01*
G37*
G36*
X158609591Y-96696585D02*
G01*
X158643569Y-96706893D01*
X158674890Y-96723634D01*
X158702339Y-96746161D01*
X158724866Y-96773610D01*
X158741607Y-96804931D01*
X158751915Y-96838909D01*
X158756000Y-96880390D01*
X158756000Y-97556610D01*
X158751915Y-97598091D01*
X158741607Y-97632069D01*
X158724866Y-97663390D01*
X158702339Y-97690839D01*
X158674890Y-97713366D01*
X158643569Y-97730107D01*
X158609591Y-97740415D01*
X158568110Y-97744500D01*
X157966890Y-97744500D01*
X157925409Y-97740415D01*
X157891431Y-97730107D01*
X157860110Y-97713366D01*
X157832661Y-97690839D01*
X157810134Y-97663390D01*
X157793393Y-97632069D01*
X157783085Y-97598091D01*
X157779000Y-97556610D01*
X157779000Y-96880390D01*
X157783085Y-96838909D01*
X157793393Y-96804931D01*
X157810134Y-96773610D01*
X157832661Y-96746161D01*
X157860110Y-96723634D01*
X157891431Y-96706893D01*
X157925409Y-96696585D01*
X157966890Y-96692500D01*
X158568110Y-96692500D01*
X158609591Y-96696585D01*
X158609591Y-96696585D01*
G37*
G36*
X157034591Y-96696585D02*
G01*
X157068569Y-96706893D01*
X157099890Y-96723634D01*
X157127339Y-96746161D01*
X157149866Y-96773610D01*
X157166607Y-96804931D01*
X157176915Y-96838909D01*
X157181000Y-96880390D01*
X157181000Y-97556610D01*
X157176915Y-97598091D01*
X157166607Y-97632069D01*
X157149866Y-97663390D01*
X157127339Y-97690839D01*
X157099890Y-97713366D01*
X157068569Y-97730107D01*
X157034591Y-97740415D01*
X156993110Y-97744500D01*
X156391890Y-97744500D01*
X156350409Y-97740415D01*
X156316431Y-97730107D01*
X156285110Y-97713366D01*
X156257661Y-97690839D01*
X156235134Y-97663390D01*
X156218393Y-97632069D01*
X156208085Y-97598091D01*
X156204000Y-97556610D01*
X156204000Y-96880390D01*
X156208085Y-96838909D01*
X156218393Y-96804931D01*
X156235134Y-96773610D01*
X156257661Y-96746161D01*
X156285110Y-96723634D01*
X156316431Y-96706893D01*
X156350409Y-96696585D01*
X156391890Y-96692500D01*
X156993110Y-96692500D01*
X157034591Y-96696585D01*
X157034591Y-96696585D01*
G37*
G36*
X161034591Y-96708585D02*
G01*
X161068569Y-96718893D01*
X161099890Y-96735634D01*
X161127339Y-96758161D01*
X161149866Y-96785610D01*
X161166607Y-96816931D01*
X161176915Y-96850909D01*
X161181000Y-96892390D01*
X161181000Y-97493610D01*
X161176915Y-97535091D01*
X161166607Y-97569069D01*
X161149866Y-97600390D01*
X161127339Y-97627839D01*
X161099890Y-97650366D01*
X161068569Y-97667107D01*
X161034591Y-97677415D01*
X160993110Y-97681500D01*
X160316890Y-97681500D01*
X160275409Y-97677415D01*
X160241431Y-97667107D01*
X160210110Y-97650366D01*
X160182661Y-97627839D01*
X160160134Y-97600390D01*
X160143393Y-97569069D01*
X160133085Y-97535091D01*
X160129000Y-97493610D01*
X160129000Y-96892390D01*
X160133085Y-96850909D01*
X160143393Y-96816931D01*
X160160134Y-96785610D01*
X160182661Y-96758161D01*
X160210110Y-96735634D01*
X160241431Y-96718893D01*
X160275409Y-96708585D01*
X160316890Y-96704500D01*
X160993110Y-96704500D01*
X161034591Y-96708585D01*
X161034591Y-96708585D01*
G37*
G36*
X158859434Y-91858686D02*
G01*
X158899284Y-91870774D01*
X158935999Y-91890399D01*
X158968186Y-91916814D01*
X158994601Y-91949001D01*
X159014226Y-91985716D01*
X159026314Y-92025566D01*
X159031000Y-92073141D01*
X159031000Y-95236859D01*
X159026314Y-95284434D01*
X159014226Y-95324284D01*
X158994601Y-95360999D01*
X158968186Y-95393186D01*
X158935999Y-95419601D01*
X158899284Y-95439226D01*
X158859434Y-95451314D01*
X158811859Y-95456000D01*
X158148141Y-95456000D01*
X158100566Y-95451314D01*
X158060716Y-95439226D01*
X158024001Y-95419601D01*
X157991814Y-95393186D01*
X157965399Y-95360999D01*
X157945774Y-95324284D01*
X157933686Y-95284434D01*
X157929000Y-95236859D01*
X157929000Y-92073141D01*
X157933686Y-92025566D01*
X157945774Y-91985716D01*
X157965399Y-91949001D01*
X157991814Y-91916814D01*
X158024001Y-91890399D01*
X158060716Y-91870774D01*
X158100566Y-91858686D01*
X158148141Y-91854000D01*
X158811859Y-91854000D01*
X158859434Y-91858686D01*
X158859434Y-91858686D01*
G37*
G36*
X156859434Y-91858686D02*
G01*
X156899284Y-91870774D01*
X156935999Y-91890399D01*
X156968186Y-91916814D01*
X156994601Y-91949001D01*
X157014226Y-91985716D01*
X157026314Y-92025566D01*
X157031000Y-92073141D01*
X157031000Y-95236859D01*
X157026314Y-95284434D01*
X157014226Y-95324284D01*
X156994601Y-95360999D01*
X156968186Y-95393186D01*
X156935999Y-95419601D01*
X156899284Y-95439226D01*
X156859434Y-95451314D01*
X156811859Y-95456000D01*
X156148141Y-95456000D01*
X156100566Y-95451314D01*
X156060716Y-95439226D01*
X156024001Y-95419601D01*
X155991814Y-95393186D01*
X155965399Y-95360999D01*
X155945774Y-95324284D01*
X155933686Y-95284434D01*
X155929000Y-95236859D01*
X155929000Y-92073141D01*
X155933686Y-92025566D01*
X155945774Y-91985716D01*
X155965399Y-91949001D01*
X155991814Y-91916814D01*
X156024001Y-91890399D01*
X156060716Y-91870774D01*
X156100566Y-91858686D01*
X156148141Y-91854000D01*
X156811859Y-91854000D01*
X156859434Y-91858686D01*
X156859434Y-91858686D01*
G37*
G36*
X161483048Y-86158122D02*
G01*
X161517387Y-86168539D01*
X161549036Y-86185456D01*
X161576778Y-86208222D01*
X161599544Y-86235964D01*
X161616461Y-86267613D01*
X161626878Y-86301952D01*
X161631000Y-86343807D01*
X161631000Y-89466193D01*
X161626878Y-89508048D01*
X161616461Y-89542387D01*
X161599544Y-89574036D01*
X161576778Y-89601778D01*
X161549036Y-89624544D01*
X161517387Y-89641461D01*
X161483048Y-89651878D01*
X161441193Y-89656000D01*
X160218807Y-89656000D01*
X160176952Y-89651878D01*
X160142613Y-89641461D01*
X160110964Y-89624544D01*
X160083222Y-89601778D01*
X160060456Y-89574036D01*
X160043539Y-89542387D01*
X160033122Y-89508048D01*
X160029000Y-89466193D01*
X160029000Y-86343807D01*
X160033122Y-86301952D01*
X160043539Y-86267613D01*
X160060456Y-86235964D01*
X160083222Y-86208222D01*
X160110964Y-86185456D01*
X160142613Y-86168539D01*
X160176952Y-86158122D01*
X160218807Y-86154000D01*
X161441193Y-86154000D01*
X161483048Y-86158122D01*
X161483048Y-86158122D01*
G37*
G36*
X154783048Y-86158122D02*
G01*
X154817387Y-86168539D01*
X154849036Y-86185456D01*
X154876778Y-86208222D01*
X154899544Y-86235964D01*
X154916461Y-86267613D01*
X154926878Y-86301952D01*
X154931000Y-86343807D01*
X154931000Y-89466193D01*
X154926878Y-89508048D01*
X154916461Y-89542387D01*
X154899544Y-89574036D01*
X154876778Y-89601778D01*
X154849036Y-89624544D01*
X154817387Y-89641461D01*
X154783048Y-89651878D01*
X154741193Y-89656000D01*
X153518807Y-89656000D01*
X153476952Y-89651878D01*
X153442613Y-89641461D01*
X153410964Y-89624544D01*
X153383222Y-89601778D01*
X153360456Y-89574036D01*
X153343539Y-89542387D01*
X153333122Y-89508048D01*
X153329000Y-89466193D01*
X153329000Y-86343807D01*
X153333122Y-86301952D01*
X153343539Y-86267613D01*
X153360456Y-86235964D01*
X153383222Y-86208222D01*
X153410964Y-86185456D01*
X153442613Y-86168539D01*
X153476952Y-86158122D01*
X153518807Y-86154000D01*
X154741193Y-86154000D01*
X154783048Y-86158122D01*
X154783048Y-86158122D01*
G37*
M02*
