G04 #@! TF.GenerationSoftware,KiCad,Pcbnew,(5.1.4)-1*
G04 #@! TF.CreationDate,2019-11-18T19:24:08+01:00*
G04 #@! TF.ProjectId,olmBoard-v1,6f6c6d42-6f61-4726-942d-76312e6b6963,0.1*
G04 #@! TF.SameCoordinates,Original*
G04 #@! TF.FileFunction,Paste,Top*
G04 #@! TF.FilePolarity,Positive*
%FSLAX46Y46*%
G04 Gerber Fmt 4.6, Leading zero omitted, Abs format (unit mm)*
G04 Created by KiCad (PCBNEW (5.1.4)-1) date 2019-11-18 19:24:08*
%MOMM*%
%LPD*%
G04 APERTURE LIST*
%ADD10C,0.100000*%
%ADD11C,0.875000*%
%ADD12C,1.000000*%
%ADD13C,1.500000*%
%ADD14C,0.620000*%
%ADD15C,0.250000*%
G04 APERTURE END LIST*
D10*
G36*
X153820691Y-100554053D02*
G01*
X153841926Y-100557203D01*
X153862750Y-100562419D01*
X153882962Y-100569651D01*
X153902368Y-100578830D01*
X153920781Y-100589866D01*
X153938024Y-100602654D01*
X153953930Y-100617070D01*
X153968346Y-100632976D01*
X153981134Y-100650219D01*
X153992170Y-100668632D01*
X154001349Y-100688038D01*
X154008581Y-100708250D01*
X154013797Y-100729074D01*
X154016947Y-100750309D01*
X154018000Y-100771750D01*
X154018000Y-101209250D01*
X154016947Y-101230691D01*
X154013797Y-101251926D01*
X154008581Y-101272750D01*
X154001349Y-101292962D01*
X153992170Y-101312368D01*
X153981134Y-101330781D01*
X153968346Y-101348024D01*
X153953930Y-101363930D01*
X153938024Y-101378346D01*
X153920781Y-101391134D01*
X153902368Y-101402170D01*
X153882962Y-101411349D01*
X153862750Y-101418581D01*
X153841926Y-101423797D01*
X153820691Y-101426947D01*
X153799250Y-101428000D01*
X153286750Y-101428000D01*
X153265309Y-101426947D01*
X153244074Y-101423797D01*
X153223250Y-101418581D01*
X153203038Y-101411349D01*
X153183632Y-101402170D01*
X153165219Y-101391134D01*
X153147976Y-101378346D01*
X153132070Y-101363930D01*
X153117654Y-101348024D01*
X153104866Y-101330781D01*
X153093830Y-101312368D01*
X153084651Y-101292962D01*
X153077419Y-101272750D01*
X153072203Y-101251926D01*
X153069053Y-101230691D01*
X153068000Y-101209250D01*
X153068000Y-100771750D01*
X153069053Y-100750309D01*
X153072203Y-100729074D01*
X153077419Y-100708250D01*
X153084651Y-100688038D01*
X153093830Y-100668632D01*
X153104866Y-100650219D01*
X153117654Y-100632976D01*
X153132070Y-100617070D01*
X153147976Y-100602654D01*
X153165219Y-100589866D01*
X153183632Y-100578830D01*
X153203038Y-100569651D01*
X153223250Y-100562419D01*
X153244074Y-100557203D01*
X153265309Y-100554053D01*
X153286750Y-100553000D01*
X153799250Y-100553000D01*
X153820691Y-100554053D01*
X153820691Y-100554053D01*
G37*
D11*
X153543000Y-100990500D03*
D10*
G36*
X153820691Y-98979053D02*
G01*
X153841926Y-98982203D01*
X153862750Y-98987419D01*
X153882962Y-98994651D01*
X153902368Y-99003830D01*
X153920781Y-99014866D01*
X153938024Y-99027654D01*
X153953930Y-99042070D01*
X153968346Y-99057976D01*
X153981134Y-99075219D01*
X153992170Y-99093632D01*
X154001349Y-99113038D01*
X154008581Y-99133250D01*
X154013797Y-99154074D01*
X154016947Y-99175309D01*
X154018000Y-99196750D01*
X154018000Y-99634250D01*
X154016947Y-99655691D01*
X154013797Y-99676926D01*
X154008581Y-99697750D01*
X154001349Y-99717962D01*
X153992170Y-99737368D01*
X153981134Y-99755781D01*
X153968346Y-99773024D01*
X153953930Y-99788930D01*
X153938024Y-99803346D01*
X153920781Y-99816134D01*
X153902368Y-99827170D01*
X153882962Y-99836349D01*
X153862750Y-99843581D01*
X153841926Y-99848797D01*
X153820691Y-99851947D01*
X153799250Y-99853000D01*
X153286750Y-99853000D01*
X153265309Y-99851947D01*
X153244074Y-99848797D01*
X153223250Y-99843581D01*
X153203038Y-99836349D01*
X153183632Y-99827170D01*
X153165219Y-99816134D01*
X153147976Y-99803346D01*
X153132070Y-99788930D01*
X153117654Y-99773024D01*
X153104866Y-99755781D01*
X153093830Y-99737368D01*
X153084651Y-99717962D01*
X153077419Y-99697750D01*
X153072203Y-99676926D01*
X153069053Y-99655691D01*
X153068000Y-99634250D01*
X153068000Y-99196750D01*
X153069053Y-99175309D01*
X153072203Y-99154074D01*
X153077419Y-99133250D01*
X153084651Y-99113038D01*
X153093830Y-99093632D01*
X153104866Y-99075219D01*
X153117654Y-99057976D01*
X153132070Y-99042070D01*
X153147976Y-99027654D01*
X153165219Y-99014866D01*
X153183632Y-99003830D01*
X153203038Y-98994651D01*
X153223250Y-98987419D01*
X153244074Y-98982203D01*
X153265309Y-98979053D01*
X153286750Y-98978000D01*
X153799250Y-98978000D01*
X153820691Y-98979053D01*
X153820691Y-98979053D01*
G37*
D11*
X153543000Y-99415500D03*
D10*
G36*
X155217691Y-100554053D02*
G01*
X155238926Y-100557203D01*
X155259750Y-100562419D01*
X155279962Y-100569651D01*
X155299368Y-100578830D01*
X155317781Y-100589866D01*
X155335024Y-100602654D01*
X155350930Y-100617070D01*
X155365346Y-100632976D01*
X155378134Y-100650219D01*
X155389170Y-100668632D01*
X155398349Y-100688038D01*
X155405581Y-100708250D01*
X155410797Y-100729074D01*
X155413947Y-100750309D01*
X155415000Y-100771750D01*
X155415000Y-101209250D01*
X155413947Y-101230691D01*
X155410797Y-101251926D01*
X155405581Y-101272750D01*
X155398349Y-101292962D01*
X155389170Y-101312368D01*
X155378134Y-101330781D01*
X155365346Y-101348024D01*
X155350930Y-101363930D01*
X155335024Y-101378346D01*
X155317781Y-101391134D01*
X155299368Y-101402170D01*
X155279962Y-101411349D01*
X155259750Y-101418581D01*
X155238926Y-101423797D01*
X155217691Y-101426947D01*
X155196250Y-101428000D01*
X154683750Y-101428000D01*
X154662309Y-101426947D01*
X154641074Y-101423797D01*
X154620250Y-101418581D01*
X154600038Y-101411349D01*
X154580632Y-101402170D01*
X154562219Y-101391134D01*
X154544976Y-101378346D01*
X154529070Y-101363930D01*
X154514654Y-101348024D01*
X154501866Y-101330781D01*
X154490830Y-101312368D01*
X154481651Y-101292962D01*
X154474419Y-101272750D01*
X154469203Y-101251926D01*
X154466053Y-101230691D01*
X154465000Y-101209250D01*
X154465000Y-100771750D01*
X154466053Y-100750309D01*
X154469203Y-100729074D01*
X154474419Y-100708250D01*
X154481651Y-100688038D01*
X154490830Y-100668632D01*
X154501866Y-100650219D01*
X154514654Y-100632976D01*
X154529070Y-100617070D01*
X154544976Y-100602654D01*
X154562219Y-100589866D01*
X154580632Y-100578830D01*
X154600038Y-100569651D01*
X154620250Y-100562419D01*
X154641074Y-100557203D01*
X154662309Y-100554053D01*
X154683750Y-100553000D01*
X155196250Y-100553000D01*
X155217691Y-100554053D01*
X155217691Y-100554053D01*
G37*
D11*
X154940000Y-100990500D03*
D10*
G36*
X155217691Y-98979053D02*
G01*
X155238926Y-98982203D01*
X155259750Y-98987419D01*
X155279962Y-98994651D01*
X155299368Y-99003830D01*
X155317781Y-99014866D01*
X155335024Y-99027654D01*
X155350930Y-99042070D01*
X155365346Y-99057976D01*
X155378134Y-99075219D01*
X155389170Y-99093632D01*
X155398349Y-99113038D01*
X155405581Y-99133250D01*
X155410797Y-99154074D01*
X155413947Y-99175309D01*
X155415000Y-99196750D01*
X155415000Y-99634250D01*
X155413947Y-99655691D01*
X155410797Y-99676926D01*
X155405581Y-99697750D01*
X155398349Y-99717962D01*
X155389170Y-99737368D01*
X155378134Y-99755781D01*
X155365346Y-99773024D01*
X155350930Y-99788930D01*
X155335024Y-99803346D01*
X155317781Y-99816134D01*
X155299368Y-99827170D01*
X155279962Y-99836349D01*
X155259750Y-99843581D01*
X155238926Y-99848797D01*
X155217691Y-99851947D01*
X155196250Y-99853000D01*
X154683750Y-99853000D01*
X154662309Y-99851947D01*
X154641074Y-99848797D01*
X154620250Y-99843581D01*
X154600038Y-99836349D01*
X154580632Y-99827170D01*
X154562219Y-99816134D01*
X154544976Y-99803346D01*
X154529070Y-99788930D01*
X154514654Y-99773024D01*
X154501866Y-99755781D01*
X154490830Y-99737368D01*
X154481651Y-99717962D01*
X154474419Y-99697750D01*
X154469203Y-99676926D01*
X154466053Y-99655691D01*
X154465000Y-99634250D01*
X154465000Y-99196750D01*
X154466053Y-99175309D01*
X154469203Y-99154074D01*
X154474419Y-99133250D01*
X154481651Y-99113038D01*
X154490830Y-99093632D01*
X154501866Y-99075219D01*
X154514654Y-99057976D01*
X154529070Y-99042070D01*
X154544976Y-99027654D01*
X154562219Y-99014866D01*
X154580632Y-99003830D01*
X154600038Y-98994651D01*
X154620250Y-98987419D01*
X154641074Y-98982203D01*
X154662309Y-98979053D01*
X154683750Y-98978000D01*
X155196250Y-98978000D01*
X155217691Y-98979053D01*
X155217691Y-98979053D01*
G37*
D11*
X154940000Y-99415500D03*
D10*
G36*
X156932691Y-98141553D02*
G01*
X156953926Y-98144703D01*
X156974750Y-98149919D01*
X156994962Y-98157151D01*
X157014368Y-98166330D01*
X157032781Y-98177366D01*
X157050024Y-98190154D01*
X157065930Y-98204570D01*
X157080346Y-98220476D01*
X157093134Y-98237719D01*
X157104170Y-98256132D01*
X157113349Y-98275538D01*
X157120581Y-98295750D01*
X157125797Y-98316574D01*
X157128947Y-98337809D01*
X157130000Y-98359250D01*
X157130000Y-98871750D01*
X157128947Y-98893191D01*
X157125797Y-98914426D01*
X157120581Y-98935250D01*
X157113349Y-98955462D01*
X157104170Y-98974868D01*
X157093134Y-98993281D01*
X157080346Y-99010524D01*
X157065930Y-99026430D01*
X157050024Y-99040846D01*
X157032781Y-99053634D01*
X157014368Y-99064670D01*
X156994962Y-99073849D01*
X156974750Y-99081081D01*
X156953926Y-99086297D01*
X156932691Y-99089447D01*
X156911250Y-99090500D01*
X156473750Y-99090500D01*
X156452309Y-99089447D01*
X156431074Y-99086297D01*
X156410250Y-99081081D01*
X156390038Y-99073849D01*
X156370632Y-99064670D01*
X156352219Y-99053634D01*
X156334976Y-99040846D01*
X156319070Y-99026430D01*
X156304654Y-99010524D01*
X156291866Y-98993281D01*
X156280830Y-98974868D01*
X156271651Y-98955462D01*
X156264419Y-98935250D01*
X156259203Y-98914426D01*
X156256053Y-98893191D01*
X156255000Y-98871750D01*
X156255000Y-98359250D01*
X156256053Y-98337809D01*
X156259203Y-98316574D01*
X156264419Y-98295750D01*
X156271651Y-98275538D01*
X156280830Y-98256132D01*
X156291866Y-98237719D01*
X156304654Y-98220476D01*
X156319070Y-98204570D01*
X156334976Y-98190154D01*
X156352219Y-98177366D01*
X156370632Y-98166330D01*
X156390038Y-98157151D01*
X156410250Y-98149919D01*
X156431074Y-98144703D01*
X156452309Y-98141553D01*
X156473750Y-98140500D01*
X156911250Y-98140500D01*
X156932691Y-98141553D01*
X156932691Y-98141553D01*
G37*
D11*
X156692500Y-98615500D03*
D10*
G36*
X158507691Y-98141553D02*
G01*
X158528926Y-98144703D01*
X158549750Y-98149919D01*
X158569962Y-98157151D01*
X158589368Y-98166330D01*
X158607781Y-98177366D01*
X158625024Y-98190154D01*
X158640930Y-98204570D01*
X158655346Y-98220476D01*
X158668134Y-98237719D01*
X158679170Y-98256132D01*
X158688349Y-98275538D01*
X158695581Y-98295750D01*
X158700797Y-98316574D01*
X158703947Y-98337809D01*
X158705000Y-98359250D01*
X158705000Y-98871750D01*
X158703947Y-98893191D01*
X158700797Y-98914426D01*
X158695581Y-98935250D01*
X158688349Y-98955462D01*
X158679170Y-98974868D01*
X158668134Y-98993281D01*
X158655346Y-99010524D01*
X158640930Y-99026430D01*
X158625024Y-99040846D01*
X158607781Y-99053634D01*
X158589368Y-99064670D01*
X158569962Y-99073849D01*
X158549750Y-99081081D01*
X158528926Y-99086297D01*
X158507691Y-99089447D01*
X158486250Y-99090500D01*
X158048750Y-99090500D01*
X158027309Y-99089447D01*
X158006074Y-99086297D01*
X157985250Y-99081081D01*
X157965038Y-99073849D01*
X157945632Y-99064670D01*
X157927219Y-99053634D01*
X157909976Y-99040846D01*
X157894070Y-99026430D01*
X157879654Y-99010524D01*
X157866866Y-98993281D01*
X157855830Y-98974868D01*
X157846651Y-98955462D01*
X157839419Y-98935250D01*
X157834203Y-98914426D01*
X157831053Y-98893191D01*
X157830000Y-98871750D01*
X157830000Y-98359250D01*
X157831053Y-98337809D01*
X157834203Y-98316574D01*
X157839419Y-98295750D01*
X157846651Y-98275538D01*
X157855830Y-98256132D01*
X157866866Y-98237719D01*
X157879654Y-98220476D01*
X157894070Y-98204570D01*
X157909976Y-98190154D01*
X157927219Y-98177366D01*
X157945632Y-98166330D01*
X157965038Y-98157151D01*
X157985250Y-98149919D01*
X158006074Y-98144703D01*
X158027309Y-98141553D01*
X158048750Y-98140500D01*
X158486250Y-98140500D01*
X158507691Y-98141553D01*
X158507691Y-98141553D01*
G37*
D11*
X158267500Y-98615500D03*
D10*
G36*
X158507691Y-96744553D02*
G01*
X158528926Y-96747703D01*
X158549750Y-96752919D01*
X158569962Y-96760151D01*
X158589368Y-96769330D01*
X158607781Y-96780366D01*
X158625024Y-96793154D01*
X158640930Y-96807570D01*
X158655346Y-96823476D01*
X158668134Y-96840719D01*
X158679170Y-96859132D01*
X158688349Y-96878538D01*
X158695581Y-96898750D01*
X158700797Y-96919574D01*
X158703947Y-96940809D01*
X158705000Y-96962250D01*
X158705000Y-97474750D01*
X158703947Y-97496191D01*
X158700797Y-97517426D01*
X158695581Y-97538250D01*
X158688349Y-97558462D01*
X158679170Y-97577868D01*
X158668134Y-97596281D01*
X158655346Y-97613524D01*
X158640930Y-97629430D01*
X158625024Y-97643846D01*
X158607781Y-97656634D01*
X158589368Y-97667670D01*
X158569962Y-97676849D01*
X158549750Y-97684081D01*
X158528926Y-97689297D01*
X158507691Y-97692447D01*
X158486250Y-97693500D01*
X158048750Y-97693500D01*
X158027309Y-97692447D01*
X158006074Y-97689297D01*
X157985250Y-97684081D01*
X157965038Y-97676849D01*
X157945632Y-97667670D01*
X157927219Y-97656634D01*
X157909976Y-97643846D01*
X157894070Y-97629430D01*
X157879654Y-97613524D01*
X157866866Y-97596281D01*
X157855830Y-97577868D01*
X157846651Y-97558462D01*
X157839419Y-97538250D01*
X157834203Y-97517426D01*
X157831053Y-97496191D01*
X157830000Y-97474750D01*
X157830000Y-96962250D01*
X157831053Y-96940809D01*
X157834203Y-96919574D01*
X157839419Y-96898750D01*
X157846651Y-96878538D01*
X157855830Y-96859132D01*
X157866866Y-96840719D01*
X157879654Y-96823476D01*
X157894070Y-96807570D01*
X157909976Y-96793154D01*
X157927219Y-96780366D01*
X157945632Y-96769330D01*
X157965038Y-96760151D01*
X157985250Y-96752919D01*
X158006074Y-96747703D01*
X158027309Y-96744553D01*
X158048750Y-96743500D01*
X158486250Y-96743500D01*
X158507691Y-96744553D01*
X158507691Y-96744553D01*
G37*
D11*
X158267500Y-97218500D03*
D10*
G36*
X156932691Y-96744553D02*
G01*
X156953926Y-96747703D01*
X156974750Y-96752919D01*
X156994962Y-96760151D01*
X157014368Y-96769330D01*
X157032781Y-96780366D01*
X157050024Y-96793154D01*
X157065930Y-96807570D01*
X157080346Y-96823476D01*
X157093134Y-96840719D01*
X157104170Y-96859132D01*
X157113349Y-96878538D01*
X157120581Y-96898750D01*
X157125797Y-96919574D01*
X157128947Y-96940809D01*
X157130000Y-96962250D01*
X157130000Y-97474750D01*
X157128947Y-97496191D01*
X157125797Y-97517426D01*
X157120581Y-97538250D01*
X157113349Y-97558462D01*
X157104170Y-97577868D01*
X157093134Y-97596281D01*
X157080346Y-97613524D01*
X157065930Y-97629430D01*
X157050024Y-97643846D01*
X157032781Y-97656634D01*
X157014368Y-97667670D01*
X156994962Y-97676849D01*
X156974750Y-97684081D01*
X156953926Y-97689297D01*
X156932691Y-97692447D01*
X156911250Y-97693500D01*
X156473750Y-97693500D01*
X156452309Y-97692447D01*
X156431074Y-97689297D01*
X156410250Y-97684081D01*
X156390038Y-97676849D01*
X156370632Y-97667670D01*
X156352219Y-97656634D01*
X156334976Y-97643846D01*
X156319070Y-97629430D01*
X156304654Y-97613524D01*
X156291866Y-97596281D01*
X156280830Y-97577868D01*
X156271651Y-97558462D01*
X156264419Y-97538250D01*
X156259203Y-97517426D01*
X156256053Y-97496191D01*
X156255000Y-97474750D01*
X156255000Y-96962250D01*
X156256053Y-96940809D01*
X156259203Y-96919574D01*
X156264419Y-96898750D01*
X156271651Y-96878538D01*
X156280830Y-96859132D01*
X156291866Y-96840719D01*
X156304654Y-96823476D01*
X156319070Y-96807570D01*
X156334976Y-96793154D01*
X156352219Y-96780366D01*
X156370632Y-96769330D01*
X156390038Y-96760151D01*
X156410250Y-96752919D01*
X156431074Y-96747703D01*
X156452309Y-96744553D01*
X156473750Y-96743500D01*
X156911250Y-96743500D01*
X156932691Y-96744553D01*
X156932691Y-96744553D01*
G37*
D11*
X156692500Y-97218500D03*
D10*
G36*
X160932691Y-96756553D02*
G01*
X160953926Y-96759703D01*
X160974750Y-96764919D01*
X160994962Y-96772151D01*
X161014368Y-96781330D01*
X161032781Y-96792366D01*
X161050024Y-96805154D01*
X161065930Y-96819570D01*
X161080346Y-96835476D01*
X161093134Y-96852719D01*
X161104170Y-96871132D01*
X161113349Y-96890538D01*
X161120581Y-96910750D01*
X161125797Y-96931574D01*
X161128947Y-96952809D01*
X161130000Y-96974250D01*
X161130000Y-97411750D01*
X161128947Y-97433191D01*
X161125797Y-97454426D01*
X161120581Y-97475250D01*
X161113349Y-97495462D01*
X161104170Y-97514868D01*
X161093134Y-97533281D01*
X161080346Y-97550524D01*
X161065930Y-97566430D01*
X161050024Y-97580846D01*
X161032781Y-97593634D01*
X161014368Y-97604670D01*
X160994962Y-97613849D01*
X160974750Y-97621081D01*
X160953926Y-97626297D01*
X160932691Y-97629447D01*
X160911250Y-97630500D01*
X160398750Y-97630500D01*
X160377309Y-97629447D01*
X160356074Y-97626297D01*
X160335250Y-97621081D01*
X160315038Y-97613849D01*
X160295632Y-97604670D01*
X160277219Y-97593634D01*
X160259976Y-97580846D01*
X160244070Y-97566430D01*
X160229654Y-97550524D01*
X160216866Y-97533281D01*
X160205830Y-97514868D01*
X160196651Y-97495462D01*
X160189419Y-97475250D01*
X160184203Y-97454426D01*
X160181053Y-97433191D01*
X160180000Y-97411750D01*
X160180000Y-96974250D01*
X160181053Y-96952809D01*
X160184203Y-96931574D01*
X160189419Y-96910750D01*
X160196651Y-96890538D01*
X160205830Y-96871132D01*
X160216866Y-96852719D01*
X160229654Y-96835476D01*
X160244070Y-96819570D01*
X160259976Y-96805154D01*
X160277219Y-96792366D01*
X160295632Y-96781330D01*
X160315038Y-96772151D01*
X160335250Y-96764919D01*
X160356074Y-96759703D01*
X160377309Y-96756553D01*
X160398750Y-96755500D01*
X160911250Y-96755500D01*
X160932691Y-96756553D01*
X160932691Y-96756553D01*
G37*
D11*
X160655000Y-97193000D03*
D10*
G36*
X160932691Y-98331553D02*
G01*
X160953926Y-98334703D01*
X160974750Y-98339919D01*
X160994962Y-98347151D01*
X161014368Y-98356330D01*
X161032781Y-98367366D01*
X161050024Y-98380154D01*
X161065930Y-98394570D01*
X161080346Y-98410476D01*
X161093134Y-98427719D01*
X161104170Y-98446132D01*
X161113349Y-98465538D01*
X161120581Y-98485750D01*
X161125797Y-98506574D01*
X161128947Y-98527809D01*
X161130000Y-98549250D01*
X161130000Y-98986750D01*
X161128947Y-99008191D01*
X161125797Y-99029426D01*
X161120581Y-99050250D01*
X161113349Y-99070462D01*
X161104170Y-99089868D01*
X161093134Y-99108281D01*
X161080346Y-99125524D01*
X161065930Y-99141430D01*
X161050024Y-99155846D01*
X161032781Y-99168634D01*
X161014368Y-99179670D01*
X160994962Y-99188849D01*
X160974750Y-99196081D01*
X160953926Y-99201297D01*
X160932691Y-99204447D01*
X160911250Y-99205500D01*
X160398750Y-99205500D01*
X160377309Y-99204447D01*
X160356074Y-99201297D01*
X160335250Y-99196081D01*
X160315038Y-99188849D01*
X160295632Y-99179670D01*
X160277219Y-99168634D01*
X160259976Y-99155846D01*
X160244070Y-99141430D01*
X160229654Y-99125524D01*
X160216866Y-99108281D01*
X160205830Y-99089868D01*
X160196651Y-99070462D01*
X160189419Y-99050250D01*
X160184203Y-99029426D01*
X160181053Y-99008191D01*
X160180000Y-98986750D01*
X160180000Y-98549250D01*
X160181053Y-98527809D01*
X160184203Y-98506574D01*
X160189419Y-98485750D01*
X160196651Y-98465538D01*
X160205830Y-98446132D01*
X160216866Y-98427719D01*
X160229654Y-98410476D01*
X160244070Y-98394570D01*
X160259976Y-98380154D01*
X160277219Y-98367366D01*
X160295632Y-98356330D01*
X160315038Y-98347151D01*
X160335250Y-98339919D01*
X160356074Y-98334703D01*
X160377309Y-98331553D01*
X160398750Y-98330500D01*
X160911250Y-98330500D01*
X160932691Y-98331553D01*
X160932691Y-98331553D01*
G37*
D11*
X160655000Y-98768000D03*
D10*
G36*
X158754504Y-91906204D02*
G01*
X158778773Y-91909804D01*
X158802571Y-91915765D01*
X158825671Y-91924030D01*
X158847849Y-91934520D01*
X158868893Y-91947133D01*
X158888598Y-91961747D01*
X158906777Y-91978223D01*
X158923253Y-91996402D01*
X158937867Y-92016107D01*
X158950480Y-92037151D01*
X158960970Y-92059329D01*
X158969235Y-92082429D01*
X158975196Y-92106227D01*
X158978796Y-92130496D01*
X158980000Y-92155000D01*
X158980000Y-95155000D01*
X158978796Y-95179504D01*
X158975196Y-95203773D01*
X158969235Y-95227571D01*
X158960970Y-95250671D01*
X158950480Y-95272849D01*
X158937867Y-95293893D01*
X158923253Y-95313598D01*
X158906777Y-95331777D01*
X158888598Y-95348253D01*
X158868893Y-95362867D01*
X158847849Y-95375480D01*
X158825671Y-95385970D01*
X158802571Y-95394235D01*
X158778773Y-95400196D01*
X158754504Y-95403796D01*
X158730000Y-95405000D01*
X158230000Y-95405000D01*
X158205496Y-95403796D01*
X158181227Y-95400196D01*
X158157429Y-95394235D01*
X158134329Y-95385970D01*
X158112151Y-95375480D01*
X158091107Y-95362867D01*
X158071402Y-95348253D01*
X158053223Y-95331777D01*
X158036747Y-95313598D01*
X158022133Y-95293893D01*
X158009520Y-95272849D01*
X157999030Y-95250671D01*
X157990765Y-95227571D01*
X157984804Y-95203773D01*
X157981204Y-95179504D01*
X157980000Y-95155000D01*
X157980000Y-92155000D01*
X157981204Y-92130496D01*
X157984804Y-92106227D01*
X157990765Y-92082429D01*
X157999030Y-92059329D01*
X158009520Y-92037151D01*
X158022133Y-92016107D01*
X158036747Y-91996402D01*
X158053223Y-91978223D01*
X158071402Y-91961747D01*
X158091107Y-91947133D01*
X158112151Y-91934520D01*
X158134329Y-91924030D01*
X158157429Y-91915765D01*
X158181227Y-91909804D01*
X158205496Y-91906204D01*
X158230000Y-91905000D01*
X158730000Y-91905000D01*
X158754504Y-91906204D01*
X158754504Y-91906204D01*
G37*
D12*
X158480000Y-93655000D03*
D10*
G36*
X156754504Y-91906204D02*
G01*
X156778773Y-91909804D01*
X156802571Y-91915765D01*
X156825671Y-91924030D01*
X156847849Y-91934520D01*
X156868893Y-91947133D01*
X156888598Y-91961747D01*
X156906777Y-91978223D01*
X156923253Y-91996402D01*
X156937867Y-92016107D01*
X156950480Y-92037151D01*
X156960970Y-92059329D01*
X156969235Y-92082429D01*
X156975196Y-92106227D01*
X156978796Y-92130496D01*
X156980000Y-92155000D01*
X156980000Y-95155000D01*
X156978796Y-95179504D01*
X156975196Y-95203773D01*
X156969235Y-95227571D01*
X156960970Y-95250671D01*
X156950480Y-95272849D01*
X156937867Y-95293893D01*
X156923253Y-95313598D01*
X156906777Y-95331777D01*
X156888598Y-95348253D01*
X156868893Y-95362867D01*
X156847849Y-95375480D01*
X156825671Y-95385970D01*
X156802571Y-95394235D01*
X156778773Y-95400196D01*
X156754504Y-95403796D01*
X156730000Y-95405000D01*
X156230000Y-95405000D01*
X156205496Y-95403796D01*
X156181227Y-95400196D01*
X156157429Y-95394235D01*
X156134329Y-95385970D01*
X156112151Y-95375480D01*
X156091107Y-95362867D01*
X156071402Y-95348253D01*
X156053223Y-95331777D01*
X156036747Y-95313598D01*
X156022133Y-95293893D01*
X156009520Y-95272849D01*
X155999030Y-95250671D01*
X155990765Y-95227571D01*
X155984804Y-95203773D01*
X155981204Y-95179504D01*
X155980000Y-95155000D01*
X155980000Y-92155000D01*
X155981204Y-92130496D01*
X155984804Y-92106227D01*
X155990765Y-92082429D01*
X155999030Y-92059329D01*
X156009520Y-92037151D01*
X156022133Y-92016107D01*
X156036747Y-91996402D01*
X156053223Y-91978223D01*
X156071402Y-91961747D01*
X156091107Y-91947133D01*
X156112151Y-91934520D01*
X156134329Y-91924030D01*
X156157429Y-91915765D01*
X156181227Y-91909804D01*
X156205496Y-91906204D01*
X156230000Y-91905000D01*
X156730000Y-91905000D01*
X156754504Y-91906204D01*
X156754504Y-91906204D01*
G37*
D12*
X156480000Y-93655000D03*
D10*
G36*
X161354504Y-86206204D02*
G01*
X161378773Y-86209804D01*
X161402571Y-86215765D01*
X161425671Y-86224030D01*
X161447849Y-86234520D01*
X161468893Y-86247133D01*
X161488598Y-86261747D01*
X161506777Y-86278223D01*
X161523253Y-86296402D01*
X161537867Y-86316107D01*
X161550480Y-86337151D01*
X161560970Y-86359329D01*
X161569235Y-86382429D01*
X161575196Y-86406227D01*
X161578796Y-86430496D01*
X161580000Y-86455000D01*
X161580000Y-89355000D01*
X161578796Y-89379504D01*
X161575196Y-89403773D01*
X161569235Y-89427571D01*
X161560970Y-89450671D01*
X161550480Y-89472849D01*
X161537867Y-89493893D01*
X161523253Y-89513598D01*
X161506777Y-89531777D01*
X161488598Y-89548253D01*
X161468893Y-89562867D01*
X161447849Y-89575480D01*
X161425671Y-89585970D01*
X161402571Y-89594235D01*
X161378773Y-89600196D01*
X161354504Y-89603796D01*
X161330000Y-89605000D01*
X160330000Y-89605000D01*
X160305496Y-89603796D01*
X160281227Y-89600196D01*
X160257429Y-89594235D01*
X160234329Y-89585970D01*
X160212151Y-89575480D01*
X160191107Y-89562867D01*
X160171402Y-89548253D01*
X160153223Y-89531777D01*
X160136747Y-89513598D01*
X160122133Y-89493893D01*
X160109520Y-89472849D01*
X160099030Y-89450671D01*
X160090765Y-89427571D01*
X160084804Y-89403773D01*
X160081204Y-89379504D01*
X160080000Y-89355000D01*
X160080000Y-86455000D01*
X160081204Y-86430496D01*
X160084804Y-86406227D01*
X160090765Y-86382429D01*
X160099030Y-86359329D01*
X160109520Y-86337151D01*
X160122133Y-86316107D01*
X160136747Y-86296402D01*
X160153223Y-86278223D01*
X160171402Y-86261747D01*
X160191107Y-86247133D01*
X160212151Y-86234520D01*
X160234329Y-86224030D01*
X160257429Y-86215765D01*
X160281227Y-86209804D01*
X160305496Y-86206204D01*
X160330000Y-86205000D01*
X161330000Y-86205000D01*
X161354504Y-86206204D01*
X161354504Y-86206204D01*
G37*
D13*
X160830000Y-87905000D03*
D10*
G36*
X154654504Y-86206204D02*
G01*
X154678773Y-86209804D01*
X154702571Y-86215765D01*
X154725671Y-86224030D01*
X154747849Y-86234520D01*
X154768893Y-86247133D01*
X154788598Y-86261747D01*
X154806777Y-86278223D01*
X154823253Y-86296402D01*
X154837867Y-86316107D01*
X154850480Y-86337151D01*
X154860970Y-86359329D01*
X154869235Y-86382429D01*
X154875196Y-86406227D01*
X154878796Y-86430496D01*
X154880000Y-86455000D01*
X154880000Y-89355000D01*
X154878796Y-89379504D01*
X154875196Y-89403773D01*
X154869235Y-89427571D01*
X154860970Y-89450671D01*
X154850480Y-89472849D01*
X154837867Y-89493893D01*
X154823253Y-89513598D01*
X154806777Y-89531777D01*
X154788598Y-89548253D01*
X154768893Y-89562867D01*
X154747849Y-89575480D01*
X154725671Y-89585970D01*
X154702571Y-89594235D01*
X154678773Y-89600196D01*
X154654504Y-89603796D01*
X154630000Y-89605000D01*
X153630000Y-89605000D01*
X153605496Y-89603796D01*
X153581227Y-89600196D01*
X153557429Y-89594235D01*
X153534329Y-89585970D01*
X153512151Y-89575480D01*
X153491107Y-89562867D01*
X153471402Y-89548253D01*
X153453223Y-89531777D01*
X153436747Y-89513598D01*
X153422133Y-89493893D01*
X153409520Y-89472849D01*
X153399030Y-89450671D01*
X153390765Y-89427571D01*
X153384804Y-89403773D01*
X153381204Y-89379504D01*
X153380000Y-89355000D01*
X153380000Y-86455000D01*
X153381204Y-86430496D01*
X153384804Y-86406227D01*
X153390765Y-86382429D01*
X153399030Y-86359329D01*
X153409520Y-86337151D01*
X153422133Y-86316107D01*
X153436747Y-86296402D01*
X153453223Y-86278223D01*
X153471402Y-86261747D01*
X153491107Y-86247133D01*
X153512151Y-86234520D01*
X153534329Y-86224030D01*
X153557429Y-86215765D01*
X153581227Y-86209804D01*
X153605496Y-86206204D01*
X153630000Y-86205000D01*
X154630000Y-86205000D01*
X154654504Y-86206204D01*
X154654504Y-86206204D01*
G37*
D13*
X154130000Y-87905000D03*
D10*
G36*
X161325193Y-101720246D02*
G01*
X161340239Y-101722478D01*
X161354994Y-101726174D01*
X161369316Y-101731299D01*
X161383066Y-101737802D01*
X161396113Y-101745622D01*
X161408331Y-101754683D01*
X161419602Y-101764898D01*
X161429817Y-101776169D01*
X161438878Y-101788387D01*
X161446698Y-101801434D01*
X161453201Y-101815184D01*
X161458326Y-101829506D01*
X161462022Y-101844261D01*
X161464254Y-101859307D01*
X161465000Y-101874500D01*
X161465000Y-102184500D01*
X161464254Y-102199693D01*
X161462022Y-102214739D01*
X161458326Y-102229494D01*
X161453201Y-102243816D01*
X161446698Y-102257566D01*
X161438878Y-102270613D01*
X161429817Y-102282831D01*
X161419602Y-102294102D01*
X161408331Y-102304317D01*
X161396113Y-102313378D01*
X161383066Y-102321198D01*
X161369316Y-102327701D01*
X161354994Y-102332826D01*
X161340239Y-102336522D01*
X161325193Y-102338754D01*
X161310000Y-102339500D01*
X160000000Y-102339500D01*
X159984807Y-102338754D01*
X159969761Y-102336522D01*
X159955006Y-102332826D01*
X159940684Y-102327701D01*
X159926934Y-102321198D01*
X159913887Y-102313378D01*
X159901669Y-102304317D01*
X159890398Y-102294102D01*
X159880183Y-102282831D01*
X159871122Y-102270613D01*
X159863302Y-102257566D01*
X159856799Y-102243816D01*
X159851674Y-102229494D01*
X159847978Y-102214739D01*
X159845746Y-102199693D01*
X159845000Y-102184500D01*
X159845000Y-101874500D01*
X159845746Y-101859307D01*
X159847978Y-101844261D01*
X159851674Y-101829506D01*
X159856799Y-101815184D01*
X159863302Y-101801434D01*
X159871122Y-101788387D01*
X159880183Y-101776169D01*
X159890398Y-101764898D01*
X159901669Y-101754683D01*
X159913887Y-101745622D01*
X159926934Y-101737802D01*
X159940684Y-101731299D01*
X159955006Y-101726174D01*
X159969761Y-101722478D01*
X159984807Y-101720246D01*
X160000000Y-101719500D01*
X161310000Y-101719500D01*
X161325193Y-101720246D01*
X161325193Y-101720246D01*
G37*
D14*
X160655000Y-102029500D03*
D10*
G36*
X161325193Y-99845246D02*
G01*
X161340239Y-99847478D01*
X161354994Y-99851174D01*
X161369316Y-99856299D01*
X161383066Y-99862802D01*
X161396113Y-99870622D01*
X161408331Y-99879683D01*
X161419602Y-99889898D01*
X161429817Y-99901169D01*
X161438878Y-99913387D01*
X161446698Y-99926434D01*
X161453201Y-99940184D01*
X161458326Y-99954506D01*
X161462022Y-99969261D01*
X161464254Y-99984307D01*
X161465000Y-99999500D01*
X161465000Y-100309500D01*
X161464254Y-100324693D01*
X161462022Y-100339739D01*
X161458326Y-100354494D01*
X161453201Y-100368816D01*
X161446698Y-100382566D01*
X161438878Y-100395613D01*
X161429817Y-100407831D01*
X161419602Y-100419102D01*
X161408331Y-100429317D01*
X161396113Y-100438378D01*
X161383066Y-100446198D01*
X161369316Y-100452701D01*
X161354994Y-100457826D01*
X161340239Y-100461522D01*
X161325193Y-100463754D01*
X161310000Y-100464500D01*
X160000000Y-100464500D01*
X159984807Y-100463754D01*
X159969761Y-100461522D01*
X159955006Y-100457826D01*
X159940684Y-100452701D01*
X159926934Y-100446198D01*
X159913887Y-100438378D01*
X159901669Y-100429317D01*
X159890398Y-100419102D01*
X159880183Y-100407831D01*
X159871122Y-100395613D01*
X159863302Y-100382566D01*
X159856799Y-100368816D01*
X159851674Y-100354494D01*
X159847978Y-100339739D01*
X159845746Y-100324693D01*
X159845000Y-100309500D01*
X159845000Y-99999500D01*
X159845746Y-99984307D01*
X159847978Y-99969261D01*
X159851674Y-99954506D01*
X159856799Y-99940184D01*
X159863302Y-99926434D01*
X159871122Y-99913387D01*
X159880183Y-99901169D01*
X159890398Y-99889898D01*
X159901669Y-99879683D01*
X159913887Y-99870622D01*
X159926934Y-99862802D01*
X159940684Y-99856299D01*
X159955006Y-99851174D01*
X159969761Y-99847478D01*
X159984807Y-99845246D01*
X160000000Y-99844500D01*
X161310000Y-99844500D01*
X161325193Y-99845246D01*
X161325193Y-99845246D01*
G37*
D14*
X160655000Y-100154500D03*
D10*
G36*
X151344191Y-114143053D02*
G01*
X151365426Y-114146203D01*
X151386250Y-114151419D01*
X151406462Y-114158651D01*
X151425868Y-114167830D01*
X151444281Y-114178866D01*
X151461524Y-114191654D01*
X151477430Y-114206070D01*
X151491846Y-114221976D01*
X151504634Y-114239219D01*
X151515670Y-114257632D01*
X151524849Y-114277038D01*
X151532081Y-114297250D01*
X151537297Y-114318074D01*
X151540447Y-114339309D01*
X151541500Y-114360750D01*
X151541500Y-114798250D01*
X151540447Y-114819691D01*
X151537297Y-114840926D01*
X151532081Y-114861750D01*
X151524849Y-114881962D01*
X151515670Y-114901368D01*
X151504634Y-114919781D01*
X151491846Y-114937024D01*
X151477430Y-114952930D01*
X151461524Y-114967346D01*
X151444281Y-114980134D01*
X151425868Y-114991170D01*
X151406462Y-115000349D01*
X151386250Y-115007581D01*
X151365426Y-115012797D01*
X151344191Y-115015947D01*
X151322750Y-115017000D01*
X150810250Y-115017000D01*
X150788809Y-115015947D01*
X150767574Y-115012797D01*
X150746750Y-115007581D01*
X150726538Y-115000349D01*
X150707132Y-114991170D01*
X150688719Y-114980134D01*
X150671476Y-114967346D01*
X150655570Y-114952930D01*
X150641154Y-114937024D01*
X150628366Y-114919781D01*
X150617330Y-114901368D01*
X150608151Y-114881962D01*
X150600919Y-114861750D01*
X150595703Y-114840926D01*
X150592553Y-114819691D01*
X150591500Y-114798250D01*
X150591500Y-114360750D01*
X150592553Y-114339309D01*
X150595703Y-114318074D01*
X150600919Y-114297250D01*
X150608151Y-114277038D01*
X150617330Y-114257632D01*
X150628366Y-114239219D01*
X150641154Y-114221976D01*
X150655570Y-114206070D01*
X150671476Y-114191654D01*
X150688719Y-114178866D01*
X150707132Y-114167830D01*
X150726538Y-114158651D01*
X150746750Y-114151419D01*
X150767574Y-114146203D01*
X150788809Y-114143053D01*
X150810250Y-114142000D01*
X151322750Y-114142000D01*
X151344191Y-114143053D01*
X151344191Y-114143053D01*
G37*
D11*
X151066500Y-114579500D03*
D10*
G36*
X151344191Y-112568053D02*
G01*
X151365426Y-112571203D01*
X151386250Y-112576419D01*
X151406462Y-112583651D01*
X151425868Y-112592830D01*
X151444281Y-112603866D01*
X151461524Y-112616654D01*
X151477430Y-112631070D01*
X151491846Y-112646976D01*
X151504634Y-112664219D01*
X151515670Y-112682632D01*
X151524849Y-112702038D01*
X151532081Y-112722250D01*
X151537297Y-112743074D01*
X151540447Y-112764309D01*
X151541500Y-112785750D01*
X151541500Y-113223250D01*
X151540447Y-113244691D01*
X151537297Y-113265926D01*
X151532081Y-113286750D01*
X151524849Y-113306962D01*
X151515670Y-113326368D01*
X151504634Y-113344781D01*
X151491846Y-113362024D01*
X151477430Y-113377930D01*
X151461524Y-113392346D01*
X151444281Y-113405134D01*
X151425868Y-113416170D01*
X151406462Y-113425349D01*
X151386250Y-113432581D01*
X151365426Y-113437797D01*
X151344191Y-113440947D01*
X151322750Y-113442000D01*
X150810250Y-113442000D01*
X150788809Y-113440947D01*
X150767574Y-113437797D01*
X150746750Y-113432581D01*
X150726538Y-113425349D01*
X150707132Y-113416170D01*
X150688719Y-113405134D01*
X150671476Y-113392346D01*
X150655570Y-113377930D01*
X150641154Y-113362024D01*
X150628366Y-113344781D01*
X150617330Y-113326368D01*
X150608151Y-113306962D01*
X150600919Y-113286750D01*
X150595703Y-113265926D01*
X150592553Y-113244691D01*
X150591500Y-113223250D01*
X150591500Y-112785750D01*
X150592553Y-112764309D01*
X150595703Y-112743074D01*
X150600919Y-112722250D01*
X150608151Y-112702038D01*
X150617330Y-112682632D01*
X150628366Y-112664219D01*
X150641154Y-112646976D01*
X150655570Y-112631070D01*
X150671476Y-112616654D01*
X150688719Y-112603866D01*
X150707132Y-112592830D01*
X150726538Y-112583651D01*
X150746750Y-112576419D01*
X150767574Y-112571203D01*
X150788809Y-112568053D01*
X150810250Y-112567000D01*
X151322750Y-112567000D01*
X151344191Y-112568053D01*
X151344191Y-112568053D01*
G37*
D11*
X151066500Y-113004500D03*
D10*
G36*
X152804691Y-112568053D02*
G01*
X152825926Y-112571203D01*
X152846750Y-112576419D01*
X152866962Y-112583651D01*
X152886368Y-112592830D01*
X152904781Y-112603866D01*
X152922024Y-112616654D01*
X152937930Y-112631070D01*
X152952346Y-112646976D01*
X152965134Y-112664219D01*
X152976170Y-112682632D01*
X152985349Y-112702038D01*
X152992581Y-112722250D01*
X152997797Y-112743074D01*
X153000947Y-112764309D01*
X153002000Y-112785750D01*
X153002000Y-113223250D01*
X153000947Y-113244691D01*
X152997797Y-113265926D01*
X152992581Y-113286750D01*
X152985349Y-113306962D01*
X152976170Y-113326368D01*
X152965134Y-113344781D01*
X152952346Y-113362024D01*
X152937930Y-113377930D01*
X152922024Y-113392346D01*
X152904781Y-113405134D01*
X152886368Y-113416170D01*
X152866962Y-113425349D01*
X152846750Y-113432581D01*
X152825926Y-113437797D01*
X152804691Y-113440947D01*
X152783250Y-113442000D01*
X152270750Y-113442000D01*
X152249309Y-113440947D01*
X152228074Y-113437797D01*
X152207250Y-113432581D01*
X152187038Y-113425349D01*
X152167632Y-113416170D01*
X152149219Y-113405134D01*
X152131976Y-113392346D01*
X152116070Y-113377930D01*
X152101654Y-113362024D01*
X152088866Y-113344781D01*
X152077830Y-113326368D01*
X152068651Y-113306962D01*
X152061419Y-113286750D01*
X152056203Y-113265926D01*
X152053053Y-113244691D01*
X152052000Y-113223250D01*
X152052000Y-112785750D01*
X152053053Y-112764309D01*
X152056203Y-112743074D01*
X152061419Y-112722250D01*
X152068651Y-112702038D01*
X152077830Y-112682632D01*
X152088866Y-112664219D01*
X152101654Y-112646976D01*
X152116070Y-112631070D01*
X152131976Y-112616654D01*
X152149219Y-112603866D01*
X152167632Y-112592830D01*
X152187038Y-112583651D01*
X152207250Y-112576419D01*
X152228074Y-112571203D01*
X152249309Y-112568053D01*
X152270750Y-112567000D01*
X152783250Y-112567000D01*
X152804691Y-112568053D01*
X152804691Y-112568053D01*
G37*
D11*
X152527000Y-113004500D03*
D10*
G36*
X152804691Y-114143053D02*
G01*
X152825926Y-114146203D01*
X152846750Y-114151419D01*
X152866962Y-114158651D01*
X152886368Y-114167830D01*
X152904781Y-114178866D01*
X152922024Y-114191654D01*
X152937930Y-114206070D01*
X152952346Y-114221976D01*
X152965134Y-114239219D01*
X152976170Y-114257632D01*
X152985349Y-114277038D01*
X152992581Y-114297250D01*
X152997797Y-114318074D01*
X153000947Y-114339309D01*
X153002000Y-114360750D01*
X153002000Y-114798250D01*
X153000947Y-114819691D01*
X152997797Y-114840926D01*
X152992581Y-114861750D01*
X152985349Y-114881962D01*
X152976170Y-114901368D01*
X152965134Y-114919781D01*
X152952346Y-114937024D01*
X152937930Y-114952930D01*
X152922024Y-114967346D01*
X152904781Y-114980134D01*
X152886368Y-114991170D01*
X152866962Y-115000349D01*
X152846750Y-115007581D01*
X152825926Y-115012797D01*
X152804691Y-115015947D01*
X152783250Y-115017000D01*
X152270750Y-115017000D01*
X152249309Y-115015947D01*
X152228074Y-115012797D01*
X152207250Y-115007581D01*
X152187038Y-115000349D01*
X152167632Y-114991170D01*
X152149219Y-114980134D01*
X152131976Y-114967346D01*
X152116070Y-114952930D01*
X152101654Y-114937024D01*
X152088866Y-114919781D01*
X152077830Y-114901368D01*
X152068651Y-114881962D01*
X152061419Y-114861750D01*
X152056203Y-114840926D01*
X152053053Y-114819691D01*
X152052000Y-114798250D01*
X152052000Y-114360750D01*
X152053053Y-114339309D01*
X152056203Y-114318074D01*
X152061419Y-114297250D01*
X152068651Y-114277038D01*
X152077830Y-114257632D01*
X152088866Y-114239219D01*
X152101654Y-114221976D01*
X152116070Y-114206070D01*
X152131976Y-114191654D01*
X152149219Y-114178866D01*
X152167632Y-114167830D01*
X152187038Y-114158651D01*
X152207250Y-114151419D01*
X152228074Y-114146203D01*
X152249309Y-114143053D01*
X152270750Y-114142000D01*
X152783250Y-114142000D01*
X152804691Y-114143053D01*
X152804691Y-114143053D01*
G37*
D11*
X152527000Y-114579500D03*
D10*
G36*
X154265191Y-114143053D02*
G01*
X154286426Y-114146203D01*
X154307250Y-114151419D01*
X154327462Y-114158651D01*
X154346868Y-114167830D01*
X154365281Y-114178866D01*
X154382524Y-114191654D01*
X154398430Y-114206070D01*
X154412846Y-114221976D01*
X154425634Y-114239219D01*
X154436670Y-114257632D01*
X154445849Y-114277038D01*
X154453081Y-114297250D01*
X154458297Y-114318074D01*
X154461447Y-114339309D01*
X154462500Y-114360750D01*
X154462500Y-114798250D01*
X154461447Y-114819691D01*
X154458297Y-114840926D01*
X154453081Y-114861750D01*
X154445849Y-114881962D01*
X154436670Y-114901368D01*
X154425634Y-114919781D01*
X154412846Y-114937024D01*
X154398430Y-114952930D01*
X154382524Y-114967346D01*
X154365281Y-114980134D01*
X154346868Y-114991170D01*
X154327462Y-115000349D01*
X154307250Y-115007581D01*
X154286426Y-115012797D01*
X154265191Y-115015947D01*
X154243750Y-115017000D01*
X153731250Y-115017000D01*
X153709809Y-115015947D01*
X153688574Y-115012797D01*
X153667750Y-115007581D01*
X153647538Y-115000349D01*
X153628132Y-114991170D01*
X153609719Y-114980134D01*
X153592476Y-114967346D01*
X153576570Y-114952930D01*
X153562154Y-114937024D01*
X153549366Y-114919781D01*
X153538330Y-114901368D01*
X153529151Y-114881962D01*
X153521919Y-114861750D01*
X153516703Y-114840926D01*
X153513553Y-114819691D01*
X153512500Y-114798250D01*
X153512500Y-114360750D01*
X153513553Y-114339309D01*
X153516703Y-114318074D01*
X153521919Y-114297250D01*
X153529151Y-114277038D01*
X153538330Y-114257632D01*
X153549366Y-114239219D01*
X153562154Y-114221976D01*
X153576570Y-114206070D01*
X153592476Y-114191654D01*
X153609719Y-114178866D01*
X153628132Y-114167830D01*
X153647538Y-114158651D01*
X153667750Y-114151419D01*
X153688574Y-114146203D01*
X153709809Y-114143053D01*
X153731250Y-114142000D01*
X154243750Y-114142000D01*
X154265191Y-114143053D01*
X154265191Y-114143053D01*
G37*
D11*
X153987500Y-114579500D03*
D10*
G36*
X154265191Y-112568053D02*
G01*
X154286426Y-112571203D01*
X154307250Y-112576419D01*
X154327462Y-112583651D01*
X154346868Y-112592830D01*
X154365281Y-112603866D01*
X154382524Y-112616654D01*
X154398430Y-112631070D01*
X154412846Y-112646976D01*
X154425634Y-112664219D01*
X154436670Y-112682632D01*
X154445849Y-112702038D01*
X154453081Y-112722250D01*
X154458297Y-112743074D01*
X154461447Y-112764309D01*
X154462500Y-112785750D01*
X154462500Y-113223250D01*
X154461447Y-113244691D01*
X154458297Y-113265926D01*
X154453081Y-113286750D01*
X154445849Y-113306962D01*
X154436670Y-113326368D01*
X154425634Y-113344781D01*
X154412846Y-113362024D01*
X154398430Y-113377930D01*
X154382524Y-113392346D01*
X154365281Y-113405134D01*
X154346868Y-113416170D01*
X154327462Y-113425349D01*
X154307250Y-113432581D01*
X154286426Y-113437797D01*
X154265191Y-113440947D01*
X154243750Y-113442000D01*
X153731250Y-113442000D01*
X153709809Y-113440947D01*
X153688574Y-113437797D01*
X153667750Y-113432581D01*
X153647538Y-113425349D01*
X153628132Y-113416170D01*
X153609719Y-113405134D01*
X153592476Y-113392346D01*
X153576570Y-113377930D01*
X153562154Y-113362024D01*
X153549366Y-113344781D01*
X153538330Y-113326368D01*
X153529151Y-113306962D01*
X153521919Y-113286750D01*
X153516703Y-113265926D01*
X153513553Y-113244691D01*
X153512500Y-113223250D01*
X153512500Y-112785750D01*
X153513553Y-112764309D01*
X153516703Y-112743074D01*
X153521919Y-112722250D01*
X153529151Y-112702038D01*
X153538330Y-112682632D01*
X153549366Y-112664219D01*
X153562154Y-112646976D01*
X153576570Y-112631070D01*
X153592476Y-112616654D01*
X153609719Y-112603866D01*
X153628132Y-112592830D01*
X153647538Y-112583651D01*
X153667750Y-112576419D01*
X153688574Y-112571203D01*
X153709809Y-112568053D01*
X153731250Y-112567000D01*
X154243750Y-112567000D01*
X154265191Y-112568053D01*
X154265191Y-112568053D01*
G37*
D11*
X153987500Y-113004500D03*
D10*
G36*
X160996191Y-112568053D02*
G01*
X161017426Y-112571203D01*
X161038250Y-112576419D01*
X161058462Y-112583651D01*
X161077868Y-112592830D01*
X161096281Y-112603866D01*
X161113524Y-112616654D01*
X161129430Y-112631070D01*
X161143846Y-112646976D01*
X161156634Y-112664219D01*
X161167670Y-112682632D01*
X161176849Y-112702038D01*
X161184081Y-112722250D01*
X161189297Y-112743074D01*
X161192447Y-112764309D01*
X161193500Y-112785750D01*
X161193500Y-113223250D01*
X161192447Y-113244691D01*
X161189297Y-113265926D01*
X161184081Y-113286750D01*
X161176849Y-113306962D01*
X161167670Y-113326368D01*
X161156634Y-113344781D01*
X161143846Y-113362024D01*
X161129430Y-113377930D01*
X161113524Y-113392346D01*
X161096281Y-113405134D01*
X161077868Y-113416170D01*
X161058462Y-113425349D01*
X161038250Y-113432581D01*
X161017426Y-113437797D01*
X160996191Y-113440947D01*
X160974750Y-113442000D01*
X160462250Y-113442000D01*
X160440809Y-113440947D01*
X160419574Y-113437797D01*
X160398750Y-113432581D01*
X160378538Y-113425349D01*
X160359132Y-113416170D01*
X160340719Y-113405134D01*
X160323476Y-113392346D01*
X160307570Y-113377930D01*
X160293154Y-113362024D01*
X160280366Y-113344781D01*
X160269330Y-113326368D01*
X160260151Y-113306962D01*
X160252919Y-113286750D01*
X160247703Y-113265926D01*
X160244553Y-113244691D01*
X160243500Y-113223250D01*
X160243500Y-112785750D01*
X160244553Y-112764309D01*
X160247703Y-112743074D01*
X160252919Y-112722250D01*
X160260151Y-112702038D01*
X160269330Y-112682632D01*
X160280366Y-112664219D01*
X160293154Y-112646976D01*
X160307570Y-112631070D01*
X160323476Y-112616654D01*
X160340719Y-112603866D01*
X160359132Y-112592830D01*
X160378538Y-112583651D01*
X160398750Y-112576419D01*
X160419574Y-112571203D01*
X160440809Y-112568053D01*
X160462250Y-112567000D01*
X160974750Y-112567000D01*
X160996191Y-112568053D01*
X160996191Y-112568053D01*
G37*
D11*
X160718500Y-113004500D03*
D10*
G36*
X160996191Y-114143053D02*
G01*
X161017426Y-114146203D01*
X161038250Y-114151419D01*
X161058462Y-114158651D01*
X161077868Y-114167830D01*
X161096281Y-114178866D01*
X161113524Y-114191654D01*
X161129430Y-114206070D01*
X161143846Y-114221976D01*
X161156634Y-114239219D01*
X161167670Y-114257632D01*
X161176849Y-114277038D01*
X161184081Y-114297250D01*
X161189297Y-114318074D01*
X161192447Y-114339309D01*
X161193500Y-114360750D01*
X161193500Y-114798250D01*
X161192447Y-114819691D01*
X161189297Y-114840926D01*
X161184081Y-114861750D01*
X161176849Y-114881962D01*
X161167670Y-114901368D01*
X161156634Y-114919781D01*
X161143846Y-114937024D01*
X161129430Y-114952930D01*
X161113524Y-114967346D01*
X161096281Y-114980134D01*
X161077868Y-114991170D01*
X161058462Y-115000349D01*
X161038250Y-115007581D01*
X161017426Y-115012797D01*
X160996191Y-115015947D01*
X160974750Y-115017000D01*
X160462250Y-115017000D01*
X160440809Y-115015947D01*
X160419574Y-115012797D01*
X160398750Y-115007581D01*
X160378538Y-115000349D01*
X160359132Y-114991170D01*
X160340719Y-114980134D01*
X160323476Y-114967346D01*
X160307570Y-114952930D01*
X160293154Y-114937024D01*
X160280366Y-114919781D01*
X160269330Y-114901368D01*
X160260151Y-114881962D01*
X160252919Y-114861750D01*
X160247703Y-114840926D01*
X160244553Y-114819691D01*
X160243500Y-114798250D01*
X160243500Y-114360750D01*
X160244553Y-114339309D01*
X160247703Y-114318074D01*
X160252919Y-114297250D01*
X160260151Y-114277038D01*
X160269330Y-114257632D01*
X160280366Y-114239219D01*
X160293154Y-114221976D01*
X160307570Y-114206070D01*
X160323476Y-114191654D01*
X160340719Y-114178866D01*
X160359132Y-114167830D01*
X160378538Y-114158651D01*
X160398750Y-114151419D01*
X160419574Y-114146203D01*
X160440809Y-114143053D01*
X160462250Y-114142000D01*
X160974750Y-114142000D01*
X160996191Y-114143053D01*
X160996191Y-114143053D01*
G37*
D11*
X160718500Y-114579500D03*
D10*
G36*
X162393191Y-114143053D02*
G01*
X162414426Y-114146203D01*
X162435250Y-114151419D01*
X162455462Y-114158651D01*
X162474868Y-114167830D01*
X162493281Y-114178866D01*
X162510524Y-114191654D01*
X162526430Y-114206070D01*
X162540846Y-114221976D01*
X162553634Y-114239219D01*
X162564670Y-114257632D01*
X162573849Y-114277038D01*
X162581081Y-114297250D01*
X162586297Y-114318074D01*
X162589447Y-114339309D01*
X162590500Y-114360750D01*
X162590500Y-114798250D01*
X162589447Y-114819691D01*
X162586297Y-114840926D01*
X162581081Y-114861750D01*
X162573849Y-114881962D01*
X162564670Y-114901368D01*
X162553634Y-114919781D01*
X162540846Y-114937024D01*
X162526430Y-114952930D01*
X162510524Y-114967346D01*
X162493281Y-114980134D01*
X162474868Y-114991170D01*
X162455462Y-115000349D01*
X162435250Y-115007581D01*
X162414426Y-115012797D01*
X162393191Y-115015947D01*
X162371750Y-115017000D01*
X161859250Y-115017000D01*
X161837809Y-115015947D01*
X161816574Y-115012797D01*
X161795750Y-115007581D01*
X161775538Y-115000349D01*
X161756132Y-114991170D01*
X161737719Y-114980134D01*
X161720476Y-114967346D01*
X161704570Y-114952930D01*
X161690154Y-114937024D01*
X161677366Y-114919781D01*
X161666330Y-114901368D01*
X161657151Y-114881962D01*
X161649919Y-114861750D01*
X161644703Y-114840926D01*
X161641553Y-114819691D01*
X161640500Y-114798250D01*
X161640500Y-114360750D01*
X161641553Y-114339309D01*
X161644703Y-114318074D01*
X161649919Y-114297250D01*
X161657151Y-114277038D01*
X161666330Y-114257632D01*
X161677366Y-114239219D01*
X161690154Y-114221976D01*
X161704570Y-114206070D01*
X161720476Y-114191654D01*
X161737719Y-114178866D01*
X161756132Y-114167830D01*
X161775538Y-114158651D01*
X161795750Y-114151419D01*
X161816574Y-114146203D01*
X161837809Y-114143053D01*
X161859250Y-114142000D01*
X162371750Y-114142000D01*
X162393191Y-114143053D01*
X162393191Y-114143053D01*
G37*
D11*
X162115500Y-114579500D03*
D10*
G36*
X162393191Y-112568053D02*
G01*
X162414426Y-112571203D01*
X162435250Y-112576419D01*
X162455462Y-112583651D01*
X162474868Y-112592830D01*
X162493281Y-112603866D01*
X162510524Y-112616654D01*
X162526430Y-112631070D01*
X162540846Y-112646976D01*
X162553634Y-112664219D01*
X162564670Y-112682632D01*
X162573849Y-112702038D01*
X162581081Y-112722250D01*
X162586297Y-112743074D01*
X162589447Y-112764309D01*
X162590500Y-112785750D01*
X162590500Y-113223250D01*
X162589447Y-113244691D01*
X162586297Y-113265926D01*
X162581081Y-113286750D01*
X162573849Y-113306962D01*
X162564670Y-113326368D01*
X162553634Y-113344781D01*
X162540846Y-113362024D01*
X162526430Y-113377930D01*
X162510524Y-113392346D01*
X162493281Y-113405134D01*
X162474868Y-113416170D01*
X162455462Y-113425349D01*
X162435250Y-113432581D01*
X162414426Y-113437797D01*
X162393191Y-113440947D01*
X162371750Y-113442000D01*
X161859250Y-113442000D01*
X161837809Y-113440947D01*
X161816574Y-113437797D01*
X161795750Y-113432581D01*
X161775538Y-113425349D01*
X161756132Y-113416170D01*
X161737719Y-113405134D01*
X161720476Y-113392346D01*
X161704570Y-113377930D01*
X161690154Y-113362024D01*
X161677366Y-113344781D01*
X161666330Y-113326368D01*
X161657151Y-113306962D01*
X161649919Y-113286750D01*
X161644703Y-113265926D01*
X161641553Y-113244691D01*
X161640500Y-113223250D01*
X161640500Y-112785750D01*
X161641553Y-112764309D01*
X161644703Y-112743074D01*
X161649919Y-112722250D01*
X161657151Y-112702038D01*
X161666330Y-112682632D01*
X161677366Y-112664219D01*
X161690154Y-112646976D01*
X161704570Y-112631070D01*
X161720476Y-112616654D01*
X161737719Y-112603866D01*
X161756132Y-112592830D01*
X161775538Y-112583651D01*
X161795750Y-112576419D01*
X161816574Y-112571203D01*
X161837809Y-112568053D01*
X161859250Y-112567000D01*
X162371750Y-112567000D01*
X162393191Y-112568053D01*
X162393191Y-112568053D01*
G37*
D11*
X162115500Y-113004500D03*
D10*
G36*
X157058626Y-101721301D02*
G01*
X157064693Y-101722201D01*
X157070643Y-101723691D01*
X157076418Y-101725758D01*
X157081962Y-101728380D01*
X157087223Y-101731533D01*
X157092150Y-101735187D01*
X157096694Y-101739306D01*
X157100813Y-101743850D01*
X157104467Y-101748777D01*
X157107620Y-101754038D01*
X157110242Y-101759582D01*
X157112309Y-101765357D01*
X157113799Y-101771307D01*
X157114699Y-101777374D01*
X157115000Y-101783500D01*
X157115000Y-101908500D01*
X157114699Y-101914626D01*
X157113799Y-101920693D01*
X157112309Y-101926643D01*
X157110242Y-101932418D01*
X157107620Y-101937962D01*
X157104467Y-101943223D01*
X157100813Y-101948150D01*
X157096694Y-101952694D01*
X157092150Y-101956813D01*
X157087223Y-101960467D01*
X157081962Y-101963620D01*
X157076418Y-101966242D01*
X157070643Y-101968309D01*
X157064693Y-101969799D01*
X157058626Y-101970699D01*
X157052500Y-101971000D01*
X156577500Y-101971000D01*
X156571374Y-101970699D01*
X156565307Y-101969799D01*
X156559357Y-101968309D01*
X156553582Y-101966242D01*
X156548038Y-101963620D01*
X156542777Y-101960467D01*
X156537850Y-101956813D01*
X156533306Y-101952694D01*
X156529187Y-101948150D01*
X156525533Y-101943223D01*
X156522380Y-101937962D01*
X156519758Y-101932418D01*
X156517691Y-101926643D01*
X156516201Y-101920693D01*
X156515301Y-101914626D01*
X156515000Y-101908500D01*
X156515000Y-101783500D01*
X156515301Y-101777374D01*
X156516201Y-101771307D01*
X156517691Y-101765357D01*
X156519758Y-101759582D01*
X156522380Y-101754038D01*
X156525533Y-101748777D01*
X156529187Y-101743850D01*
X156533306Y-101739306D01*
X156537850Y-101735187D01*
X156542777Y-101731533D01*
X156548038Y-101728380D01*
X156553582Y-101725758D01*
X156559357Y-101723691D01*
X156565307Y-101722201D01*
X156571374Y-101721301D01*
X156577500Y-101721000D01*
X157052500Y-101721000D01*
X157058626Y-101721301D01*
X157058626Y-101721301D01*
G37*
D15*
X156815000Y-101846000D03*
D10*
G36*
X158358626Y-101221301D02*
G01*
X158364693Y-101222201D01*
X158370643Y-101223691D01*
X158376418Y-101225758D01*
X158381962Y-101228380D01*
X158387223Y-101231533D01*
X158392150Y-101235187D01*
X158396694Y-101239306D01*
X158400813Y-101243850D01*
X158404467Y-101248777D01*
X158407620Y-101254038D01*
X158410242Y-101259582D01*
X158412309Y-101265357D01*
X158413799Y-101271307D01*
X158414699Y-101277374D01*
X158415000Y-101283500D01*
X158415000Y-101408500D01*
X158414699Y-101414626D01*
X158413799Y-101420693D01*
X158412309Y-101426643D01*
X158410242Y-101432418D01*
X158407620Y-101437962D01*
X158404467Y-101443223D01*
X158400813Y-101448150D01*
X158396694Y-101452694D01*
X158392150Y-101456813D01*
X158387223Y-101460467D01*
X158381962Y-101463620D01*
X158376418Y-101466242D01*
X158370643Y-101468309D01*
X158364693Y-101469799D01*
X158358626Y-101470699D01*
X158352500Y-101471000D01*
X157877500Y-101471000D01*
X157871374Y-101470699D01*
X157865307Y-101469799D01*
X157859357Y-101468309D01*
X157853582Y-101466242D01*
X157848038Y-101463620D01*
X157842777Y-101460467D01*
X157837850Y-101456813D01*
X157833306Y-101452694D01*
X157829187Y-101448150D01*
X157825533Y-101443223D01*
X157822380Y-101437962D01*
X157819758Y-101432418D01*
X157817691Y-101426643D01*
X157816201Y-101420693D01*
X157815301Y-101414626D01*
X157815000Y-101408500D01*
X157815000Y-101283500D01*
X157815301Y-101277374D01*
X157816201Y-101271307D01*
X157817691Y-101265357D01*
X157819758Y-101259582D01*
X157822380Y-101254038D01*
X157825533Y-101248777D01*
X157829187Y-101243850D01*
X157833306Y-101239306D01*
X157837850Y-101235187D01*
X157842777Y-101231533D01*
X157848038Y-101228380D01*
X157853582Y-101225758D01*
X157859357Y-101223691D01*
X157865307Y-101222201D01*
X157871374Y-101221301D01*
X157877500Y-101221000D01*
X158352500Y-101221000D01*
X158358626Y-101221301D01*
X158358626Y-101221301D01*
G37*
D15*
X158115000Y-101346000D03*
D10*
G36*
X158358626Y-100721301D02*
G01*
X158364693Y-100722201D01*
X158370643Y-100723691D01*
X158376418Y-100725758D01*
X158381962Y-100728380D01*
X158387223Y-100731533D01*
X158392150Y-100735187D01*
X158396694Y-100739306D01*
X158400813Y-100743850D01*
X158404467Y-100748777D01*
X158407620Y-100754038D01*
X158410242Y-100759582D01*
X158412309Y-100765357D01*
X158413799Y-100771307D01*
X158414699Y-100777374D01*
X158415000Y-100783500D01*
X158415000Y-100908500D01*
X158414699Y-100914626D01*
X158413799Y-100920693D01*
X158412309Y-100926643D01*
X158410242Y-100932418D01*
X158407620Y-100937962D01*
X158404467Y-100943223D01*
X158400813Y-100948150D01*
X158396694Y-100952694D01*
X158392150Y-100956813D01*
X158387223Y-100960467D01*
X158381962Y-100963620D01*
X158376418Y-100966242D01*
X158370643Y-100968309D01*
X158364693Y-100969799D01*
X158358626Y-100970699D01*
X158352500Y-100971000D01*
X157877500Y-100971000D01*
X157871374Y-100970699D01*
X157865307Y-100969799D01*
X157859357Y-100968309D01*
X157853582Y-100966242D01*
X157848038Y-100963620D01*
X157842777Y-100960467D01*
X157837850Y-100956813D01*
X157833306Y-100952694D01*
X157829187Y-100948150D01*
X157825533Y-100943223D01*
X157822380Y-100937962D01*
X157819758Y-100932418D01*
X157817691Y-100926643D01*
X157816201Y-100920693D01*
X157815301Y-100914626D01*
X157815000Y-100908500D01*
X157815000Y-100783500D01*
X157815301Y-100777374D01*
X157816201Y-100771307D01*
X157817691Y-100765357D01*
X157819758Y-100759582D01*
X157822380Y-100754038D01*
X157825533Y-100748777D01*
X157829187Y-100743850D01*
X157833306Y-100739306D01*
X157837850Y-100735187D01*
X157842777Y-100731533D01*
X157848038Y-100728380D01*
X157853582Y-100725758D01*
X157859357Y-100723691D01*
X157865307Y-100722201D01*
X157871374Y-100721301D01*
X157877500Y-100721000D01*
X158352500Y-100721000D01*
X158358626Y-100721301D01*
X158358626Y-100721301D01*
G37*
D15*
X158115000Y-100846000D03*
D10*
G36*
X157058626Y-100721301D02*
G01*
X157064693Y-100722201D01*
X157070643Y-100723691D01*
X157076418Y-100725758D01*
X157081962Y-100728380D01*
X157087223Y-100731533D01*
X157092150Y-100735187D01*
X157096694Y-100739306D01*
X157100813Y-100743850D01*
X157104467Y-100748777D01*
X157107620Y-100754038D01*
X157110242Y-100759582D01*
X157112309Y-100765357D01*
X157113799Y-100771307D01*
X157114699Y-100777374D01*
X157115000Y-100783500D01*
X157115000Y-100908500D01*
X157114699Y-100914626D01*
X157113799Y-100920693D01*
X157112309Y-100926643D01*
X157110242Y-100932418D01*
X157107620Y-100937962D01*
X157104467Y-100943223D01*
X157100813Y-100948150D01*
X157096694Y-100952694D01*
X157092150Y-100956813D01*
X157087223Y-100960467D01*
X157081962Y-100963620D01*
X157076418Y-100966242D01*
X157070643Y-100968309D01*
X157064693Y-100969799D01*
X157058626Y-100970699D01*
X157052500Y-100971000D01*
X156577500Y-100971000D01*
X156571374Y-100970699D01*
X156565307Y-100969799D01*
X156559357Y-100968309D01*
X156553582Y-100966242D01*
X156548038Y-100963620D01*
X156542777Y-100960467D01*
X156537850Y-100956813D01*
X156533306Y-100952694D01*
X156529187Y-100948150D01*
X156525533Y-100943223D01*
X156522380Y-100937962D01*
X156519758Y-100932418D01*
X156517691Y-100926643D01*
X156516201Y-100920693D01*
X156515301Y-100914626D01*
X156515000Y-100908500D01*
X156515000Y-100783500D01*
X156515301Y-100777374D01*
X156516201Y-100771307D01*
X156517691Y-100765357D01*
X156519758Y-100759582D01*
X156522380Y-100754038D01*
X156525533Y-100748777D01*
X156529187Y-100743850D01*
X156533306Y-100739306D01*
X156537850Y-100735187D01*
X156542777Y-100731533D01*
X156548038Y-100728380D01*
X156553582Y-100725758D01*
X156559357Y-100723691D01*
X156565307Y-100722201D01*
X156571374Y-100721301D01*
X156577500Y-100721000D01*
X157052500Y-100721000D01*
X157058626Y-100721301D01*
X157058626Y-100721301D01*
G37*
D15*
X156815000Y-100846000D03*
D10*
G36*
X157058626Y-101221301D02*
G01*
X157064693Y-101222201D01*
X157070643Y-101223691D01*
X157076418Y-101225758D01*
X157081962Y-101228380D01*
X157087223Y-101231533D01*
X157092150Y-101235187D01*
X157096694Y-101239306D01*
X157100813Y-101243850D01*
X157104467Y-101248777D01*
X157107620Y-101254038D01*
X157110242Y-101259582D01*
X157112309Y-101265357D01*
X157113799Y-101271307D01*
X157114699Y-101277374D01*
X157115000Y-101283500D01*
X157115000Y-101408500D01*
X157114699Y-101414626D01*
X157113799Y-101420693D01*
X157112309Y-101426643D01*
X157110242Y-101432418D01*
X157107620Y-101437962D01*
X157104467Y-101443223D01*
X157100813Y-101448150D01*
X157096694Y-101452694D01*
X157092150Y-101456813D01*
X157087223Y-101460467D01*
X157081962Y-101463620D01*
X157076418Y-101466242D01*
X157070643Y-101468309D01*
X157064693Y-101469799D01*
X157058626Y-101470699D01*
X157052500Y-101471000D01*
X156577500Y-101471000D01*
X156571374Y-101470699D01*
X156565307Y-101469799D01*
X156559357Y-101468309D01*
X156553582Y-101466242D01*
X156548038Y-101463620D01*
X156542777Y-101460467D01*
X156537850Y-101456813D01*
X156533306Y-101452694D01*
X156529187Y-101448150D01*
X156525533Y-101443223D01*
X156522380Y-101437962D01*
X156519758Y-101432418D01*
X156517691Y-101426643D01*
X156516201Y-101420693D01*
X156515301Y-101414626D01*
X156515000Y-101408500D01*
X156515000Y-101283500D01*
X156515301Y-101277374D01*
X156516201Y-101271307D01*
X156517691Y-101265357D01*
X156519758Y-101259582D01*
X156522380Y-101254038D01*
X156525533Y-101248777D01*
X156529187Y-101243850D01*
X156533306Y-101239306D01*
X156537850Y-101235187D01*
X156542777Y-101231533D01*
X156548038Y-101228380D01*
X156553582Y-101225758D01*
X156559357Y-101223691D01*
X156565307Y-101222201D01*
X156571374Y-101221301D01*
X156577500Y-101221000D01*
X157052500Y-101221000D01*
X157058626Y-101221301D01*
X157058626Y-101221301D01*
G37*
D15*
X156815000Y-101346000D03*
D10*
G36*
X157058626Y-102221301D02*
G01*
X157064693Y-102222201D01*
X157070643Y-102223691D01*
X157076418Y-102225758D01*
X157081962Y-102228380D01*
X157087223Y-102231533D01*
X157092150Y-102235187D01*
X157096694Y-102239306D01*
X157100813Y-102243850D01*
X157104467Y-102248777D01*
X157107620Y-102254038D01*
X157110242Y-102259582D01*
X157112309Y-102265357D01*
X157113799Y-102271307D01*
X157114699Y-102277374D01*
X157115000Y-102283500D01*
X157115000Y-102408500D01*
X157114699Y-102414626D01*
X157113799Y-102420693D01*
X157112309Y-102426643D01*
X157110242Y-102432418D01*
X157107620Y-102437962D01*
X157104467Y-102443223D01*
X157100813Y-102448150D01*
X157096694Y-102452694D01*
X157092150Y-102456813D01*
X157087223Y-102460467D01*
X157081962Y-102463620D01*
X157076418Y-102466242D01*
X157070643Y-102468309D01*
X157064693Y-102469799D01*
X157058626Y-102470699D01*
X157052500Y-102471000D01*
X156577500Y-102471000D01*
X156571374Y-102470699D01*
X156565307Y-102469799D01*
X156559357Y-102468309D01*
X156553582Y-102466242D01*
X156548038Y-102463620D01*
X156542777Y-102460467D01*
X156537850Y-102456813D01*
X156533306Y-102452694D01*
X156529187Y-102448150D01*
X156525533Y-102443223D01*
X156522380Y-102437962D01*
X156519758Y-102432418D01*
X156517691Y-102426643D01*
X156516201Y-102420693D01*
X156515301Y-102414626D01*
X156515000Y-102408500D01*
X156515000Y-102283500D01*
X156515301Y-102277374D01*
X156516201Y-102271307D01*
X156517691Y-102265357D01*
X156519758Y-102259582D01*
X156522380Y-102254038D01*
X156525533Y-102248777D01*
X156529187Y-102243850D01*
X156533306Y-102239306D01*
X156537850Y-102235187D01*
X156542777Y-102231533D01*
X156548038Y-102228380D01*
X156553582Y-102225758D01*
X156559357Y-102223691D01*
X156565307Y-102222201D01*
X156571374Y-102221301D01*
X156577500Y-102221000D01*
X157052500Y-102221000D01*
X157058626Y-102221301D01*
X157058626Y-102221301D01*
G37*
D15*
X156815000Y-102346000D03*
D10*
G36*
X158358626Y-102221301D02*
G01*
X158364693Y-102222201D01*
X158370643Y-102223691D01*
X158376418Y-102225758D01*
X158381962Y-102228380D01*
X158387223Y-102231533D01*
X158392150Y-102235187D01*
X158396694Y-102239306D01*
X158400813Y-102243850D01*
X158404467Y-102248777D01*
X158407620Y-102254038D01*
X158410242Y-102259582D01*
X158412309Y-102265357D01*
X158413799Y-102271307D01*
X158414699Y-102277374D01*
X158415000Y-102283500D01*
X158415000Y-102408500D01*
X158414699Y-102414626D01*
X158413799Y-102420693D01*
X158412309Y-102426643D01*
X158410242Y-102432418D01*
X158407620Y-102437962D01*
X158404467Y-102443223D01*
X158400813Y-102448150D01*
X158396694Y-102452694D01*
X158392150Y-102456813D01*
X158387223Y-102460467D01*
X158381962Y-102463620D01*
X158376418Y-102466242D01*
X158370643Y-102468309D01*
X158364693Y-102469799D01*
X158358626Y-102470699D01*
X158352500Y-102471000D01*
X157877500Y-102471000D01*
X157871374Y-102470699D01*
X157865307Y-102469799D01*
X157859357Y-102468309D01*
X157853582Y-102466242D01*
X157848038Y-102463620D01*
X157842777Y-102460467D01*
X157837850Y-102456813D01*
X157833306Y-102452694D01*
X157829187Y-102448150D01*
X157825533Y-102443223D01*
X157822380Y-102437962D01*
X157819758Y-102432418D01*
X157817691Y-102426643D01*
X157816201Y-102420693D01*
X157815301Y-102414626D01*
X157815000Y-102408500D01*
X157815000Y-102283500D01*
X157815301Y-102277374D01*
X157816201Y-102271307D01*
X157817691Y-102265357D01*
X157819758Y-102259582D01*
X157822380Y-102254038D01*
X157825533Y-102248777D01*
X157829187Y-102243850D01*
X157833306Y-102239306D01*
X157837850Y-102235187D01*
X157842777Y-102231533D01*
X157848038Y-102228380D01*
X157853582Y-102225758D01*
X157859357Y-102223691D01*
X157865307Y-102222201D01*
X157871374Y-102221301D01*
X157877500Y-102221000D01*
X158352500Y-102221000D01*
X158358626Y-102221301D01*
X158358626Y-102221301D01*
G37*
D15*
X158115000Y-102346000D03*
D10*
G36*
X158358626Y-101721301D02*
G01*
X158364693Y-101722201D01*
X158370643Y-101723691D01*
X158376418Y-101725758D01*
X158381962Y-101728380D01*
X158387223Y-101731533D01*
X158392150Y-101735187D01*
X158396694Y-101739306D01*
X158400813Y-101743850D01*
X158404467Y-101748777D01*
X158407620Y-101754038D01*
X158410242Y-101759582D01*
X158412309Y-101765357D01*
X158413799Y-101771307D01*
X158414699Y-101777374D01*
X158415000Y-101783500D01*
X158415000Y-101908500D01*
X158414699Y-101914626D01*
X158413799Y-101920693D01*
X158412309Y-101926643D01*
X158410242Y-101932418D01*
X158407620Y-101937962D01*
X158404467Y-101943223D01*
X158400813Y-101948150D01*
X158396694Y-101952694D01*
X158392150Y-101956813D01*
X158387223Y-101960467D01*
X158381962Y-101963620D01*
X158376418Y-101966242D01*
X158370643Y-101968309D01*
X158364693Y-101969799D01*
X158358626Y-101970699D01*
X158352500Y-101971000D01*
X157877500Y-101971000D01*
X157871374Y-101970699D01*
X157865307Y-101969799D01*
X157859357Y-101968309D01*
X157853582Y-101966242D01*
X157848038Y-101963620D01*
X157842777Y-101960467D01*
X157837850Y-101956813D01*
X157833306Y-101952694D01*
X157829187Y-101948150D01*
X157825533Y-101943223D01*
X157822380Y-101937962D01*
X157819758Y-101932418D01*
X157817691Y-101926643D01*
X157816201Y-101920693D01*
X157815301Y-101914626D01*
X157815000Y-101908500D01*
X157815000Y-101783500D01*
X157815301Y-101777374D01*
X157816201Y-101771307D01*
X157817691Y-101765357D01*
X157819758Y-101759582D01*
X157822380Y-101754038D01*
X157825533Y-101748777D01*
X157829187Y-101743850D01*
X157833306Y-101739306D01*
X157837850Y-101735187D01*
X157842777Y-101731533D01*
X157848038Y-101728380D01*
X157853582Y-101725758D01*
X157859357Y-101723691D01*
X157865307Y-101722201D01*
X157871374Y-101721301D01*
X157877500Y-101721000D01*
X158352500Y-101721000D01*
X158358626Y-101721301D01*
X158358626Y-101721301D01*
G37*
D15*
X158115000Y-101846000D03*
M02*
