G04 #@! TF.GenerationSoftware,KiCad,Pcbnew,(5.1.4)-1*
G04 #@! TF.CreationDate,2019-11-18T19:24:08+01:00*
G04 #@! TF.ProjectId,olmBoard-v1,6f6c6d42-6f61-4726-942d-76312e6b6963,0.1*
G04 #@! TF.SameCoordinates,Original*
G04 #@! TF.FileFunction,Copper,L2,Bot*
G04 #@! TF.FilePolarity,Positive*
%FSLAX46Y46*%
G04 Gerber Fmt 4.6, Leading zero omitted, Abs format (unit mm)*
G04 Created by KiCad (PCBNEW (5.1.4)-1) date 2019-11-18 19:24:08*
%MOMM*%
%LPD*%
G04 APERTURE LIST*
%ADD10C,3.800000*%
%ADD11R,1.700000X1.700000*%
%ADD12O,1.700000X1.700000*%
%ADD13C,0.600000*%
%ADD14C,0.900000*%
%ADD15C,0.800000*%
%ADD16C,1.000000*%
%ADD17C,0.200000*%
%ADD18C,0.254000*%
G04 APERTURE END LIST*
D10*
X157480000Y-114300000D03*
D11*
X151130000Y-105410000D03*
D12*
X151130000Y-102870000D03*
X151130000Y-100330000D03*
X151130000Y-97790000D03*
X163830000Y-97790000D03*
X163830000Y-100330000D03*
X163830000Y-102870000D03*
D11*
X163830000Y-105410000D03*
D13*
X161300000Y-90650000D03*
X162700000Y-87900000D03*
X155700000Y-88250000D03*
X152705000Y-87905000D03*
D14*
X153505000Y-94800000D03*
X154505000Y-102450000D03*
X154530000Y-103450008D03*
X153505000Y-93600000D03*
D13*
X154680000Y-115200000D03*
X160080000Y-115400000D03*
X157430000Y-105475000D03*
X159955000Y-107050000D03*
X160630000Y-96050000D03*
X154955000Y-98250000D03*
X155280000Y-93650000D03*
X155280000Y-94525000D03*
X154130000Y-98275000D03*
X154980020Y-97500000D03*
X155702000Y-98000000D03*
X156815000Y-99822000D03*
X155956000Y-99822000D03*
X155702000Y-98806000D03*
X155250000Y-92700000D03*
X157550000Y-88250000D03*
X159950000Y-91150000D03*
X156600000Y-86850000D03*
X158650000Y-86800000D03*
X156650000Y-89550000D03*
X158550000Y-89650000D03*
X151650000Y-88800000D03*
X151150000Y-92850000D03*
X161290000Y-104040000D03*
X159780000Y-104275032D03*
D15*
X153505000Y-94800000D02*
X153505000Y-93600000D01*
D16*
X154530000Y-102475000D02*
X154505000Y-102450000D01*
X154530000Y-103450008D02*
X154530000Y-102475000D01*
X154505000Y-100725000D02*
X154505000Y-102450000D01*
X152930000Y-99150000D02*
X154505000Y-100725000D01*
X152930000Y-97550000D02*
X152930000Y-99150000D01*
X153505000Y-94800000D02*
X153505000Y-96975000D01*
X153505000Y-96975000D02*
X152930000Y-97550000D01*
D17*
X162980001Y-101179999D02*
X163830000Y-100330000D01*
X162460000Y-101700000D02*
X162980001Y-101179999D01*
X161290000Y-104040000D02*
X162460000Y-102870000D01*
X162460000Y-102870000D02*
X162460000Y-101700000D01*
X160079999Y-104575031D02*
X159780000Y-104275032D01*
X163830000Y-102870000D02*
X162060000Y-104640000D01*
X162060000Y-104640000D02*
X160144968Y-104640000D01*
X160144968Y-104640000D02*
X160079999Y-104575031D01*
D18*
G36*
X163947869Y-86399722D02*
G01*
X164061246Y-86433953D01*
X164165819Y-86489555D01*
X164257596Y-86564407D01*
X164333091Y-86655664D01*
X164389419Y-86759844D01*
X164424440Y-86872976D01*
X164440001Y-87021031D01*
X164440001Y-96432229D01*
X164401034Y-96411401D01*
X164121111Y-96326487D01*
X163902950Y-96305000D01*
X163757050Y-96305000D01*
X163538889Y-96326487D01*
X163258966Y-96411401D01*
X163000986Y-96549294D01*
X162774866Y-96734866D01*
X162589294Y-96960986D01*
X162451401Y-97218966D01*
X162366487Y-97498889D01*
X162337815Y-97790000D01*
X162366487Y-98081111D01*
X162451401Y-98361034D01*
X162589294Y-98619014D01*
X162774866Y-98845134D01*
X163000986Y-99030706D01*
X163055791Y-99060000D01*
X163000986Y-99089294D01*
X162774866Y-99274866D01*
X162589294Y-99500986D01*
X162451401Y-99758966D01*
X162366487Y-100038889D01*
X162337815Y-100330000D01*
X162366487Y-100621111D01*
X162397432Y-100723122D01*
X161965808Y-101154746D01*
X161937763Y-101177762D01*
X161845914Y-101289680D01*
X161783368Y-101406696D01*
X161777664Y-101417367D01*
X161735635Y-101555915D01*
X161721444Y-101700000D01*
X161725001Y-101736115D01*
X161725000Y-102565553D01*
X161182485Y-103108068D01*
X161017271Y-103140932D01*
X160847111Y-103211414D01*
X160693972Y-103313738D01*
X160563738Y-103443972D01*
X160461414Y-103597111D01*
X160450564Y-103623306D01*
X160376028Y-103548770D01*
X160222889Y-103446446D01*
X160052729Y-103375964D01*
X159872089Y-103340032D01*
X159687911Y-103340032D01*
X159507271Y-103375964D01*
X159337111Y-103446446D01*
X159183972Y-103548770D01*
X159053738Y-103679004D01*
X158951414Y-103832143D01*
X158880932Y-104002303D01*
X158845000Y-104182943D01*
X158845000Y-104367121D01*
X158880932Y-104547761D01*
X158951414Y-104717921D01*
X159053738Y-104871060D01*
X159183972Y-105001294D01*
X159337111Y-105103618D01*
X159507271Y-105174100D01*
X159678745Y-105208209D01*
X159734648Y-105254087D01*
X159862335Y-105322337D01*
X160000883Y-105364365D01*
X160144967Y-105378556D01*
X160181072Y-105375000D01*
X162023895Y-105375000D01*
X162060000Y-105378556D01*
X162096105Y-105375000D01*
X162204085Y-105364365D01*
X162342633Y-105322337D01*
X162470320Y-105254087D01*
X162582238Y-105162238D01*
X162605258Y-105134188D01*
X163436878Y-104302568D01*
X163538889Y-104333513D01*
X163757050Y-104355000D01*
X163902950Y-104355000D01*
X164121111Y-104333513D01*
X164401034Y-104248599D01*
X164440000Y-104227771D01*
X164440000Y-115537721D01*
X164425278Y-115687869D01*
X164391047Y-115801246D01*
X164335446Y-115905817D01*
X164260594Y-115997595D01*
X164169335Y-116073091D01*
X164065160Y-116129419D01*
X163952024Y-116164440D01*
X163803979Y-116180000D01*
X159185031Y-116180000D01*
X159449063Y-115915968D01*
X159726488Y-115500773D01*
X159917582Y-115039432D01*
X160015000Y-114549676D01*
X160015000Y-114050324D01*
X159917582Y-113560568D01*
X159726488Y-113099227D01*
X159449063Y-112684032D01*
X159095968Y-112330937D01*
X158680773Y-112053512D01*
X158219432Y-111862418D01*
X157729676Y-111765000D01*
X157230324Y-111765000D01*
X156740568Y-111862418D01*
X156279227Y-112053512D01*
X155864032Y-112330937D01*
X155510937Y-112684032D01*
X155233512Y-113099227D01*
X155042418Y-113560568D01*
X154945000Y-114050324D01*
X154945000Y-114549676D01*
X155042418Y-115039432D01*
X155233512Y-115500773D01*
X155510937Y-115915968D01*
X155774969Y-116180000D01*
X151162279Y-116180000D01*
X151012131Y-116165278D01*
X150925229Y-116139040D01*
X150608313Y-115874944D01*
X150570581Y-115805160D01*
X150535560Y-115692024D01*
X150520000Y-115543979D01*
X150520000Y-106898072D01*
X151980000Y-106898072D01*
X152104482Y-106885812D01*
X152224180Y-106849502D01*
X152334494Y-106790537D01*
X152431185Y-106711185D01*
X152510537Y-106614494D01*
X152569502Y-106504180D01*
X152605812Y-106384482D01*
X152618072Y-106260000D01*
X152618072Y-104560000D01*
X152605812Y-104435518D01*
X152569502Y-104315820D01*
X152510537Y-104205506D01*
X152431185Y-104108815D01*
X152334494Y-104029463D01*
X152224180Y-103970498D01*
X152104482Y-103934188D01*
X151980000Y-103921928D01*
X150520000Y-103921928D01*
X150520000Y-99147771D01*
X150558966Y-99168599D01*
X150838889Y-99253513D01*
X151057050Y-99275000D01*
X151202950Y-99275000D01*
X151421111Y-99253513D01*
X151701034Y-99168599D01*
X151792492Y-99119714D01*
X151789509Y-99150000D01*
X151811423Y-99372498D01*
X151876324Y-99586446D01*
X151876325Y-99586447D01*
X151981717Y-99783623D01*
X152123552Y-99956449D01*
X152166860Y-99991991D01*
X153370000Y-101195132D01*
X153370000Y-102394249D01*
X153364509Y-102450000D01*
X153386423Y-102672498D01*
X153395000Y-102700772D01*
X153395000Y-103505759D01*
X153411423Y-103672506D01*
X153476324Y-103886454D01*
X153581716Y-104083631D01*
X153723551Y-104256457D01*
X153896377Y-104398292D01*
X154093553Y-104503684D01*
X154307501Y-104568585D01*
X154530000Y-104590499D01*
X154752498Y-104568585D01*
X154966446Y-104503684D01*
X155163623Y-104398292D01*
X155336449Y-104256457D01*
X155478284Y-104083631D01*
X155583676Y-103886455D01*
X155648577Y-103672507D01*
X155665000Y-103505760D01*
X155665000Y-102530741D01*
X155670490Y-102474999D01*
X155665000Y-102419258D01*
X155665000Y-102419249D01*
X155648577Y-102252501D01*
X155640000Y-102224227D01*
X155640000Y-100780741D01*
X155645490Y-100724999D01*
X155640000Y-100669257D01*
X155640000Y-100669248D01*
X155623577Y-100502501D01*
X155558676Y-100288553D01*
X155453284Y-100091377D01*
X155311449Y-99918551D01*
X155268140Y-99883009D01*
X154065000Y-98679869D01*
X154065000Y-98020131D01*
X154268135Y-97816996D01*
X154311449Y-97781449D01*
X154453284Y-97608623D01*
X154558676Y-97411447D01*
X154623577Y-97197499D01*
X154640000Y-97030752D01*
X154645491Y-96975000D01*
X154640000Y-96919248D01*
X154640000Y-94744248D01*
X154623577Y-94577501D01*
X154558676Y-94363553D01*
X154540000Y-94328612D01*
X154540000Y-93936531D01*
X154548304Y-93916483D01*
X154590000Y-93706863D01*
X154590000Y-93493137D01*
X154548304Y-93283517D01*
X154466515Y-93086060D01*
X154347775Y-92908353D01*
X154196647Y-92757225D01*
X154018940Y-92638485D01*
X153821483Y-92556696D01*
X153611863Y-92515000D01*
X153398137Y-92515000D01*
X153188517Y-92556696D01*
X152991060Y-92638485D01*
X152813353Y-92757225D01*
X152662225Y-92908353D01*
X152543485Y-93086060D01*
X152461696Y-93283517D01*
X152420000Y-93493137D01*
X152420000Y-93706863D01*
X152461696Y-93916483D01*
X152470001Y-93936532D01*
X152470000Y-94328612D01*
X152451324Y-94363554D01*
X152386423Y-94577502D01*
X152370000Y-94744249D01*
X152370001Y-96504868D01*
X152166865Y-96708004D01*
X152159634Y-96713939D01*
X151959014Y-96549294D01*
X151701034Y-96411401D01*
X151421111Y-96326487D01*
X151202950Y-96305000D01*
X151057050Y-96305000D01*
X150838889Y-96326487D01*
X150558966Y-96411401D01*
X150520000Y-96432229D01*
X150520000Y-90557911D01*
X160365000Y-90557911D01*
X160365000Y-90742089D01*
X160400932Y-90922729D01*
X160471414Y-91092889D01*
X160573738Y-91246028D01*
X160703972Y-91376262D01*
X160857111Y-91478586D01*
X161027271Y-91549068D01*
X161207911Y-91585000D01*
X161392089Y-91585000D01*
X161572729Y-91549068D01*
X161742889Y-91478586D01*
X161896028Y-91376262D01*
X162026262Y-91246028D01*
X162128586Y-91092889D01*
X162199068Y-90922729D01*
X162235000Y-90742089D01*
X162235000Y-90557911D01*
X162199068Y-90377271D01*
X162128586Y-90207111D01*
X162026262Y-90053972D01*
X161896028Y-89923738D01*
X161742889Y-89821414D01*
X161572729Y-89750932D01*
X161392089Y-89715000D01*
X161207911Y-89715000D01*
X161027271Y-89750932D01*
X160857111Y-89821414D01*
X160703972Y-89923738D01*
X160573738Y-90053972D01*
X160471414Y-90207111D01*
X160400932Y-90377271D01*
X160365000Y-90557911D01*
X150520000Y-90557911D01*
X150520000Y-87812911D01*
X151770000Y-87812911D01*
X151770000Y-87997089D01*
X151805932Y-88177729D01*
X151876414Y-88347889D01*
X151978738Y-88501028D01*
X152108972Y-88631262D01*
X152262111Y-88733586D01*
X152432271Y-88804068D01*
X152612911Y-88840000D01*
X152797089Y-88840000D01*
X152977729Y-88804068D01*
X153147889Y-88733586D01*
X153301028Y-88631262D01*
X153431262Y-88501028D01*
X153533586Y-88347889D01*
X153604068Y-88177729D01*
X153608010Y-88157911D01*
X154765000Y-88157911D01*
X154765000Y-88342089D01*
X154800932Y-88522729D01*
X154871414Y-88692889D01*
X154973738Y-88846028D01*
X155103972Y-88976262D01*
X155257111Y-89078586D01*
X155427271Y-89149068D01*
X155607911Y-89185000D01*
X155792089Y-89185000D01*
X155972729Y-89149068D01*
X156142889Y-89078586D01*
X156296028Y-88976262D01*
X156426262Y-88846028D01*
X156528586Y-88692889D01*
X156599068Y-88522729D01*
X156635000Y-88342089D01*
X156635000Y-88157911D01*
X156599068Y-87977271D01*
X156528918Y-87807911D01*
X161765000Y-87807911D01*
X161765000Y-87992089D01*
X161800932Y-88172729D01*
X161871414Y-88342889D01*
X161973738Y-88496028D01*
X162103972Y-88626262D01*
X162257111Y-88728586D01*
X162427271Y-88799068D01*
X162607911Y-88835000D01*
X162792089Y-88835000D01*
X162972729Y-88799068D01*
X163142889Y-88728586D01*
X163296028Y-88626262D01*
X163426262Y-88496028D01*
X163528586Y-88342889D01*
X163599068Y-88172729D01*
X163635000Y-87992089D01*
X163635000Y-87807911D01*
X163599068Y-87627271D01*
X163528586Y-87457111D01*
X163426262Y-87303972D01*
X163296028Y-87173738D01*
X163142889Y-87071414D01*
X162972729Y-87000932D01*
X162792089Y-86965000D01*
X162607911Y-86965000D01*
X162427271Y-87000932D01*
X162257111Y-87071414D01*
X162103972Y-87173738D01*
X161973738Y-87303972D01*
X161871414Y-87457111D01*
X161800932Y-87627271D01*
X161765000Y-87807911D01*
X156528918Y-87807911D01*
X156528586Y-87807111D01*
X156426262Y-87653972D01*
X156296028Y-87523738D01*
X156142889Y-87421414D01*
X155972729Y-87350932D01*
X155792089Y-87315000D01*
X155607911Y-87315000D01*
X155427271Y-87350932D01*
X155257111Y-87421414D01*
X155103972Y-87523738D01*
X154973738Y-87653972D01*
X154871414Y-87807111D01*
X154800932Y-87977271D01*
X154765000Y-88157911D01*
X153608010Y-88157911D01*
X153640000Y-87997089D01*
X153640000Y-87812911D01*
X153604068Y-87632271D01*
X153533586Y-87462111D01*
X153431262Y-87308972D01*
X153301028Y-87178738D01*
X153147889Y-87076414D01*
X152977729Y-87005932D01*
X152797089Y-86970000D01*
X152612911Y-86970000D01*
X152432271Y-87005932D01*
X152262111Y-87076414D01*
X152108972Y-87178738D01*
X151978738Y-87308972D01*
X151876414Y-87462111D01*
X151805932Y-87632271D01*
X151770000Y-87812911D01*
X150520000Y-87812911D01*
X150520000Y-87027279D01*
X150534722Y-86877131D01*
X150568953Y-86763754D01*
X150624555Y-86659181D01*
X150699407Y-86567404D01*
X150790664Y-86491909D01*
X150894844Y-86435581D01*
X151007976Y-86400560D01*
X151156022Y-86385000D01*
X163797721Y-86385000D01*
X163947869Y-86399722D01*
X163947869Y-86399722D01*
G37*
X163947869Y-86399722D02*
X164061246Y-86433953D01*
X164165819Y-86489555D01*
X164257596Y-86564407D01*
X164333091Y-86655664D01*
X164389419Y-86759844D01*
X164424440Y-86872976D01*
X164440001Y-87021031D01*
X164440001Y-96432229D01*
X164401034Y-96411401D01*
X164121111Y-96326487D01*
X163902950Y-96305000D01*
X163757050Y-96305000D01*
X163538889Y-96326487D01*
X163258966Y-96411401D01*
X163000986Y-96549294D01*
X162774866Y-96734866D01*
X162589294Y-96960986D01*
X162451401Y-97218966D01*
X162366487Y-97498889D01*
X162337815Y-97790000D01*
X162366487Y-98081111D01*
X162451401Y-98361034D01*
X162589294Y-98619014D01*
X162774866Y-98845134D01*
X163000986Y-99030706D01*
X163055791Y-99060000D01*
X163000986Y-99089294D01*
X162774866Y-99274866D01*
X162589294Y-99500986D01*
X162451401Y-99758966D01*
X162366487Y-100038889D01*
X162337815Y-100330000D01*
X162366487Y-100621111D01*
X162397432Y-100723122D01*
X161965808Y-101154746D01*
X161937763Y-101177762D01*
X161845914Y-101289680D01*
X161783368Y-101406696D01*
X161777664Y-101417367D01*
X161735635Y-101555915D01*
X161721444Y-101700000D01*
X161725001Y-101736115D01*
X161725000Y-102565553D01*
X161182485Y-103108068D01*
X161017271Y-103140932D01*
X160847111Y-103211414D01*
X160693972Y-103313738D01*
X160563738Y-103443972D01*
X160461414Y-103597111D01*
X160450564Y-103623306D01*
X160376028Y-103548770D01*
X160222889Y-103446446D01*
X160052729Y-103375964D01*
X159872089Y-103340032D01*
X159687911Y-103340032D01*
X159507271Y-103375964D01*
X159337111Y-103446446D01*
X159183972Y-103548770D01*
X159053738Y-103679004D01*
X158951414Y-103832143D01*
X158880932Y-104002303D01*
X158845000Y-104182943D01*
X158845000Y-104367121D01*
X158880932Y-104547761D01*
X158951414Y-104717921D01*
X159053738Y-104871060D01*
X159183972Y-105001294D01*
X159337111Y-105103618D01*
X159507271Y-105174100D01*
X159678745Y-105208209D01*
X159734648Y-105254087D01*
X159862335Y-105322337D01*
X160000883Y-105364365D01*
X160144967Y-105378556D01*
X160181072Y-105375000D01*
X162023895Y-105375000D01*
X162060000Y-105378556D01*
X162096105Y-105375000D01*
X162204085Y-105364365D01*
X162342633Y-105322337D01*
X162470320Y-105254087D01*
X162582238Y-105162238D01*
X162605258Y-105134188D01*
X163436878Y-104302568D01*
X163538889Y-104333513D01*
X163757050Y-104355000D01*
X163902950Y-104355000D01*
X164121111Y-104333513D01*
X164401034Y-104248599D01*
X164440000Y-104227771D01*
X164440000Y-115537721D01*
X164425278Y-115687869D01*
X164391047Y-115801246D01*
X164335446Y-115905817D01*
X164260594Y-115997595D01*
X164169335Y-116073091D01*
X164065160Y-116129419D01*
X163952024Y-116164440D01*
X163803979Y-116180000D01*
X159185031Y-116180000D01*
X159449063Y-115915968D01*
X159726488Y-115500773D01*
X159917582Y-115039432D01*
X160015000Y-114549676D01*
X160015000Y-114050324D01*
X159917582Y-113560568D01*
X159726488Y-113099227D01*
X159449063Y-112684032D01*
X159095968Y-112330937D01*
X158680773Y-112053512D01*
X158219432Y-111862418D01*
X157729676Y-111765000D01*
X157230324Y-111765000D01*
X156740568Y-111862418D01*
X156279227Y-112053512D01*
X155864032Y-112330937D01*
X155510937Y-112684032D01*
X155233512Y-113099227D01*
X155042418Y-113560568D01*
X154945000Y-114050324D01*
X154945000Y-114549676D01*
X155042418Y-115039432D01*
X155233512Y-115500773D01*
X155510937Y-115915968D01*
X155774969Y-116180000D01*
X151162279Y-116180000D01*
X151012131Y-116165278D01*
X150925229Y-116139040D01*
X150608313Y-115874944D01*
X150570581Y-115805160D01*
X150535560Y-115692024D01*
X150520000Y-115543979D01*
X150520000Y-106898072D01*
X151980000Y-106898072D01*
X152104482Y-106885812D01*
X152224180Y-106849502D01*
X152334494Y-106790537D01*
X152431185Y-106711185D01*
X152510537Y-106614494D01*
X152569502Y-106504180D01*
X152605812Y-106384482D01*
X152618072Y-106260000D01*
X152618072Y-104560000D01*
X152605812Y-104435518D01*
X152569502Y-104315820D01*
X152510537Y-104205506D01*
X152431185Y-104108815D01*
X152334494Y-104029463D01*
X152224180Y-103970498D01*
X152104482Y-103934188D01*
X151980000Y-103921928D01*
X150520000Y-103921928D01*
X150520000Y-99147771D01*
X150558966Y-99168599D01*
X150838889Y-99253513D01*
X151057050Y-99275000D01*
X151202950Y-99275000D01*
X151421111Y-99253513D01*
X151701034Y-99168599D01*
X151792492Y-99119714D01*
X151789509Y-99150000D01*
X151811423Y-99372498D01*
X151876324Y-99586446D01*
X151876325Y-99586447D01*
X151981717Y-99783623D01*
X152123552Y-99956449D01*
X152166860Y-99991991D01*
X153370000Y-101195132D01*
X153370000Y-102394249D01*
X153364509Y-102450000D01*
X153386423Y-102672498D01*
X153395000Y-102700772D01*
X153395000Y-103505759D01*
X153411423Y-103672506D01*
X153476324Y-103886454D01*
X153581716Y-104083631D01*
X153723551Y-104256457D01*
X153896377Y-104398292D01*
X154093553Y-104503684D01*
X154307501Y-104568585D01*
X154530000Y-104590499D01*
X154752498Y-104568585D01*
X154966446Y-104503684D01*
X155163623Y-104398292D01*
X155336449Y-104256457D01*
X155478284Y-104083631D01*
X155583676Y-103886455D01*
X155648577Y-103672507D01*
X155665000Y-103505760D01*
X155665000Y-102530741D01*
X155670490Y-102474999D01*
X155665000Y-102419258D01*
X155665000Y-102419249D01*
X155648577Y-102252501D01*
X155640000Y-102224227D01*
X155640000Y-100780741D01*
X155645490Y-100724999D01*
X155640000Y-100669257D01*
X155640000Y-100669248D01*
X155623577Y-100502501D01*
X155558676Y-100288553D01*
X155453284Y-100091377D01*
X155311449Y-99918551D01*
X155268140Y-99883009D01*
X154065000Y-98679869D01*
X154065000Y-98020131D01*
X154268135Y-97816996D01*
X154311449Y-97781449D01*
X154453284Y-97608623D01*
X154558676Y-97411447D01*
X154623577Y-97197499D01*
X154640000Y-97030752D01*
X154645491Y-96975000D01*
X154640000Y-96919248D01*
X154640000Y-94744248D01*
X154623577Y-94577501D01*
X154558676Y-94363553D01*
X154540000Y-94328612D01*
X154540000Y-93936531D01*
X154548304Y-93916483D01*
X154590000Y-93706863D01*
X154590000Y-93493137D01*
X154548304Y-93283517D01*
X154466515Y-93086060D01*
X154347775Y-92908353D01*
X154196647Y-92757225D01*
X154018940Y-92638485D01*
X153821483Y-92556696D01*
X153611863Y-92515000D01*
X153398137Y-92515000D01*
X153188517Y-92556696D01*
X152991060Y-92638485D01*
X152813353Y-92757225D01*
X152662225Y-92908353D01*
X152543485Y-93086060D01*
X152461696Y-93283517D01*
X152420000Y-93493137D01*
X152420000Y-93706863D01*
X152461696Y-93916483D01*
X152470001Y-93936532D01*
X152470000Y-94328612D01*
X152451324Y-94363554D01*
X152386423Y-94577502D01*
X152370000Y-94744249D01*
X152370001Y-96504868D01*
X152166865Y-96708004D01*
X152159634Y-96713939D01*
X151959014Y-96549294D01*
X151701034Y-96411401D01*
X151421111Y-96326487D01*
X151202950Y-96305000D01*
X151057050Y-96305000D01*
X150838889Y-96326487D01*
X150558966Y-96411401D01*
X150520000Y-96432229D01*
X150520000Y-90557911D01*
X160365000Y-90557911D01*
X160365000Y-90742089D01*
X160400932Y-90922729D01*
X160471414Y-91092889D01*
X160573738Y-91246028D01*
X160703972Y-91376262D01*
X160857111Y-91478586D01*
X161027271Y-91549068D01*
X161207911Y-91585000D01*
X161392089Y-91585000D01*
X161572729Y-91549068D01*
X161742889Y-91478586D01*
X161896028Y-91376262D01*
X162026262Y-91246028D01*
X162128586Y-91092889D01*
X162199068Y-90922729D01*
X162235000Y-90742089D01*
X162235000Y-90557911D01*
X162199068Y-90377271D01*
X162128586Y-90207111D01*
X162026262Y-90053972D01*
X161896028Y-89923738D01*
X161742889Y-89821414D01*
X161572729Y-89750932D01*
X161392089Y-89715000D01*
X161207911Y-89715000D01*
X161027271Y-89750932D01*
X160857111Y-89821414D01*
X160703972Y-89923738D01*
X160573738Y-90053972D01*
X160471414Y-90207111D01*
X160400932Y-90377271D01*
X160365000Y-90557911D01*
X150520000Y-90557911D01*
X150520000Y-87812911D01*
X151770000Y-87812911D01*
X151770000Y-87997089D01*
X151805932Y-88177729D01*
X151876414Y-88347889D01*
X151978738Y-88501028D01*
X152108972Y-88631262D01*
X152262111Y-88733586D01*
X152432271Y-88804068D01*
X152612911Y-88840000D01*
X152797089Y-88840000D01*
X152977729Y-88804068D01*
X153147889Y-88733586D01*
X153301028Y-88631262D01*
X153431262Y-88501028D01*
X153533586Y-88347889D01*
X153604068Y-88177729D01*
X153608010Y-88157911D01*
X154765000Y-88157911D01*
X154765000Y-88342089D01*
X154800932Y-88522729D01*
X154871414Y-88692889D01*
X154973738Y-88846028D01*
X155103972Y-88976262D01*
X155257111Y-89078586D01*
X155427271Y-89149068D01*
X155607911Y-89185000D01*
X155792089Y-89185000D01*
X155972729Y-89149068D01*
X156142889Y-89078586D01*
X156296028Y-88976262D01*
X156426262Y-88846028D01*
X156528586Y-88692889D01*
X156599068Y-88522729D01*
X156635000Y-88342089D01*
X156635000Y-88157911D01*
X156599068Y-87977271D01*
X156528918Y-87807911D01*
X161765000Y-87807911D01*
X161765000Y-87992089D01*
X161800932Y-88172729D01*
X161871414Y-88342889D01*
X161973738Y-88496028D01*
X162103972Y-88626262D01*
X162257111Y-88728586D01*
X162427271Y-88799068D01*
X162607911Y-88835000D01*
X162792089Y-88835000D01*
X162972729Y-88799068D01*
X163142889Y-88728586D01*
X163296028Y-88626262D01*
X163426262Y-88496028D01*
X163528586Y-88342889D01*
X163599068Y-88172729D01*
X163635000Y-87992089D01*
X163635000Y-87807911D01*
X163599068Y-87627271D01*
X163528586Y-87457111D01*
X163426262Y-87303972D01*
X163296028Y-87173738D01*
X163142889Y-87071414D01*
X162972729Y-87000932D01*
X162792089Y-86965000D01*
X162607911Y-86965000D01*
X162427271Y-87000932D01*
X162257111Y-87071414D01*
X162103972Y-87173738D01*
X161973738Y-87303972D01*
X161871414Y-87457111D01*
X161800932Y-87627271D01*
X161765000Y-87807911D01*
X156528918Y-87807911D01*
X156528586Y-87807111D01*
X156426262Y-87653972D01*
X156296028Y-87523738D01*
X156142889Y-87421414D01*
X155972729Y-87350932D01*
X155792089Y-87315000D01*
X155607911Y-87315000D01*
X155427271Y-87350932D01*
X155257111Y-87421414D01*
X155103972Y-87523738D01*
X154973738Y-87653972D01*
X154871414Y-87807111D01*
X154800932Y-87977271D01*
X154765000Y-88157911D01*
X153608010Y-88157911D01*
X153640000Y-87997089D01*
X153640000Y-87812911D01*
X153604068Y-87632271D01*
X153533586Y-87462111D01*
X153431262Y-87308972D01*
X153301028Y-87178738D01*
X153147889Y-87076414D01*
X152977729Y-87005932D01*
X152797089Y-86970000D01*
X152612911Y-86970000D01*
X152432271Y-87005932D01*
X152262111Y-87076414D01*
X152108972Y-87178738D01*
X151978738Y-87308972D01*
X151876414Y-87462111D01*
X151805932Y-87632271D01*
X151770000Y-87812911D01*
X150520000Y-87812911D01*
X150520000Y-87027279D01*
X150534722Y-86877131D01*
X150568953Y-86763754D01*
X150624555Y-86659181D01*
X150699407Y-86567404D01*
X150790664Y-86491909D01*
X150894844Y-86435581D01*
X151007976Y-86400560D01*
X151156022Y-86385000D01*
X163797721Y-86385000D01*
X163947869Y-86399722D01*
M02*
