G04 #@! TF.GenerationSoftware,KiCad,Pcbnew,(5.1.4)-1*
G04 #@! TF.CreationDate,2019-11-18T19:24:08+01:00*
G04 #@! TF.ProjectId,olmBoard-v1,6f6c6d42-6f61-4726-942d-76312e6b6963,0.1*
G04 #@! TF.SameCoordinates,Original*
G04 #@! TF.FileFunction,Copper,L1,Top*
G04 #@! TF.FilePolarity,Positive*
%FSLAX46Y46*%
G04 Gerber Fmt 4.6, Leading zero omitted, Abs format (unit mm)*
G04 Created by KiCad (PCBNEW (5.1.4)-1) date 2019-11-18 19:24:08*
%MOMM*%
%LPD*%
G04 APERTURE LIST*
%ADD10C,0.100000*%
%ADD11C,0.875000*%
%ADD12C,3.800000*%
%ADD13C,1.000000*%
%ADD14C,1.500000*%
%ADD15R,1.700000X1.700000*%
%ADD16O,1.700000X1.700000*%
%ADD17C,0.500000*%
%ADD18R,1.000000X1.500000*%
%ADD19C,0.300000*%
%ADD20C,0.620000*%
%ADD21C,0.250000*%
%ADD22C,0.600000*%
%ADD23C,0.900000*%
%ADD24C,0.600000*%
%ADD25C,0.300000*%
%ADD26C,1.000000*%
%ADD27C,0.500000*%
%ADD28C,0.200000*%
%ADD29C,0.250000*%
%ADD30C,0.400000*%
%ADD31C,0.800000*%
%ADD32C,0.254000*%
G04 APERTURE END LIST*
D10*
G36*
X154167000Y-105237000D02*
G01*
X154667000Y-105237000D01*
X154667000Y-105837000D01*
X154167000Y-105837000D01*
X154167000Y-105237000D01*
G37*
G36*
X160793000Y-105837000D02*
G01*
X160293000Y-105837000D01*
X160293000Y-105237000D01*
X160793000Y-105237000D01*
X160793000Y-105837000D01*
G37*
G36*
X164257000Y-113915000D02*
G01*
X164257000Y-113415000D01*
X163657000Y-113415000D01*
X163657000Y-113915000D01*
X164257000Y-113915000D01*
G37*
G36*
X153820691Y-100554053D02*
G01*
X153841926Y-100557203D01*
X153862750Y-100562419D01*
X153882962Y-100569651D01*
X153902368Y-100578830D01*
X153920781Y-100589866D01*
X153938024Y-100602654D01*
X153953930Y-100617070D01*
X153968346Y-100632976D01*
X153981134Y-100650219D01*
X153992170Y-100668632D01*
X154001349Y-100688038D01*
X154008581Y-100708250D01*
X154013797Y-100729074D01*
X154016947Y-100750309D01*
X154018000Y-100771750D01*
X154018000Y-101209250D01*
X154016947Y-101230691D01*
X154013797Y-101251926D01*
X154008581Y-101272750D01*
X154001349Y-101292962D01*
X153992170Y-101312368D01*
X153981134Y-101330781D01*
X153968346Y-101348024D01*
X153953930Y-101363930D01*
X153938024Y-101378346D01*
X153920781Y-101391134D01*
X153902368Y-101402170D01*
X153882962Y-101411349D01*
X153862750Y-101418581D01*
X153841926Y-101423797D01*
X153820691Y-101426947D01*
X153799250Y-101428000D01*
X153286750Y-101428000D01*
X153265309Y-101426947D01*
X153244074Y-101423797D01*
X153223250Y-101418581D01*
X153203038Y-101411349D01*
X153183632Y-101402170D01*
X153165219Y-101391134D01*
X153147976Y-101378346D01*
X153132070Y-101363930D01*
X153117654Y-101348024D01*
X153104866Y-101330781D01*
X153093830Y-101312368D01*
X153084651Y-101292962D01*
X153077419Y-101272750D01*
X153072203Y-101251926D01*
X153069053Y-101230691D01*
X153068000Y-101209250D01*
X153068000Y-100771750D01*
X153069053Y-100750309D01*
X153072203Y-100729074D01*
X153077419Y-100708250D01*
X153084651Y-100688038D01*
X153093830Y-100668632D01*
X153104866Y-100650219D01*
X153117654Y-100632976D01*
X153132070Y-100617070D01*
X153147976Y-100602654D01*
X153165219Y-100589866D01*
X153183632Y-100578830D01*
X153203038Y-100569651D01*
X153223250Y-100562419D01*
X153244074Y-100557203D01*
X153265309Y-100554053D01*
X153286750Y-100553000D01*
X153799250Y-100553000D01*
X153820691Y-100554053D01*
X153820691Y-100554053D01*
G37*
D11*
X153543000Y-100990500D03*
D10*
G36*
X153820691Y-98979053D02*
G01*
X153841926Y-98982203D01*
X153862750Y-98987419D01*
X153882962Y-98994651D01*
X153902368Y-99003830D01*
X153920781Y-99014866D01*
X153938024Y-99027654D01*
X153953930Y-99042070D01*
X153968346Y-99057976D01*
X153981134Y-99075219D01*
X153992170Y-99093632D01*
X154001349Y-99113038D01*
X154008581Y-99133250D01*
X154013797Y-99154074D01*
X154016947Y-99175309D01*
X154018000Y-99196750D01*
X154018000Y-99634250D01*
X154016947Y-99655691D01*
X154013797Y-99676926D01*
X154008581Y-99697750D01*
X154001349Y-99717962D01*
X153992170Y-99737368D01*
X153981134Y-99755781D01*
X153968346Y-99773024D01*
X153953930Y-99788930D01*
X153938024Y-99803346D01*
X153920781Y-99816134D01*
X153902368Y-99827170D01*
X153882962Y-99836349D01*
X153862750Y-99843581D01*
X153841926Y-99848797D01*
X153820691Y-99851947D01*
X153799250Y-99853000D01*
X153286750Y-99853000D01*
X153265309Y-99851947D01*
X153244074Y-99848797D01*
X153223250Y-99843581D01*
X153203038Y-99836349D01*
X153183632Y-99827170D01*
X153165219Y-99816134D01*
X153147976Y-99803346D01*
X153132070Y-99788930D01*
X153117654Y-99773024D01*
X153104866Y-99755781D01*
X153093830Y-99737368D01*
X153084651Y-99717962D01*
X153077419Y-99697750D01*
X153072203Y-99676926D01*
X153069053Y-99655691D01*
X153068000Y-99634250D01*
X153068000Y-99196750D01*
X153069053Y-99175309D01*
X153072203Y-99154074D01*
X153077419Y-99133250D01*
X153084651Y-99113038D01*
X153093830Y-99093632D01*
X153104866Y-99075219D01*
X153117654Y-99057976D01*
X153132070Y-99042070D01*
X153147976Y-99027654D01*
X153165219Y-99014866D01*
X153183632Y-99003830D01*
X153203038Y-98994651D01*
X153223250Y-98987419D01*
X153244074Y-98982203D01*
X153265309Y-98979053D01*
X153286750Y-98978000D01*
X153799250Y-98978000D01*
X153820691Y-98979053D01*
X153820691Y-98979053D01*
G37*
D11*
X153543000Y-99415500D03*
D10*
G36*
X155217691Y-100554053D02*
G01*
X155238926Y-100557203D01*
X155259750Y-100562419D01*
X155279962Y-100569651D01*
X155299368Y-100578830D01*
X155317781Y-100589866D01*
X155335024Y-100602654D01*
X155350930Y-100617070D01*
X155365346Y-100632976D01*
X155378134Y-100650219D01*
X155389170Y-100668632D01*
X155398349Y-100688038D01*
X155405581Y-100708250D01*
X155410797Y-100729074D01*
X155413947Y-100750309D01*
X155415000Y-100771750D01*
X155415000Y-101209250D01*
X155413947Y-101230691D01*
X155410797Y-101251926D01*
X155405581Y-101272750D01*
X155398349Y-101292962D01*
X155389170Y-101312368D01*
X155378134Y-101330781D01*
X155365346Y-101348024D01*
X155350930Y-101363930D01*
X155335024Y-101378346D01*
X155317781Y-101391134D01*
X155299368Y-101402170D01*
X155279962Y-101411349D01*
X155259750Y-101418581D01*
X155238926Y-101423797D01*
X155217691Y-101426947D01*
X155196250Y-101428000D01*
X154683750Y-101428000D01*
X154662309Y-101426947D01*
X154641074Y-101423797D01*
X154620250Y-101418581D01*
X154600038Y-101411349D01*
X154580632Y-101402170D01*
X154562219Y-101391134D01*
X154544976Y-101378346D01*
X154529070Y-101363930D01*
X154514654Y-101348024D01*
X154501866Y-101330781D01*
X154490830Y-101312368D01*
X154481651Y-101292962D01*
X154474419Y-101272750D01*
X154469203Y-101251926D01*
X154466053Y-101230691D01*
X154465000Y-101209250D01*
X154465000Y-100771750D01*
X154466053Y-100750309D01*
X154469203Y-100729074D01*
X154474419Y-100708250D01*
X154481651Y-100688038D01*
X154490830Y-100668632D01*
X154501866Y-100650219D01*
X154514654Y-100632976D01*
X154529070Y-100617070D01*
X154544976Y-100602654D01*
X154562219Y-100589866D01*
X154580632Y-100578830D01*
X154600038Y-100569651D01*
X154620250Y-100562419D01*
X154641074Y-100557203D01*
X154662309Y-100554053D01*
X154683750Y-100553000D01*
X155196250Y-100553000D01*
X155217691Y-100554053D01*
X155217691Y-100554053D01*
G37*
D11*
X154940000Y-100990500D03*
D10*
G36*
X155217691Y-98979053D02*
G01*
X155238926Y-98982203D01*
X155259750Y-98987419D01*
X155279962Y-98994651D01*
X155299368Y-99003830D01*
X155317781Y-99014866D01*
X155335024Y-99027654D01*
X155350930Y-99042070D01*
X155365346Y-99057976D01*
X155378134Y-99075219D01*
X155389170Y-99093632D01*
X155398349Y-99113038D01*
X155405581Y-99133250D01*
X155410797Y-99154074D01*
X155413947Y-99175309D01*
X155415000Y-99196750D01*
X155415000Y-99634250D01*
X155413947Y-99655691D01*
X155410797Y-99676926D01*
X155405581Y-99697750D01*
X155398349Y-99717962D01*
X155389170Y-99737368D01*
X155378134Y-99755781D01*
X155365346Y-99773024D01*
X155350930Y-99788930D01*
X155335024Y-99803346D01*
X155317781Y-99816134D01*
X155299368Y-99827170D01*
X155279962Y-99836349D01*
X155259750Y-99843581D01*
X155238926Y-99848797D01*
X155217691Y-99851947D01*
X155196250Y-99853000D01*
X154683750Y-99853000D01*
X154662309Y-99851947D01*
X154641074Y-99848797D01*
X154620250Y-99843581D01*
X154600038Y-99836349D01*
X154580632Y-99827170D01*
X154562219Y-99816134D01*
X154544976Y-99803346D01*
X154529070Y-99788930D01*
X154514654Y-99773024D01*
X154501866Y-99755781D01*
X154490830Y-99737368D01*
X154481651Y-99717962D01*
X154474419Y-99697750D01*
X154469203Y-99676926D01*
X154466053Y-99655691D01*
X154465000Y-99634250D01*
X154465000Y-99196750D01*
X154466053Y-99175309D01*
X154469203Y-99154074D01*
X154474419Y-99133250D01*
X154481651Y-99113038D01*
X154490830Y-99093632D01*
X154501866Y-99075219D01*
X154514654Y-99057976D01*
X154529070Y-99042070D01*
X154544976Y-99027654D01*
X154562219Y-99014866D01*
X154580632Y-99003830D01*
X154600038Y-98994651D01*
X154620250Y-98987419D01*
X154641074Y-98982203D01*
X154662309Y-98979053D01*
X154683750Y-98978000D01*
X155196250Y-98978000D01*
X155217691Y-98979053D01*
X155217691Y-98979053D01*
G37*
D11*
X154940000Y-99415500D03*
D10*
G36*
X156932691Y-98141553D02*
G01*
X156953926Y-98144703D01*
X156974750Y-98149919D01*
X156994962Y-98157151D01*
X157014368Y-98166330D01*
X157032781Y-98177366D01*
X157050024Y-98190154D01*
X157065930Y-98204570D01*
X157080346Y-98220476D01*
X157093134Y-98237719D01*
X157104170Y-98256132D01*
X157113349Y-98275538D01*
X157120581Y-98295750D01*
X157125797Y-98316574D01*
X157128947Y-98337809D01*
X157130000Y-98359250D01*
X157130000Y-98871750D01*
X157128947Y-98893191D01*
X157125797Y-98914426D01*
X157120581Y-98935250D01*
X157113349Y-98955462D01*
X157104170Y-98974868D01*
X157093134Y-98993281D01*
X157080346Y-99010524D01*
X157065930Y-99026430D01*
X157050024Y-99040846D01*
X157032781Y-99053634D01*
X157014368Y-99064670D01*
X156994962Y-99073849D01*
X156974750Y-99081081D01*
X156953926Y-99086297D01*
X156932691Y-99089447D01*
X156911250Y-99090500D01*
X156473750Y-99090500D01*
X156452309Y-99089447D01*
X156431074Y-99086297D01*
X156410250Y-99081081D01*
X156390038Y-99073849D01*
X156370632Y-99064670D01*
X156352219Y-99053634D01*
X156334976Y-99040846D01*
X156319070Y-99026430D01*
X156304654Y-99010524D01*
X156291866Y-98993281D01*
X156280830Y-98974868D01*
X156271651Y-98955462D01*
X156264419Y-98935250D01*
X156259203Y-98914426D01*
X156256053Y-98893191D01*
X156255000Y-98871750D01*
X156255000Y-98359250D01*
X156256053Y-98337809D01*
X156259203Y-98316574D01*
X156264419Y-98295750D01*
X156271651Y-98275538D01*
X156280830Y-98256132D01*
X156291866Y-98237719D01*
X156304654Y-98220476D01*
X156319070Y-98204570D01*
X156334976Y-98190154D01*
X156352219Y-98177366D01*
X156370632Y-98166330D01*
X156390038Y-98157151D01*
X156410250Y-98149919D01*
X156431074Y-98144703D01*
X156452309Y-98141553D01*
X156473750Y-98140500D01*
X156911250Y-98140500D01*
X156932691Y-98141553D01*
X156932691Y-98141553D01*
G37*
D11*
X156692500Y-98615500D03*
D10*
G36*
X158507691Y-98141553D02*
G01*
X158528926Y-98144703D01*
X158549750Y-98149919D01*
X158569962Y-98157151D01*
X158589368Y-98166330D01*
X158607781Y-98177366D01*
X158625024Y-98190154D01*
X158640930Y-98204570D01*
X158655346Y-98220476D01*
X158668134Y-98237719D01*
X158679170Y-98256132D01*
X158688349Y-98275538D01*
X158695581Y-98295750D01*
X158700797Y-98316574D01*
X158703947Y-98337809D01*
X158705000Y-98359250D01*
X158705000Y-98871750D01*
X158703947Y-98893191D01*
X158700797Y-98914426D01*
X158695581Y-98935250D01*
X158688349Y-98955462D01*
X158679170Y-98974868D01*
X158668134Y-98993281D01*
X158655346Y-99010524D01*
X158640930Y-99026430D01*
X158625024Y-99040846D01*
X158607781Y-99053634D01*
X158589368Y-99064670D01*
X158569962Y-99073849D01*
X158549750Y-99081081D01*
X158528926Y-99086297D01*
X158507691Y-99089447D01*
X158486250Y-99090500D01*
X158048750Y-99090500D01*
X158027309Y-99089447D01*
X158006074Y-99086297D01*
X157985250Y-99081081D01*
X157965038Y-99073849D01*
X157945632Y-99064670D01*
X157927219Y-99053634D01*
X157909976Y-99040846D01*
X157894070Y-99026430D01*
X157879654Y-99010524D01*
X157866866Y-98993281D01*
X157855830Y-98974868D01*
X157846651Y-98955462D01*
X157839419Y-98935250D01*
X157834203Y-98914426D01*
X157831053Y-98893191D01*
X157830000Y-98871750D01*
X157830000Y-98359250D01*
X157831053Y-98337809D01*
X157834203Y-98316574D01*
X157839419Y-98295750D01*
X157846651Y-98275538D01*
X157855830Y-98256132D01*
X157866866Y-98237719D01*
X157879654Y-98220476D01*
X157894070Y-98204570D01*
X157909976Y-98190154D01*
X157927219Y-98177366D01*
X157945632Y-98166330D01*
X157965038Y-98157151D01*
X157985250Y-98149919D01*
X158006074Y-98144703D01*
X158027309Y-98141553D01*
X158048750Y-98140500D01*
X158486250Y-98140500D01*
X158507691Y-98141553D01*
X158507691Y-98141553D01*
G37*
D11*
X158267500Y-98615500D03*
D10*
G36*
X158507691Y-96744553D02*
G01*
X158528926Y-96747703D01*
X158549750Y-96752919D01*
X158569962Y-96760151D01*
X158589368Y-96769330D01*
X158607781Y-96780366D01*
X158625024Y-96793154D01*
X158640930Y-96807570D01*
X158655346Y-96823476D01*
X158668134Y-96840719D01*
X158679170Y-96859132D01*
X158688349Y-96878538D01*
X158695581Y-96898750D01*
X158700797Y-96919574D01*
X158703947Y-96940809D01*
X158705000Y-96962250D01*
X158705000Y-97474750D01*
X158703947Y-97496191D01*
X158700797Y-97517426D01*
X158695581Y-97538250D01*
X158688349Y-97558462D01*
X158679170Y-97577868D01*
X158668134Y-97596281D01*
X158655346Y-97613524D01*
X158640930Y-97629430D01*
X158625024Y-97643846D01*
X158607781Y-97656634D01*
X158589368Y-97667670D01*
X158569962Y-97676849D01*
X158549750Y-97684081D01*
X158528926Y-97689297D01*
X158507691Y-97692447D01*
X158486250Y-97693500D01*
X158048750Y-97693500D01*
X158027309Y-97692447D01*
X158006074Y-97689297D01*
X157985250Y-97684081D01*
X157965038Y-97676849D01*
X157945632Y-97667670D01*
X157927219Y-97656634D01*
X157909976Y-97643846D01*
X157894070Y-97629430D01*
X157879654Y-97613524D01*
X157866866Y-97596281D01*
X157855830Y-97577868D01*
X157846651Y-97558462D01*
X157839419Y-97538250D01*
X157834203Y-97517426D01*
X157831053Y-97496191D01*
X157830000Y-97474750D01*
X157830000Y-96962250D01*
X157831053Y-96940809D01*
X157834203Y-96919574D01*
X157839419Y-96898750D01*
X157846651Y-96878538D01*
X157855830Y-96859132D01*
X157866866Y-96840719D01*
X157879654Y-96823476D01*
X157894070Y-96807570D01*
X157909976Y-96793154D01*
X157927219Y-96780366D01*
X157945632Y-96769330D01*
X157965038Y-96760151D01*
X157985250Y-96752919D01*
X158006074Y-96747703D01*
X158027309Y-96744553D01*
X158048750Y-96743500D01*
X158486250Y-96743500D01*
X158507691Y-96744553D01*
X158507691Y-96744553D01*
G37*
D11*
X158267500Y-97218500D03*
D10*
G36*
X156932691Y-96744553D02*
G01*
X156953926Y-96747703D01*
X156974750Y-96752919D01*
X156994962Y-96760151D01*
X157014368Y-96769330D01*
X157032781Y-96780366D01*
X157050024Y-96793154D01*
X157065930Y-96807570D01*
X157080346Y-96823476D01*
X157093134Y-96840719D01*
X157104170Y-96859132D01*
X157113349Y-96878538D01*
X157120581Y-96898750D01*
X157125797Y-96919574D01*
X157128947Y-96940809D01*
X157130000Y-96962250D01*
X157130000Y-97474750D01*
X157128947Y-97496191D01*
X157125797Y-97517426D01*
X157120581Y-97538250D01*
X157113349Y-97558462D01*
X157104170Y-97577868D01*
X157093134Y-97596281D01*
X157080346Y-97613524D01*
X157065930Y-97629430D01*
X157050024Y-97643846D01*
X157032781Y-97656634D01*
X157014368Y-97667670D01*
X156994962Y-97676849D01*
X156974750Y-97684081D01*
X156953926Y-97689297D01*
X156932691Y-97692447D01*
X156911250Y-97693500D01*
X156473750Y-97693500D01*
X156452309Y-97692447D01*
X156431074Y-97689297D01*
X156410250Y-97684081D01*
X156390038Y-97676849D01*
X156370632Y-97667670D01*
X156352219Y-97656634D01*
X156334976Y-97643846D01*
X156319070Y-97629430D01*
X156304654Y-97613524D01*
X156291866Y-97596281D01*
X156280830Y-97577868D01*
X156271651Y-97558462D01*
X156264419Y-97538250D01*
X156259203Y-97517426D01*
X156256053Y-97496191D01*
X156255000Y-97474750D01*
X156255000Y-96962250D01*
X156256053Y-96940809D01*
X156259203Y-96919574D01*
X156264419Y-96898750D01*
X156271651Y-96878538D01*
X156280830Y-96859132D01*
X156291866Y-96840719D01*
X156304654Y-96823476D01*
X156319070Y-96807570D01*
X156334976Y-96793154D01*
X156352219Y-96780366D01*
X156370632Y-96769330D01*
X156390038Y-96760151D01*
X156410250Y-96752919D01*
X156431074Y-96747703D01*
X156452309Y-96744553D01*
X156473750Y-96743500D01*
X156911250Y-96743500D01*
X156932691Y-96744553D01*
X156932691Y-96744553D01*
G37*
D11*
X156692500Y-97218500D03*
D10*
G36*
X160932691Y-96756553D02*
G01*
X160953926Y-96759703D01*
X160974750Y-96764919D01*
X160994962Y-96772151D01*
X161014368Y-96781330D01*
X161032781Y-96792366D01*
X161050024Y-96805154D01*
X161065930Y-96819570D01*
X161080346Y-96835476D01*
X161093134Y-96852719D01*
X161104170Y-96871132D01*
X161113349Y-96890538D01*
X161120581Y-96910750D01*
X161125797Y-96931574D01*
X161128947Y-96952809D01*
X161130000Y-96974250D01*
X161130000Y-97411750D01*
X161128947Y-97433191D01*
X161125797Y-97454426D01*
X161120581Y-97475250D01*
X161113349Y-97495462D01*
X161104170Y-97514868D01*
X161093134Y-97533281D01*
X161080346Y-97550524D01*
X161065930Y-97566430D01*
X161050024Y-97580846D01*
X161032781Y-97593634D01*
X161014368Y-97604670D01*
X160994962Y-97613849D01*
X160974750Y-97621081D01*
X160953926Y-97626297D01*
X160932691Y-97629447D01*
X160911250Y-97630500D01*
X160398750Y-97630500D01*
X160377309Y-97629447D01*
X160356074Y-97626297D01*
X160335250Y-97621081D01*
X160315038Y-97613849D01*
X160295632Y-97604670D01*
X160277219Y-97593634D01*
X160259976Y-97580846D01*
X160244070Y-97566430D01*
X160229654Y-97550524D01*
X160216866Y-97533281D01*
X160205830Y-97514868D01*
X160196651Y-97495462D01*
X160189419Y-97475250D01*
X160184203Y-97454426D01*
X160181053Y-97433191D01*
X160180000Y-97411750D01*
X160180000Y-96974250D01*
X160181053Y-96952809D01*
X160184203Y-96931574D01*
X160189419Y-96910750D01*
X160196651Y-96890538D01*
X160205830Y-96871132D01*
X160216866Y-96852719D01*
X160229654Y-96835476D01*
X160244070Y-96819570D01*
X160259976Y-96805154D01*
X160277219Y-96792366D01*
X160295632Y-96781330D01*
X160315038Y-96772151D01*
X160335250Y-96764919D01*
X160356074Y-96759703D01*
X160377309Y-96756553D01*
X160398750Y-96755500D01*
X160911250Y-96755500D01*
X160932691Y-96756553D01*
X160932691Y-96756553D01*
G37*
D11*
X160655000Y-97193000D03*
D10*
G36*
X160932691Y-98331553D02*
G01*
X160953926Y-98334703D01*
X160974750Y-98339919D01*
X160994962Y-98347151D01*
X161014368Y-98356330D01*
X161032781Y-98367366D01*
X161050024Y-98380154D01*
X161065930Y-98394570D01*
X161080346Y-98410476D01*
X161093134Y-98427719D01*
X161104170Y-98446132D01*
X161113349Y-98465538D01*
X161120581Y-98485750D01*
X161125797Y-98506574D01*
X161128947Y-98527809D01*
X161130000Y-98549250D01*
X161130000Y-98986750D01*
X161128947Y-99008191D01*
X161125797Y-99029426D01*
X161120581Y-99050250D01*
X161113349Y-99070462D01*
X161104170Y-99089868D01*
X161093134Y-99108281D01*
X161080346Y-99125524D01*
X161065930Y-99141430D01*
X161050024Y-99155846D01*
X161032781Y-99168634D01*
X161014368Y-99179670D01*
X160994962Y-99188849D01*
X160974750Y-99196081D01*
X160953926Y-99201297D01*
X160932691Y-99204447D01*
X160911250Y-99205500D01*
X160398750Y-99205500D01*
X160377309Y-99204447D01*
X160356074Y-99201297D01*
X160335250Y-99196081D01*
X160315038Y-99188849D01*
X160295632Y-99179670D01*
X160277219Y-99168634D01*
X160259976Y-99155846D01*
X160244070Y-99141430D01*
X160229654Y-99125524D01*
X160216866Y-99108281D01*
X160205830Y-99089868D01*
X160196651Y-99070462D01*
X160189419Y-99050250D01*
X160184203Y-99029426D01*
X160181053Y-99008191D01*
X160180000Y-98986750D01*
X160180000Y-98549250D01*
X160181053Y-98527809D01*
X160184203Y-98506574D01*
X160189419Y-98485750D01*
X160196651Y-98465538D01*
X160205830Y-98446132D01*
X160216866Y-98427719D01*
X160229654Y-98410476D01*
X160244070Y-98394570D01*
X160259976Y-98380154D01*
X160277219Y-98367366D01*
X160295632Y-98356330D01*
X160315038Y-98347151D01*
X160335250Y-98339919D01*
X160356074Y-98334703D01*
X160377309Y-98331553D01*
X160398750Y-98330500D01*
X160911250Y-98330500D01*
X160932691Y-98331553D01*
X160932691Y-98331553D01*
G37*
D11*
X160655000Y-98768000D03*
D12*
X157480000Y-114300000D03*
D10*
G36*
X158754504Y-91906204D02*
G01*
X158778773Y-91909804D01*
X158802571Y-91915765D01*
X158825671Y-91924030D01*
X158847849Y-91934520D01*
X158868893Y-91947133D01*
X158888598Y-91961747D01*
X158906777Y-91978223D01*
X158923253Y-91996402D01*
X158937867Y-92016107D01*
X158950480Y-92037151D01*
X158960970Y-92059329D01*
X158969235Y-92082429D01*
X158975196Y-92106227D01*
X158978796Y-92130496D01*
X158980000Y-92155000D01*
X158980000Y-95155000D01*
X158978796Y-95179504D01*
X158975196Y-95203773D01*
X158969235Y-95227571D01*
X158960970Y-95250671D01*
X158950480Y-95272849D01*
X158937867Y-95293893D01*
X158923253Y-95313598D01*
X158906777Y-95331777D01*
X158888598Y-95348253D01*
X158868893Y-95362867D01*
X158847849Y-95375480D01*
X158825671Y-95385970D01*
X158802571Y-95394235D01*
X158778773Y-95400196D01*
X158754504Y-95403796D01*
X158730000Y-95405000D01*
X158230000Y-95405000D01*
X158205496Y-95403796D01*
X158181227Y-95400196D01*
X158157429Y-95394235D01*
X158134329Y-95385970D01*
X158112151Y-95375480D01*
X158091107Y-95362867D01*
X158071402Y-95348253D01*
X158053223Y-95331777D01*
X158036747Y-95313598D01*
X158022133Y-95293893D01*
X158009520Y-95272849D01*
X157999030Y-95250671D01*
X157990765Y-95227571D01*
X157984804Y-95203773D01*
X157981204Y-95179504D01*
X157980000Y-95155000D01*
X157980000Y-92155000D01*
X157981204Y-92130496D01*
X157984804Y-92106227D01*
X157990765Y-92082429D01*
X157999030Y-92059329D01*
X158009520Y-92037151D01*
X158022133Y-92016107D01*
X158036747Y-91996402D01*
X158053223Y-91978223D01*
X158071402Y-91961747D01*
X158091107Y-91947133D01*
X158112151Y-91934520D01*
X158134329Y-91924030D01*
X158157429Y-91915765D01*
X158181227Y-91909804D01*
X158205496Y-91906204D01*
X158230000Y-91905000D01*
X158730000Y-91905000D01*
X158754504Y-91906204D01*
X158754504Y-91906204D01*
G37*
D13*
X158480000Y-93655000D03*
D10*
G36*
X156754504Y-91906204D02*
G01*
X156778773Y-91909804D01*
X156802571Y-91915765D01*
X156825671Y-91924030D01*
X156847849Y-91934520D01*
X156868893Y-91947133D01*
X156888598Y-91961747D01*
X156906777Y-91978223D01*
X156923253Y-91996402D01*
X156937867Y-92016107D01*
X156950480Y-92037151D01*
X156960970Y-92059329D01*
X156969235Y-92082429D01*
X156975196Y-92106227D01*
X156978796Y-92130496D01*
X156980000Y-92155000D01*
X156980000Y-95155000D01*
X156978796Y-95179504D01*
X156975196Y-95203773D01*
X156969235Y-95227571D01*
X156960970Y-95250671D01*
X156950480Y-95272849D01*
X156937867Y-95293893D01*
X156923253Y-95313598D01*
X156906777Y-95331777D01*
X156888598Y-95348253D01*
X156868893Y-95362867D01*
X156847849Y-95375480D01*
X156825671Y-95385970D01*
X156802571Y-95394235D01*
X156778773Y-95400196D01*
X156754504Y-95403796D01*
X156730000Y-95405000D01*
X156230000Y-95405000D01*
X156205496Y-95403796D01*
X156181227Y-95400196D01*
X156157429Y-95394235D01*
X156134329Y-95385970D01*
X156112151Y-95375480D01*
X156091107Y-95362867D01*
X156071402Y-95348253D01*
X156053223Y-95331777D01*
X156036747Y-95313598D01*
X156022133Y-95293893D01*
X156009520Y-95272849D01*
X155999030Y-95250671D01*
X155990765Y-95227571D01*
X155984804Y-95203773D01*
X155981204Y-95179504D01*
X155980000Y-95155000D01*
X155980000Y-92155000D01*
X155981204Y-92130496D01*
X155984804Y-92106227D01*
X155990765Y-92082429D01*
X155999030Y-92059329D01*
X156009520Y-92037151D01*
X156022133Y-92016107D01*
X156036747Y-91996402D01*
X156053223Y-91978223D01*
X156071402Y-91961747D01*
X156091107Y-91947133D01*
X156112151Y-91934520D01*
X156134329Y-91924030D01*
X156157429Y-91915765D01*
X156181227Y-91909804D01*
X156205496Y-91906204D01*
X156230000Y-91905000D01*
X156730000Y-91905000D01*
X156754504Y-91906204D01*
X156754504Y-91906204D01*
G37*
D13*
X156480000Y-93655000D03*
D10*
G36*
X161354504Y-86206204D02*
G01*
X161378773Y-86209804D01*
X161402571Y-86215765D01*
X161425671Y-86224030D01*
X161447849Y-86234520D01*
X161468893Y-86247133D01*
X161488598Y-86261747D01*
X161506777Y-86278223D01*
X161523253Y-86296402D01*
X161537867Y-86316107D01*
X161550480Y-86337151D01*
X161560970Y-86359329D01*
X161569235Y-86382429D01*
X161575196Y-86406227D01*
X161578796Y-86430496D01*
X161580000Y-86455000D01*
X161580000Y-89355000D01*
X161578796Y-89379504D01*
X161575196Y-89403773D01*
X161569235Y-89427571D01*
X161560970Y-89450671D01*
X161550480Y-89472849D01*
X161537867Y-89493893D01*
X161523253Y-89513598D01*
X161506777Y-89531777D01*
X161488598Y-89548253D01*
X161468893Y-89562867D01*
X161447849Y-89575480D01*
X161425671Y-89585970D01*
X161402571Y-89594235D01*
X161378773Y-89600196D01*
X161354504Y-89603796D01*
X161330000Y-89605000D01*
X160330000Y-89605000D01*
X160305496Y-89603796D01*
X160281227Y-89600196D01*
X160257429Y-89594235D01*
X160234329Y-89585970D01*
X160212151Y-89575480D01*
X160191107Y-89562867D01*
X160171402Y-89548253D01*
X160153223Y-89531777D01*
X160136747Y-89513598D01*
X160122133Y-89493893D01*
X160109520Y-89472849D01*
X160099030Y-89450671D01*
X160090765Y-89427571D01*
X160084804Y-89403773D01*
X160081204Y-89379504D01*
X160080000Y-89355000D01*
X160080000Y-86455000D01*
X160081204Y-86430496D01*
X160084804Y-86406227D01*
X160090765Y-86382429D01*
X160099030Y-86359329D01*
X160109520Y-86337151D01*
X160122133Y-86316107D01*
X160136747Y-86296402D01*
X160153223Y-86278223D01*
X160171402Y-86261747D01*
X160191107Y-86247133D01*
X160212151Y-86234520D01*
X160234329Y-86224030D01*
X160257429Y-86215765D01*
X160281227Y-86209804D01*
X160305496Y-86206204D01*
X160330000Y-86205000D01*
X161330000Y-86205000D01*
X161354504Y-86206204D01*
X161354504Y-86206204D01*
G37*
D14*
X160830000Y-87905000D03*
D10*
G36*
X154654504Y-86206204D02*
G01*
X154678773Y-86209804D01*
X154702571Y-86215765D01*
X154725671Y-86224030D01*
X154747849Y-86234520D01*
X154768893Y-86247133D01*
X154788598Y-86261747D01*
X154806777Y-86278223D01*
X154823253Y-86296402D01*
X154837867Y-86316107D01*
X154850480Y-86337151D01*
X154860970Y-86359329D01*
X154869235Y-86382429D01*
X154875196Y-86406227D01*
X154878796Y-86430496D01*
X154880000Y-86455000D01*
X154880000Y-89355000D01*
X154878796Y-89379504D01*
X154875196Y-89403773D01*
X154869235Y-89427571D01*
X154860970Y-89450671D01*
X154850480Y-89472849D01*
X154837867Y-89493893D01*
X154823253Y-89513598D01*
X154806777Y-89531777D01*
X154788598Y-89548253D01*
X154768893Y-89562867D01*
X154747849Y-89575480D01*
X154725671Y-89585970D01*
X154702571Y-89594235D01*
X154678773Y-89600196D01*
X154654504Y-89603796D01*
X154630000Y-89605000D01*
X153630000Y-89605000D01*
X153605496Y-89603796D01*
X153581227Y-89600196D01*
X153557429Y-89594235D01*
X153534329Y-89585970D01*
X153512151Y-89575480D01*
X153491107Y-89562867D01*
X153471402Y-89548253D01*
X153453223Y-89531777D01*
X153436747Y-89513598D01*
X153422133Y-89493893D01*
X153409520Y-89472849D01*
X153399030Y-89450671D01*
X153390765Y-89427571D01*
X153384804Y-89403773D01*
X153381204Y-89379504D01*
X153380000Y-89355000D01*
X153380000Y-86455000D01*
X153381204Y-86430496D01*
X153384804Y-86406227D01*
X153390765Y-86382429D01*
X153399030Y-86359329D01*
X153409520Y-86337151D01*
X153422133Y-86316107D01*
X153436747Y-86296402D01*
X153453223Y-86278223D01*
X153471402Y-86261747D01*
X153491107Y-86247133D01*
X153512151Y-86234520D01*
X153534329Y-86224030D01*
X153557429Y-86215765D01*
X153581227Y-86209804D01*
X153605496Y-86206204D01*
X153630000Y-86205000D01*
X154630000Y-86205000D01*
X154654504Y-86206204D01*
X154654504Y-86206204D01*
G37*
D14*
X154130000Y-87905000D03*
D15*
X151130000Y-105410000D03*
D16*
X151130000Y-102870000D03*
X151130000Y-100330000D03*
X151130000Y-97790000D03*
X163830000Y-97790000D03*
X163830000Y-100330000D03*
X163830000Y-102870000D03*
D15*
X163830000Y-105410000D03*
D17*
X156367000Y-105537000D03*
D10*
G36*
X156367000Y-104787602D02*
G01*
X156391534Y-104787602D01*
X156440365Y-104792412D01*
X156488490Y-104801984D01*
X156535445Y-104816228D01*
X156580778Y-104835005D01*
X156624051Y-104858136D01*
X156664850Y-104885396D01*
X156702779Y-104916524D01*
X156737476Y-104951221D01*
X156768604Y-104989150D01*
X156795864Y-105029949D01*
X156818995Y-105073222D01*
X156837772Y-105118555D01*
X156852016Y-105165510D01*
X156861588Y-105213635D01*
X156866398Y-105262466D01*
X156866398Y-105287000D01*
X156867000Y-105287000D01*
X156867000Y-105787000D01*
X156866398Y-105787000D01*
X156866398Y-105811534D01*
X156861588Y-105860365D01*
X156852016Y-105908490D01*
X156837772Y-105955445D01*
X156818995Y-106000778D01*
X156795864Y-106044051D01*
X156768604Y-106084850D01*
X156737476Y-106122779D01*
X156702779Y-106157476D01*
X156664850Y-106188604D01*
X156624051Y-106215864D01*
X156580778Y-106238995D01*
X156535445Y-106257772D01*
X156488490Y-106272016D01*
X156440365Y-106281588D01*
X156391534Y-106286398D01*
X156367000Y-106286398D01*
X156367000Y-106287000D01*
X155817000Y-106287000D01*
X155817000Y-104787000D01*
X156367000Y-104787000D01*
X156367000Y-104787602D01*
X156367000Y-104787602D01*
G37*
D18*
X155067000Y-105537000D03*
D17*
X153767000Y-105537000D03*
D10*
G36*
X154317000Y-106287000D02*
G01*
X153767000Y-106287000D01*
X153767000Y-106286398D01*
X153742466Y-106286398D01*
X153693635Y-106281588D01*
X153645510Y-106272016D01*
X153598555Y-106257772D01*
X153553222Y-106238995D01*
X153509949Y-106215864D01*
X153469150Y-106188604D01*
X153431221Y-106157476D01*
X153396524Y-106122779D01*
X153365396Y-106084850D01*
X153338136Y-106044051D01*
X153315005Y-106000778D01*
X153296228Y-105955445D01*
X153281984Y-105908490D01*
X153272412Y-105860365D01*
X153267602Y-105811534D01*
X153267602Y-105787000D01*
X153267000Y-105787000D01*
X153267000Y-105287000D01*
X153267602Y-105287000D01*
X153267602Y-105262466D01*
X153272412Y-105213635D01*
X153281984Y-105165510D01*
X153296228Y-105118555D01*
X153315005Y-105073222D01*
X153338136Y-105029949D01*
X153365396Y-104989150D01*
X153396524Y-104951221D01*
X153431221Y-104916524D01*
X153469150Y-104885396D01*
X153509949Y-104858136D01*
X153553222Y-104835005D01*
X153598555Y-104816228D01*
X153645510Y-104801984D01*
X153693635Y-104792412D01*
X153742466Y-104787602D01*
X153767000Y-104787602D01*
X153767000Y-104787000D01*
X154317000Y-104787000D01*
X154317000Y-106287000D01*
X154317000Y-106287000D01*
G37*
D17*
X161193000Y-105537000D03*
D10*
G36*
X160643000Y-104787000D02*
G01*
X161193000Y-104787000D01*
X161193000Y-104787602D01*
X161217534Y-104787602D01*
X161266365Y-104792412D01*
X161314490Y-104801984D01*
X161361445Y-104816228D01*
X161406778Y-104835005D01*
X161450051Y-104858136D01*
X161490850Y-104885396D01*
X161528779Y-104916524D01*
X161563476Y-104951221D01*
X161594604Y-104989150D01*
X161621864Y-105029949D01*
X161644995Y-105073222D01*
X161663772Y-105118555D01*
X161678016Y-105165510D01*
X161687588Y-105213635D01*
X161692398Y-105262466D01*
X161692398Y-105287000D01*
X161693000Y-105287000D01*
X161693000Y-105787000D01*
X161692398Y-105787000D01*
X161692398Y-105811534D01*
X161687588Y-105860365D01*
X161678016Y-105908490D01*
X161663772Y-105955445D01*
X161644995Y-106000778D01*
X161621864Y-106044051D01*
X161594604Y-106084850D01*
X161563476Y-106122779D01*
X161528779Y-106157476D01*
X161490850Y-106188604D01*
X161450051Y-106215864D01*
X161406778Y-106238995D01*
X161361445Y-106257772D01*
X161314490Y-106272016D01*
X161266365Y-106281588D01*
X161217534Y-106286398D01*
X161193000Y-106286398D01*
X161193000Y-106287000D01*
X160643000Y-106287000D01*
X160643000Y-104787000D01*
X160643000Y-104787000D01*
G37*
D18*
X159893000Y-105537000D03*
D17*
X158593000Y-105537000D03*
D10*
G36*
X158593000Y-106286398D02*
G01*
X158568466Y-106286398D01*
X158519635Y-106281588D01*
X158471510Y-106272016D01*
X158424555Y-106257772D01*
X158379222Y-106238995D01*
X158335949Y-106215864D01*
X158295150Y-106188604D01*
X158257221Y-106157476D01*
X158222524Y-106122779D01*
X158191396Y-106084850D01*
X158164136Y-106044051D01*
X158141005Y-106000778D01*
X158122228Y-105955445D01*
X158107984Y-105908490D01*
X158098412Y-105860365D01*
X158093602Y-105811534D01*
X158093602Y-105787000D01*
X158093000Y-105787000D01*
X158093000Y-105287000D01*
X158093602Y-105287000D01*
X158093602Y-105262466D01*
X158098412Y-105213635D01*
X158107984Y-105165510D01*
X158122228Y-105118555D01*
X158141005Y-105073222D01*
X158164136Y-105029949D01*
X158191396Y-104989150D01*
X158222524Y-104951221D01*
X158257221Y-104916524D01*
X158295150Y-104885396D01*
X158335949Y-104858136D01*
X158379222Y-104835005D01*
X158424555Y-104816228D01*
X158471510Y-104801984D01*
X158519635Y-104792412D01*
X158568466Y-104787602D01*
X158593000Y-104787602D01*
X158593000Y-104787000D01*
X159143000Y-104787000D01*
X159143000Y-106287000D01*
X158593000Y-106287000D01*
X158593000Y-106286398D01*
X158593000Y-106286398D01*
G37*
D17*
X163957000Y-114315000D03*
D10*
G36*
X164706398Y-114315000D02*
G01*
X164706398Y-114339534D01*
X164701588Y-114388365D01*
X164692016Y-114436490D01*
X164677772Y-114483445D01*
X164658995Y-114528778D01*
X164635864Y-114572051D01*
X164608604Y-114612850D01*
X164577476Y-114650779D01*
X164542779Y-114685476D01*
X164504850Y-114716604D01*
X164464051Y-114743864D01*
X164420778Y-114766995D01*
X164375445Y-114785772D01*
X164328490Y-114800016D01*
X164280365Y-114809588D01*
X164231534Y-114814398D01*
X164207000Y-114814398D01*
X164207000Y-114815000D01*
X163707000Y-114815000D01*
X163707000Y-114814398D01*
X163682466Y-114814398D01*
X163633635Y-114809588D01*
X163585510Y-114800016D01*
X163538555Y-114785772D01*
X163493222Y-114766995D01*
X163449949Y-114743864D01*
X163409150Y-114716604D01*
X163371221Y-114685476D01*
X163336524Y-114650779D01*
X163305396Y-114612850D01*
X163278136Y-114572051D01*
X163255005Y-114528778D01*
X163236228Y-114483445D01*
X163221984Y-114436490D01*
X163212412Y-114388365D01*
X163207602Y-114339534D01*
X163207602Y-114315000D01*
X163207000Y-114315000D01*
X163207000Y-113815000D01*
X164707000Y-113815000D01*
X164707000Y-114315000D01*
X164706398Y-114315000D01*
X164706398Y-114315000D01*
G37*
D17*
X163957000Y-113015000D03*
D10*
G36*
X163207000Y-113515000D02*
G01*
X163207000Y-113015000D01*
X163207602Y-113015000D01*
X163207602Y-112990466D01*
X163212412Y-112941635D01*
X163221984Y-112893510D01*
X163236228Y-112846555D01*
X163255005Y-112801222D01*
X163278136Y-112757949D01*
X163305396Y-112717150D01*
X163336524Y-112679221D01*
X163371221Y-112644524D01*
X163409150Y-112613396D01*
X163449949Y-112586136D01*
X163493222Y-112563005D01*
X163538555Y-112544228D01*
X163585510Y-112529984D01*
X163633635Y-112520412D01*
X163682466Y-112515602D01*
X163707000Y-112515602D01*
X163707000Y-112515000D01*
X164207000Y-112515000D01*
X164207000Y-112515602D01*
X164231534Y-112515602D01*
X164280365Y-112520412D01*
X164328490Y-112529984D01*
X164375445Y-112544228D01*
X164420778Y-112563005D01*
X164464051Y-112586136D01*
X164504850Y-112613396D01*
X164542779Y-112644524D01*
X164577476Y-112679221D01*
X164608604Y-112717150D01*
X164635864Y-112757949D01*
X164658995Y-112801222D01*
X164677772Y-112846555D01*
X164692016Y-112893510D01*
X164701588Y-112941635D01*
X164706398Y-112990466D01*
X164706398Y-113015000D01*
X164707000Y-113015000D01*
X164707000Y-113515000D01*
X163207000Y-113515000D01*
X163207000Y-113515000D01*
G37*
D19*
X151447500Y-109447500D03*
D10*
G36*
X151447500Y-110447500D02*
G01*
X150697500Y-109947500D01*
X150697500Y-108947500D01*
X152197500Y-108947500D01*
X152197500Y-109947500D01*
X151447500Y-110447500D01*
X151447500Y-110447500D01*
G37*
D19*
X151447500Y-110897500D03*
D10*
G36*
X150697500Y-111397500D02*
G01*
X150697500Y-110247500D01*
X151447500Y-110747500D01*
X152197500Y-110247500D01*
X152197500Y-111397500D01*
X150697500Y-111397500D01*
X150697500Y-111397500D01*
G37*
D19*
X153860500Y-110897500D03*
D10*
G36*
X153110500Y-111397500D02*
G01*
X153110500Y-110247500D01*
X153860500Y-110747500D01*
X154610500Y-110247500D01*
X154610500Y-111397500D01*
X153110500Y-111397500D01*
X153110500Y-111397500D01*
G37*
D19*
X153860500Y-109447500D03*
D10*
G36*
X153860500Y-110447500D02*
G01*
X153110500Y-109947500D01*
X153110500Y-108947500D01*
X154610500Y-108947500D01*
X154610500Y-109947500D01*
X153860500Y-110447500D01*
X153860500Y-110447500D01*
G37*
D19*
X156273500Y-110897500D03*
D10*
G36*
X155523500Y-111397500D02*
G01*
X155523500Y-110247500D01*
X156273500Y-110747500D01*
X157023500Y-110247500D01*
X157023500Y-111397500D01*
X155523500Y-111397500D01*
X155523500Y-111397500D01*
G37*
D19*
X156273500Y-109447500D03*
D10*
G36*
X156273500Y-110447500D02*
G01*
X155523500Y-109947500D01*
X155523500Y-108947500D01*
X157023500Y-108947500D01*
X157023500Y-109947500D01*
X156273500Y-110447500D01*
X156273500Y-110447500D01*
G37*
D19*
X158686500Y-109447500D03*
D10*
G36*
X158686500Y-110447500D02*
G01*
X157936500Y-109947500D01*
X157936500Y-108947500D01*
X159436500Y-108947500D01*
X159436500Y-109947500D01*
X158686500Y-110447500D01*
X158686500Y-110447500D01*
G37*
D19*
X158686500Y-110897500D03*
D10*
G36*
X157936500Y-111397500D02*
G01*
X157936500Y-110247500D01*
X158686500Y-110747500D01*
X159436500Y-110247500D01*
X159436500Y-111397500D01*
X157936500Y-111397500D01*
X157936500Y-111397500D01*
G37*
D19*
X161099500Y-109447500D03*
D10*
G36*
X161099500Y-110447500D02*
G01*
X160349500Y-109947500D01*
X160349500Y-108947500D01*
X161849500Y-108947500D01*
X161849500Y-109947500D01*
X161099500Y-110447500D01*
X161099500Y-110447500D01*
G37*
D19*
X161099500Y-110897500D03*
D10*
G36*
X160349500Y-111397500D02*
G01*
X160349500Y-110247500D01*
X161099500Y-110747500D01*
X161849500Y-110247500D01*
X161849500Y-111397500D01*
X160349500Y-111397500D01*
X160349500Y-111397500D01*
G37*
D19*
X163512500Y-110897500D03*
D10*
G36*
X162762500Y-111397500D02*
G01*
X162762500Y-110247500D01*
X163512500Y-110747500D01*
X164262500Y-110247500D01*
X164262500Y-111397500D01*
X162762500Y-111397500D01*
X162762500Y-111397500D01*
G37*
D19*
X163512500Y-109447500D03*
D10*
G36*
X163512500Y-110447500D02*
G01*
X162762500Y-109947500D01*
X162762500Y-108947500D01*
X164262500Y-108947500D01*
X164262500Y-109947500D01*
X163512500Y-110447500D01*
X163512500Y-110447500D01*
G37*
G36*
X161325193Y-101720246D02*
G01*
X161340239Y-101722478D01*
X161354994Y-101726174D01*
X161369316Y-101731299D01*
X161383066Y-101737802D01*
X161396113Y-101745622D01*
X161408331Y-101754683D01*
X161419602Y-101764898D01*
X161429817Y-101776169D01*
X161438878Y-101788387D01*
X161446698Y-101801434D01*
X161453201Y-101815184D01*
X161458326Y-101829506D01*
X161462022Y-101844261D01*
X161464254Y-101859307D01*
X161465000Y-101874500D01*
X161465000Y-102184500D01*
X161464254Y-102199693D01*
X161462022Y-102214739D01*
X161458326Y-102229494D01*
X161453201Y-102243816D01*
X161446698Y-102257566D01*
X161438878Y-102270613D01*
X161429817Y-102282831D01*
X161419602Y-102294102D01*
X161408331Y-102304317D01*
X161396113Y-102313378D01*
X161383066Y-102321198D01*
X161369316Y-102327701D01*
X161354994Y-102332826D01*
X161340239Y-102336522D01*
X161325193Y-102338754D01*
X161310000Y-102339500D01*
X160000000Y-102339500D01*
X159984807Y-102338754D01*
X159969761Y-102336522D01*
X159955006Y-102332826D01*
X159940684Y-102327701D01*
X159926934Y-102321198D01*
X159913887Y-102313378D01*
X159901669Y-102304317D01*
X159890398Y-102294102D01*
X159880183Y-102282831D01*
X159871122Y-102270613D01*
X159863302Y-102257566D01*
X159856799Y-102243816D01*
X159851674Y-102229494D01*
X159847978Y-102214739D01*
X159845746Y-102199693D01*
X159845000Y-102184500D01*
X159845000Y-101874500D01*
X159845746Y-101859307D01*
X159847978Y-101844261D01*
X159851674Y-101829506D01*
X159856799Y-101815184D01*
X159863302Y-101801434D01*
X159871122Y-101788387D01*
X159880183Y-101776169D01*
X159890398Y-101764898D01*
X159901669Y-101754683D01*
X159913887Y-101745622D01*
X159926934Y-101737802D01*
X159940684Y-101731299D01*
X159955006Y-101726174D01*
X159969761Y-101722478D01*
X159984807Y-101720246D01*
X160000000Y-101719500D01*
X161310000Y-101719500D01*
X161325193Y-101720246D01*
X161325193Y-101720246D01*
G37*
D20*
X160655000Y-102029500D03*
D10*
G36*
X161325193Y-99845246D02*
G01*
X161340239Y-99847478D01*
X161354994Y-99851174D01*
X161369316Y-99856299D01*
X161383066Y-99862802D01*
X161396113Y-99870622D01*
X161408331Y-99879683D01*
X161419602Y-99889898D01*
X161429817Y-99901169D01*
X161438878Y-99913387D01*
X161446698Y-99926434D01*
X161453201Y-99940184D01*
X161458326Y-99954506D01*
X161462022Y-99969261D01*
X161464254Y-99984307D01*
X161465000Y-99999500D01*
X161465000Y-100309500D01*
X161464254Y-100324693D01*
X161462022Y-100339739D01*
X161458326Y-100354494D01*
X161453201Y-100368816D01*
X161446698Y-100382566D01*
X161438878Y-100395613D01*
X161429817Y-100407831D01*
X161419602Y-100419102D01*
X161408331Y-100429317D01*
X161396113Y-100438378D01*
X161383066Y-100446198D01*
X161369316Y-100452701D01*
X161354994Y-100457826D01*
X161340239Y-100461522D01*
X161325193Y-100463754D01*
X161310000Y-100464500D01*
X160000000Y-100464500D01*
X159984807Y-100463754D01*
X159969761Y-100461522D01*
X159955006Y-100457826D01*
X159940684Y-100452701D01*
X159926934Y-100446198D01*
X159913887Y-100438378D01*
X159901669Y-100429317D01*
X159890398Y-100419102D01*
X159880183Y-100407831D01*
X159871122Y-100395613D01*
X159863302Y-100382566D01*
X159856799Y-100368816D01*
X159851674Y-100354494D01*
X159847978Y-100339739D01*
X159845746Y-100324693D01*
X159845000Y-100309500D01*
X159845000Y-99999500D01*
X159845746Y-99984307D01*
X159847978Y-99969261D01*
X159851674Y-99954506D01*
X159856799Y-99940184D01*
X159863302Y-99926434D01*
X159871122Y-99913387D01*
X159880183Y-99901169D01*
X159890398Y-99889898D01*
X159901669Y-99879683D01*
X159913887Y-99870622D01*
X159926934Y-99862802D01*
X159940684Y-99856299D01*
X159955006Y-99851174D01*
X159969761Y-99847478D01*
X159984807Y-99845246D01*
X160000000Y-99844500D01*
X161310000Y-99844500D01*
X161325193Y-99845246D01*
X161325193Y-99845246D01*
G37*
D20*
X160655000Y-100154500D03*
D10*
G36*
X151344191Y-114143053D02*
G01*
X151365426Y-114146203D01*
X151386250Y-114151419D01*
X151406462Y-114158651D01*
X151425868Y-114167830D01*
X151444281Y-114178866D01*
X151461524Y-114191654D01*
X151477430Y-114206070D01*
X151491846Y-114221976D01*
X151504634Y-114239219D01*
X151515670Y-114257632D01*
X151524849Y-114277038D01*
X151532081Y-114297250D01*
X151537297Y-114318074D01*
X151540447Y-114339309D01*
X151541500Y-114360750D01*
X151541500Y-114798250D01*
X151540447Y-114819691D01*
X151537297Y-114840926D01*
X151532081Y-114861750D01*
X151524849Y-114881962D01*
X151515670Y-114901368D01*
X151504634Y-114919781D01*
X151491846Y-114937024D01*
X151477430Y-114952930D01*
X151461524Y-114967346D01*
X151444281Y-114980134D01*
X151425868Y-114991170D01*
X151406462Y-115000349D01*
X151386250Y-115007581D01*
X151365426Y-115012797D01*
X151344191Y-115015947D01*
X151322750Y-115017000D01*
X150810250Y-115017000D01*
X150788809Y-115015947D01*
X150767574Y-115012797D01*
X150746750Y-115007581D01*
X150726538Y-115000349D01*
X150707132Y-114991170D01*
X150688719Y-114980134D01*
X150671476Y-114967346D01*
X150655570Y-114952930D01*
X150641154Y-114937024D01*
X150628366Y-114919781D01*
X150617330Y-114901368D01*
X150608151Y-114881962D01*
X150600919Y-114861750D01*
X150595703Y-114840926D01*
X150592553Y-114819691D01*
X150591500Y-114798250D01*
X150591500Y-114360750D01*
X150592553Y-114339309D01*
X150595703Y-114318074D01*
X150600919Y-114297250D01*
X150608151Y-114277038D01*
X150617330Y-114257632D01*
X150628366Y-114239219D01*
X150641154Y-114221976D01*
X150655570Y-114206070D01*
X150671476Y-114191654D01*
X150688719Y-114178866D01*
X150707132Y-114167830D01*
X150726538Y-114158651D01*
X150746750Y-114151419D01*
X150767574Y-114146203D01*
X150788809Y-114143053D01*
X150810250Y-114142000D01*
X151322750Y-114142000D01*
X151344191Y-114143053D01*
X151344191Y-114143053D01*
G37*
D11*
X151066500Y-114579500D03*
D10*
G36*
X151344191Y-112568053D02*
G01*
X151365426Y-112571203D01*
X151386250Y-112576419D01*
X151406462Y-112583651D01*
X151425868Y-112592830D01*
X151444281Y-112603866D01*
X151461524Y-112616654D01*
X151477430Y-112631070D01*
X151491846Y-112646976D01*
X151504634Y-112664219D01*
X151515670Y-112682632D01*
X151524849Y-112702038D01*
X151532081Y-112722250D01*
X151537297Y-112743074D01*
X151540447Y-112764309D01*
X151541500Y-112785750D01*
X151541500Y-113223250D01*
X151540447Y-113244691D01*
X151537297Y-113265926D01*
X151532081Y-113286750D01*
X151524849Y-113306962D01*
X151515670Y-113326368D01*
X151504634Y-113344781D01*
X151491846Y-113362024D01*
X151477430Y-113377930D01*
X151461524Y-113392346D01*
X151444281Y-113405134D01*
X151425868Y-113416170D01*
X151406462Y-113425349D01*
X151386250Y-113432581D01*
X151365426Y-113437797D01*
X151344191Y-113440947D01*
X151322750Y-113442000D01*
X150810250Y-113442000D01*
X150788809Y-113440947D01*
X150767574Y-113437797D01*
X150746750Y-113432581D01*
X150726538Y-113425349D01*
X150707132Y-113416170D01*
X150688719Y-113405134D01*
X150671476Y-113392346D01*
X150655570Y-113377930D01*
X150641154Y-113362024D01*
X150628366Y-113344781D01*
X150617330Y-113326368D01*
X150608151Y-113306962D01*
X150600919Y-113286750D01*
X150595703Y-113265926D01*
X150592553Y-113244691D01*
X150591500Y-113223250D01*
X150591500Y-112785750D01*
X150592553Y-112764309D01*
X150595703Y-112743074D01*
X150600919Y-112722250D01*
X150608151Y-112702038D01*
X150617330Y-112682632D01*
X150628366Y-112664219D01*
X150641154Y-112646976D01*
X150655570Y-112631070D01*
X150671476Y-112616654D01*
X150688719Y-112603866D01*
X150707132Y-112592830D01*
X150726538Y-112583651D01*
X150746750Y-112576419D01*
X150767574Y-112571203D01*
X150788809Y-112568053D01*
X150810250Y-112567000D01*
X151322750Y-112567000D01*
X151344191Y-112568053D01*
X151344191Y-112568053D01*
G37*
D11*
X151066500Y-113004500D03*
D10*
G36*
X152804691Y-112568053D02*
G01*
X152825926Y-112571203D01*
X152846750Y-112576419D01*
X152866962Y-112583651D01*
X152886368Y-112592830D01*
X152904781Y-112603866D01*
X152922024Y-112616654D01*
X152937930Y-112631070D01*
X152952346Y-112646976D01*
X152965134Y-112664219D01*
X152976170Y-112682632D01*
X152985349Y-112702038D01*
X152992581Y-112722250D01*
X152997797Y-112743074D01*
X153000947Y-112764309D01*
X153002000Y-112785750D01*
X153002000Y-113223250D01*
X153000947Y-113244691D01*
X152997797Y-113265926D01*
X152992581Y-113286750D01*
X152985349Y-113306962D01*
X152976170Y-113326368D01*
X152965134Y-113344781D01*
X152952346Y-113362024D01*
X152937930Y-113377930D01*
X152922024Y-113392346D01*
X152904781Y-113405134D01*
X152886368Y-113416170D01*
X152866962Y-113425349D01*
X152846750Y-113432581D01*
X152825926Y-113437797D01*
X152804691Y-113440947D01*
X152783250Y-113442000D01*
X152270750Y-113442000D01*
X152249309Y-113440947D01*
X152228074Y-113437797D01*
X152207250Y-113432581D01*
X152187038Y-113425349D01*
X152167632Y-113416170D01*
X152149219Y-113405134D01*
X152131976Y-113392346D01*
X152116070Y-113377930D01*
X152101654Y-113362024D01*
X152088866Y-113344781D01*
X152077830Y-113326368D01*
X152068651Y-113306962D01*
X152061419Y-113286750D01*
X152056203Y-113265926D01*
X152053053Y-113244691D01*
X152052000Y-113223250D01*
X152052000Y-112785750D01*
X152053053Y-112764309D01*
X152056203Y-112743074D01*
X152061419Y-112722250D01*
X152068651Y-112702038D01*
X152077830Y-112682632D01*
X152088866Y-112664219D01*
X152101654Y-112646976D01*
X152116070Y-112631070D01*
X152131976Y-112616654D01*
X152149219Y-112603866D01*
X152167632Y-112592830D01*
X152187038Y-112583651D01*
X152207250Y-112576419D01*
X152228074Y-112571203D01*
X152249309Y-112568053D01*
X152270750Y-112567000D01*
X152783250Y-112567000D01*
X152804691Y-112568053D01*
X152804691Y-112568053D01*
G37*
D11*
X152527000Y-113004500D03*
D10*
G36*
X152804691Y-114143053D02*
G01*
X152825926Y-114146203D01*
X152846750Y-114151419D01*
X152866962Y-114158651D01*
X152886368Y-114167830D01*
X152904781Y-114178866D01*
X152922024Y-114191654D01*
X152937930Y-114206070D01*
X152952346Y-114221976D01*
X152965134Y-114239219D01*
X152976170Y-114257632D01*
X152985349Y-114277038D01*
X152992581Y-114297250D01*
X152997797Y-114318074D01*
X153000947Y-114339309D01*
X153002000Y-114360750D01*
X153002000Y-114798250D01*
X153000947Y-114819691D01*
X152997797Y-114840926D01*
X152992581Y-114861750D01*
X152985349Y-114881962D01*
X152976170Y-114901368D01*
X152965134Y-114919781D01*
X152952346Y-114937024D01*
X152937930Y-114952930D01*
X152922024Y-114967346D01*
X152904781Y-114980134D01*
X152886368Y-114991170D01*
X152866962Y-115000349D01*
X152846750Y-115007581D01*
X152825926Y-115012797D01*
X152804691Y-115015947D01*
X152783250Y-115017000D01*
X152270750Y-115017000D01*
X152249309Y-115015947D01*
X152228074Y-115012797D01*
X152207250Y-115007581D01*
X152187038Y-115000349D01*
X152167632Y-114991170D01*
X152149219Y-114980134D01*
X152131976Y-114967346D01*
X152116070Y-114952930D01*
X152101654Y-114937024D01*
X152088866Y-114919781D01*
X152077830Y-114901368D01*
X152068651Y-114881962D01*
X152061419Y-114861750D01*
X152056203Y-114840926D01*
X152053053Y-114819691D01*
X152052000Y-114798250D01*
X152052000Y-114360750D01*
X152053053Y-114339309D01*
X152056203Y-114318074D01*
X152061419Y-114297250D01*
X152068651Y-114277038D01*
X152077830Y-114257632D01*
X152088866Y-114239219D01*
X152101654Y-114221976D01*
X152116070Y-114206070D01*
X152131976Y-114191654D01*
X152149219Y-114178866D01*
X152167632Y-114167830D01*
X152187038Y-114158651D01*
X152207250Y-114151419D01*
X152228074Y-114146203D01*
X152249309Y-114143053D01*
X152270750Y-114142000D01*
X152783250Y-114142000D01*
X152804691Y-114143053D01*
X152804691Y-114143053D01*
G37*
D11*
X152527000Y-114579500D03*
D10*
G36*
X154265191Y-114143053D02*
G01*
X154286426Y-114146203D01*
X154307250Y-114151419D01*
X154327462Y-114158651D01*
X154346868Y-114167830D01*
X154365281Y-114178866D01*
X154382524Y-114191654D01*
X154398430Y-114206070D01*
X154412846Y-114221976D01*
X154425634Y-114239219D01*
X154436670Y-114257632D01*
X154445849Y-114277038D01*
X154453081Y-114297250D01*
X154458297Y-114318074D01*
X154461447Y-114339309D01*
X154462500Y-114360750D01*
X154462500Y-114798250D01*
X154461447Y-114819691D01*
X154458297Y-114840926D01*
X154453081Y-114861750D01*
X154445849Y-114881962D01*
X154436670Y-114901368D01*
X154425634Y-114919781D01*
X154412846Y-114937024D01*
X154398430Y-114952930D01*
X154382524Y-114967346D01*
X154365281Y-114980134D01*
X154346868Y-114991170D01*
X154327462Y-115000349D01*
X154307250Y-115007581D01*
X154286426Y-115012797D01*
X154265191Y-115015947D01*
X154243750Y-115017000D01*
X153731250Y-115017000D01*
X153709809Y-115015947D01*
X153688574Y-115012797D01*
X153667750Y-115007581D01*
X153647538Y-115000349D01*
X153628132Y-114991170D01*
X153609719Y-114980134D01*
X153592476Y-114967346D01*
X153576570Y-114952930D01*
X153562154Y-114937024D01*
X153549366Y-114919781D01*
X153538330Y-114901368D01*
X153529151Y-114881962D01*
X153521919Y-114861750D01*
X153516703Y-114840926D01*
X153513553Y-114819691D01*
X153512500Y-114798250D01*
X153512500Y-114360750D01*
X153513553Y-114339309D01*
X153516703Y-114318074D01*
X153521919Y-114297250D01*
X153529151Y-114277038D01*
X153538330Y-114257632D01*
X153549366Y-114239219D01*
X153562154Y-114221976D01*
X153576570Y-114206070D01*
X153592476Y-114191654D01*
X153609719Y-114178866D01*
X153628132Y-114167830D01*
X153647538Y-114158651D01*
X153667750Y-114151419D01*
X153688574Y-114146203D01*
X153709809Y-114143053D01*
X153731250Y-114142000D01*
X154243750Y-114142000D01*
X154265191Y-114143053D01*
X154265191Y-114143053D01*
G37*
D11*
X153987500Y-114579500D03*
D10*
G36*
X154265191Y-112568053D02*
G01*
X154286426Y-112571203D01*
X154307250Y-112576419D01*
X154327462Y-112583651D01*
X154346868Y-112592830D01*
X154365281Y-112603866D01*
X154382524Y-112616654D01*
X154398430Y-112631070D01*
X154412846Y-112646976D01*
X154425634Y-112664219D01*
X154436670Y-112682632D01*
X154445849Y-112702038D01*
X154453081Y-112722250D01*
X154458297Y-112743074D01*
X154461447Y-112764309D01*
X154462500Y-112785750D01*
X154462500Y-113223250D01*
X154461447Y-113244691D01*
X154458297Y-113265926D01*
X154453081Y-113286750D01*
X154445849Y-113306962D01*
X154436670Y-113326368D01*
X154425634Y-113344781D01*
X154412846Y-113362024D01*
X154398430Y-113377930D01*
X154382524Y-113392346D01*
X154365281Y-113405134D01*
X154346868Y-113416170D01*
X154327462Y-113425349D01*
X154307250Y-113432581D01*
X154286426Y-113437797D01*
X154265191Y-113440947D01*
X154243750Y-113442000D01*
X153731250Y-113442000D01*
X153709809Y-113440947D01*
X153688574Y-113437797D01*
X153667750Y-113432581D01*
X153647538Y-113425349D01*
X153628132Y-113416170D01*
X153609719Y-113405134D01*
X153592476Y-113392346D01*
X153576570Y-113377930D01*
X153562154Y-113362024D01*
X153549366Y-113344781D01*
X153538330Y-113326368D01*
X153529151Y-113306962D01*
X153521919Y-113286750D01*
X153516703Y-113265926D01*
X153513553Y-113244691D01*
X153512500Y-113223250D01*
X153512500Y-112785750D01*
X153513553Y-112764309D01*
X153516703Y-112743074D01*
X153521919Y-112722250D01*
X153529151Y-112702038D01*
X153538330Y-112682632D01*
X153549366Y-112664219D01*
X153562154Y-112646976D01*
X153576570Y-112631070D01*
X153592476Y-112616654D01*
X153609719Y-112603866D01*
X153628132Y-112592830D01*
X153647538Y-112583651D01*
X153667750Y-112576419D01*
X153688574Y-112571203D01*
X153709809Y-112568053D01*
X153731250Y-112567000D01*
X154243750Y-112567000D01*
X154265191Y-112568053D01*
X154265191Y-112568053D01*
G37*
D11*
X153987500Y-113004500D03*
D10*
G36*
X160996191Y-112568053D02*
G01*
X161017426Y-112571203D01*
X161038250Y-112576419D01*
X161058462Y-112583651D01*
X161077868Y-112592830D01*
X161096281Y-112603866D01*
X161113524Y-112616654D01*
X161129430Y-112631070D01*
X161143846Y-112646976D01*
X161156634Y-112664219D01*
X161167670Y-112682632D01*
X161176849Y-112702038D01*
X161184081Y-112722250D01*
X161189297Y-112743074D01*
X161192447Y-112764309D01*
X161193500Y-112785750D01*
X161193500Y-113223250D01*
X161192447Y-113244691D01*
X161189297Y-113265926D01*
X161184081Y-113286750D01*
X161176849Y-113306962D01*
X161167670Y-113326368D01*
X161156634Y-113344781D01*
X161143846Y-113362024D01*
X161129430Y-113377930D01*
X161113524Y-113392346D01*
X161096281Y-113405134D01*
X161077868Y-113416170D01*
X161058462Y-113425349D01*
X161038250Y-113432581D01*
X161017426Y-113437797D01*
X160996191Y-113440947D01*
X160974750Y-113442000D01*
X160462250Y-113442000D01*
X160440809Y-113440947D01*
X160419574Y-113437797D01*
X160398750Y-113432581D01*
X160378538Y-113425349D01*
X160359132Y-113416170D01*
X160340719Y-113405134D01*
X160323476Y-113392346D01*
X160307570Y-113377930D01*
X160293154Y-113362024D01*
X160280366Y-113344781D01*
X160269330Y-113326368D01*
X160260151Y-113306962D01*
X160252919Y-113286750D01*
X160247703Y-113265926D01*
X160244553Y-113244691D01*
X160243500Y-113223250D01*
X160243500Y-112785750D01*
X160244553Y-112764309D01*
X160247703Y-112743074D01*
X160252919Y-112722250D01*
X160260151Y-112702038D01*
X160269330Y-112682632D01*
X160280366Y-112664219D01*
X160293154Y-112646976D01*
X160307570Y-112631070D01*
X160323476Y-112616654D01*
X160340719Y-112603866D01*
X160359132Y-112592830D01*
X160378538Y-112583651D01*
X160398750Y-112576419D01*
X160419574Y-112571203D01*
X160440809Y-112568053D01*
X160462250Y-112567000D01*
X160974750Y-112567000D01*
X160996191Y-112568053D01*
X160996191Y-112568053D01*
G37*
D11*
X160718500Y-113004500D03*
D10*
G36*
X160996191Y-114143053D02*
G01*
X161017426Y-114146203D01*
X161038250Y-114151419D01*
X161058462Y-114158651D01*
X161077868Y-114167830D01*
X161096281Y-114178866D01*
X161113524Y-114191654D01*
X161129430Y-114206070D01*
X161143846Y-114221976D01*
X161156634Y-114239219D01*
X161167670Y-114257632D01*
X161176849Y-114277038D01*
X161184081Y-114297250D01*
X161189297Y-114318074D01*
X161192447Y-114339309D01*
X161193500Y-114360750D01*
X161193500Y-114798250D01*
X161192447Y-114819691D01*
X161189297Y-114840926D01*
X161184081Y-114861750D01*
X161176849Y-114881962D01*
X161167670Y-114901368D01*
X161156634Y-114919781D01*
X161143846Y-114937024D01*
X161129430Y-114952930D01*
X161113524Y-114967346D01*
X161096281Y-114980134D01*
X161077868Y-114991170D01*
X161058462Y-115000349D01*
X161038250Y-115007581D01*
X161017426Y-115012797D01*
X160996191Y-115015947D01*
X160974750Y-115017000D01*
X160462250Y-115017000D01*
X160440809Y-115015947D01*
X160419574Y-115012797D01*
X160398750Y-115007581D01*
X160378538Y-115000349D01*
X160359132Y-114991170D01*
X160340719Y-114980134D01*
X160323476Y-114967346D01*
X160307570Y-114952930D01*
X160293154Y-114937024D01*
X160280366Y-114919781D01*
X160269330Y-114901368D01*
X160260151Y-114881962D01*
X160252919Y-114861750D01*
X160247703Y-114840926D01*
X160244553Y-114819691D01*
X160243500Y-114798250D01*
X160243500Y-114360750D01*
X160244553Y-114339309D01*
X160247703Y-114318074D01*
X160252919Y-114297250D01*
X160260151Y-114277038D01*
X160269330Y-114257632D01*
X160280366Y-114239219D01*
X160293154Y-114221976D01*
X160307570Y-114206070D01*
X160323476Y-114191654D01*
X160340719Y-114178866D01*
X160359132Y-114167830D01*
X160378538Y-114158651D01*
X160398750Y-114151419D01*
X160419574Y-114146203D01*
X160440809Y-114143053D01*
X160462250Y-114142000D01*
X160974750Y-114142000D01*
X160996191Y-114143053D01*
X160996191Y-114143053D01*
G37*
D11*
X160718500Y-114579500D03*
D10*
G36*
X162393191Y-114143053D02*
G01*
X162414426Y-114146203D01*
X162435250Y-114151419D01*
X162455462Y-114158651D01*
X162474868Y-114167830D01*
X162493281Y-114178866D01*
X162510524Y-114191654D01*
X162526430Y-114206070D01*
X162540846Y-114221976D01*
X162553634Y-114239219D01*
X162564670Y-114257632D01*
X162573849Y-114277038D01*
X162581081Y-114297250D01*
X162586297Y-114318074D01*
X162589447Y-114339309D01*
X162590500Y-114360750D01*
X162590500Y-114798250D01*
X162589447Y-114819691D01*
X162586297Y-114840926D01*
X162581081Y-114861750D01*
X162573849Y-114881962D01*
X162564670Y-114901368D01*
X162553634Y-114919781D01*
X162540846Y-114937024D01*
X162526430Y-114952930D01*
X162510524Y-114967346D01*
X162493281Y-114980134D01*
X162474868Y-114991170D01*
X162455462Y-115000349D01*
X162435250Y-115007581D01*
X162414426Y-115012797D01*
X162393191Y-115015947D01*
X162371750Y-115017000D01*
X161859250Y-115017000D01*
X161837809Y-115015947D01*
X161816574Y-115012797D01*
X161795750Y-115007581D01*
X161775538Y-115000349D01*
X161756132Y-114991170D01*
X161737719Y-114980134D01*
X161720476Y-114967346D01*
X161704570Y-114952930D01*
X161690154Y-114937024D01*
X161677366Y-114919781D01*
X161666330Y-114901368D01*
X161657151Y-114881962D01*
X161649919Y-114861750D01*
X161644703Y-114840926D01*
X161641553Y-114819691D01*
X161640500Y-114798250D01*
X161640500Y-114360750D01*
X161641553Y-114339309D01*
X161644703Y-114318074D01*
X161649919Y-114297250D01*
X161657151Y-114277038D01*
X161666330Y-114257632D01*
X161677366Y-114239219D01*
X161690154Y-114221976D01*
X161704570Y-114206070D01*
X161720476Y-114191654D01*
X161737719Y-114178866D01*
X161756132Y-114167830D01*
X161775538Y-114158651D01*
X161795750Y-114151419D01*
X161816574Y-114146203D01*
X161837809Y-114143053D01*
X161859250Y-114142000D01*
X162371750Y-114142000D01*
X162393191Y-114143053D01*
X162393191Y-114143053D01*
G37*
D11*
X162115500Y-114579500D03*
D10*
G36*
X162393191Y-112568053D02*
G01*
X162414426Y-112571203D01*
X162435250Y-112576419D01*
X162455462Y-112583651D01*
X162474868Y-112592830D01*
X162493281Y-112603866D01*
X162510524Y-112616654D01*
X162526430Y-112631070D01*
X162540846Y-112646976D01*
X162553634Y-112664219D01*
X162564670Y-112682632D01*
X162573849Y-112702038D01*
X162581081Y-112722250D01*
X162586297Y-112743074D01*
X162589447Y-112764309D01*
X162590500Y-112785750D01*
X162590500Y-113223250D01*
X162589447Y-113244691D01*
X162586297Y-113265926D01*
X162581081Y-113286750D01*
X162573849Y-113306962D01*
X162564670Y-113326368D01*
X162553634Y-113344781D01*
X162540846Y-113362024D01*
X162526430Y-113377930D01*
X162510524Y-113392346D01*
X162493281Y-113405134D01*
X162474868Y-113416170D01*
X162455462Y-113425349D01*
X162435250Y-113432581D01*
X162414426Y-113437797D01*
X162393191Y-113440947D01*
X162371750Y-113442000D01*
X161859250Y-113442000D01*
X161837809Y-113440947D01*
X161816574Y-113437797D01*
X161795750Y-113432581D01*
X161775538Y-113425349D01*
X161756132Y-113416170D01*
X161737719Y-113405134D01*
X161720476Y-113392346D01*
X161704570Y-113377930D01*
X161690154Y-113362024D01*
X161677366Y-113344781D01*
X161666330Y-113326368D01*
X161657151Y-113306962D01*
X161649919Y-113286750D01*
X161644703Y-113265926D01*
X161641553Y-113244691D01*
X161640500Y-113223250D01*
X161640500Y-112785750D01*
X161641553Y-112764309D01*
X161644703Y-112743074D01*
X161649919Y-112722250D01*
X161657151Y-112702038D01*
X161666330Y-112682632D01*
X161677366Y-112664219D01*
X161690154Y-112646976D01*
X161704570Y-112631070D01*
X161720476Y-112616654D01*
X161737719Y-112603866D01*
X161756132Y-112592830D01*
X161775538Y-112583651D01*
X161795750Y-112576419D01*
X161816574Y-112571203D01*
X161837809Y-112568053D01*
X161859250Y-112567000D01*
X162371750Y-112567000D01*
X162393191Y-112568053D01*
X162393191Y-112568053D01*
G37*
D11*
X162115500Y-113004500D03*
D10*
G36*
X157058626Y-101721301D02*
G01*
X157064693Y-101722201D01*
X157070643Y-101723691D01*
X157076418Y-101725758D01*
X157081962Y-101728380D01*
X157087223Y-101731533D01*
X157092150Y-101735187D01*
X157096694Y-101739306D01*
X157100813Y-101743850D01*
X157104467Y-101748777D01*
X157107620Y-101754038D01*
X157110242Y-101759582D01*
X157112309Y-101765357D01*
X157113799Y-101771307D01*
X157114699Y-101777374D01*
X157115000Y-101783500D01*
X157115000Y-101908500D01*
X157114699Y-101914626D01*
X157113799Y-101920693D01*
X157112309Y-101926643D01*
X157110242Y-101932418D01*
X157107620Y-101937962D01*
X157104467Y-101943223D01*
X157100813Y-101948150D01*
X157096694Y-101952694D01*
X157092150Y-101956813D01*
X157087223Y-101960467D01*
X157081962Y-101963620D01*
X157076418Y-101966242D01*
X157070643Y-101968309D01*
X157064693Y-101969799D01*
X157058626Y-101970699D01*
X157052500Y-101971000D01*
X156577500Y-101971000D01*
X156571374Y-101970699D01*
X156565307Y-101969799D01*
X156559357Y-101968309D01*
X156553582Y-101966242D01*
X156548038Y-101963620D01*
X156542777Y-101960467D01*
X156537850Y-101956813D01*
X156533306Y-101952694D01*
X156529187Y-101948150D01*
X156525533Y-101943223D01*
X156522380Y-101937962D01*
X156519758Y-101932418D01*
X156517691Y-101926643D01*
X156516201Y-101920693D01*
X156515301Y-101914626D01*
X156515000Y-101908500D01*
X156515000Y-101783500D01*
X156515301Y-101777374D01*
X156516201Y-101771307D01*
X156517691Y-101765357D01*
X156519758Y-101759582D01*
X156522380Y-101754038D01*
X156525533Y-101748777D01*
X156529187Y-101743850D01*
X156533306Y-101739306D01*
X156537850Y-101735187D01*
X156542777Y-101731533D01*
X156548038Y-101728380D01*
X156553582Y-101725758D01*
X156559357Y-101723691D01*
X156565307Y-101722201D01*
X156571374Y-101721301D01*
X156577500Y-101721000D01*
X157052500Y-101721000D01*
X157058626Y-101721301D01*
X157058626Y-101721301D01*
G37*
D21*
X156815000Y-101846000D03*
D10*
G36*
X158358626Y-101221301D02*
G01*
X158364693Y-101222201D01*
X158370643Y-101223691D01*
X158376418Y-101225758D01*
X158381962Y-101228380D01*
X158387223Y-101231533D01*
X158392150Y-101235187D01*
X158396694Y-101239306D01*
X158400813Y-101243850D01*
X158404467Y-101248777D01*
X158407620Y-101254038D01*
X158410242Y-101259582D01*
X158412309Y-101265357D01*
X158413799Y-101271307D01*
X158414699Y-101277374D01*
X158415000Y-101283500D01*
X158415000Y-101408500D01*
X158414699Y-101414626D01*
X158413799Y-101420693D01*
X158412309Y-101426643D01*
X158410242Y-101432418D01*
X158407620Y-101437962D01*
X158404467Y-101443223D01*
X158400813Y-101448150D01*
X158396694Y-101452694D01*
X158392150Y-101456813D01*
X158387223Y-101460467D01*
X158381962Y-101463620D01*
X158376418Y-101466242D01*
X158370643Y-101468309D01*
X158364693Y-101469799D01*
X158358626Y-101470699D01*
X158352500Y-101471000D01*
X157877500Y-101471000D01*
X157871374Y-101470699D01*
X157865307Y-101469799D01*
X157859357Y-101468309D01*
X157853582Y-101466242D01*
X157848038Y-101463620D01*
X157842777Y-101460467D01*
X157837850Y-101456813D01*
X157833306Y-101452694D01*
X157829187Y-101448150D01*
X157825533Y-101443223D01*
X157822380Y-101437962D01*
X157819758Y-101432418D01*
X157817691Y-101426643D01*
X157816201Y-101420693D01*
X157815301Y-101414626D01*
X157815000Y-101408500D01*
X157815000Y-101283500D01*
X157815301Y-101277374D01*
X157816201Y-101271307D01*
X157817691Y-101265357D01*
X157819758Y-101259582D01*
X157822380Y-101254038D01*
X157825533Y-101248777D01*
X157829187Y-101243850D01*
X157833306Y-101239306D01*
X157837850Y-101235187D01*
X157842777Y-101231533D01*
X157848038Y-101228380D01*
X157853582Y-101225758D01*
X157859357Y-101223691D01*
X157865307Y-101222201D01*
X157871374Y-101221301D01*
X157877500Y-101221000D01*
X158352500Y-101221000D01*
X158358626Y-101221301D01*
X158358626Y-101221301D01*
G37*
D21*
X158115000Y-101346000D03*
D10*
G36*
X158358626Y-100721301D02*
G01*
X158364693Y-100722201D01*
X158370643Y-100723691D01*
X158376418Y-100725758D01*
X158381962Y-100728380D01*
X158387223Y-100731533D01*
X158392150Y-100735187D01*
X158396694Y-100739306D01*
X158400813Y-100743850D01*
X158404467Y-100748777D01*
X158407620Y-100754038D01*
X158410242Y-100759582D01*
X158412309Y-100765357D01*
X158413799Y-100771307D01*
X158414699Y-100777374D01*
X158415000Y-100783500D01*
X158415000Y-100908500D01*
X158414699Y-100914626D01*
X158413799Y-100920693D01*
X158412309Y-100926643D01*
X158410242Y-100932418D01*
X158407620Y-100937962D01*
X158404467Y-100943223D01*
X158400813Y-100948150D01*
X158396694Y-100952694D01*
X158392150Y-100956813D01*
X158387223Y-100960467D01*
X158381962Y-100963620D01*
X158376418Y-100966242D01*
X158370643Y-100968309D01*
X158364693Y-100969799D01*
X158358626Y-100970699D01*
X158352500Y-100971000D01*
X157877500Y-100971000D01*
X157871374Y-100970699D01*
X157865307Y-100969799D01*
X157859357Y-100968309D01*
X157853582Y-100966242D01*
X157848038Y-100963620D01*
X157842777Y-100960467D01*
X157837850Y-100956813D01*
X157833306Y-100952694D01*
X157829187Y-100948150D01*
X157825533Y-100943223D01*
X157822380Y-100937962D01*
X157819758Y-100932418D01*
X157817691Y-100926643D01*
X157816201Y-100920693D01*
X157815301Y-100914626D01*
X157815000Y-100908500D01*
X157815000Y-100783500D01*
X157815301Y-100777374D01*
X157816201Y-100771307D01*
X157817691Y-100765357D01*
X157819758Y-100759582D01*
X157822380Y-100754038D01*
X157825533Y-100748777D01*
X157829187Y-100743850D01*
X157833306Y-100739306D01*
X157837850Y-100735187D01*
X157842777Y-100731533D01*
X157848038Y-100728380D01*
X157853582Y-100725758D01*
X157859357Y-100723691D01*
X157865307Y-100722201D01*
X157871374Y-100721301D01*
X157877500Y-100721000D01*
X158352500Y-100721000D01*
X158358626Y-100721301D01*
X158358626Y-100721301D01*
G37*
D21*
X158115000Y-100846000D03*
D10*
G36*
X157058626Y-100721301D02*
G01*
X157064693Y-100722201D01*
X157070643Y-100723691D01*
X157076418Y-100725758D01*
X157081962Y-100728380D01*
X157087223Y-100731533D01*
X157092150Y-100735187D01*
X157096694Y-100739306D01*
X157100813Y-100743850D01*
X157104467Y-100748777D01*
X157107620Y-100754038D01*
X157110242Y-100759582D01*
X157112309Y-100765357D01*
X157113799Y-100771307D01*
X157114699Y-100777374D01*
X157115000Y-100783500D01*
X157115000Y-100908500D01*
X157114699Y-100914626D01*
X157113799Y-100920693D01*
X157112309Y-100926643D01*
X157110242Y-100932418D01*
X157107620Y-100937962D01*
X157104467Y-100943223D01*
X157100813Y-100948150D01*
X157096694Y-100952694D01*
X157092150Y-100956813D01*
X157087223Y-100960467D01*
X157081962Y-100963620D01*
X157076418Y-100966242D01*
X157070643Y-100968309D01*
X157064693Y-100969799D01*
X157058626Y-100970699D01*
X157052500Y-100971000D01*
X156577500Y-100971000D01*
X156571374Y-100970699D01*
X156565307Y-100969799D01*
X156559357Y-100968309D01*
X156553582Y-100966242D01*
X156548038Y-100963620D01*
X156542777Y-100960467D01*
X156537850Y-100956813D01*
X156533306Y-100952694D01*
X156529187Y-100948150D01*
X156525533Y-100943223D01*
X156522380Y-100937962D01*
X156519758Y-100932418D01*
X156517691Y-100926643D01*
X156516201Y-100920693D01*
X156515301Y-100914626D01*
X156515000Y-100908500D01*
X156515000Y-100783500D01*
X156515301Y-100777374D01*
X156516201Y-100771307D01*
X156517691Y-100765357D01*
X156519758Y-100759582D01*
X156522380Y-100754038D01*
X156525533Y-100748777D01*
X156529187Y-100743850D01*
X156533306Y-100739306D01*
X156537850Y-100735187D01*
X156542777Y-100731533D01*
X156548038Y-100728380D01*
X156553582Y-100725758D01*
X156559357Y-100723691D01*
X156565307Y-100722201D01*
X156571374Y-100721301D01*
X156577500Y-100721000D01*
X157052500Y-100721000D01*
X157058626Y-100721301D01*
X157058626Y-100721301D01*
G37*
D21*
X156815000Y-100846000D03*
D10*
G36*
X157058626Y-101221301D02*
G01*
X157064693Y-101222201D01*
X157070643Y-101223691D01*
X157076418Y-101225758D01*
X157081962Y-101228380D01*
X157087223Y-101231533D01*
X157092150Y-101235187D01*
X157096694Y-101239306D01*
X157100813Y-101243850D01*
X157104467Y-101248777D01*
X157107620Y-101254038D01*
X157110242Y-101259582D01*
X157112309Y-101265357D01*
X157113799Y-101271307D01*
X157114699Y-101277374D01*
X157115000Y-101283500D01*
X157115000Y-101408500D01*
X157114699Y-101414626D01*
X157113799Y-101420693D01*
X157112309Y-101426643D01*
X157110242Y-101432418D01*
X157107620Y-101437962D01*
X157104467Y-101443223D01*
X157100813Y-101448150D01*
X157096694Y-101452694D01*
X157092150Y-101456813D01*
X157087223Y-101460467D01*
X157081962Y-101463620D01*
X157076418Y-101466242D01*
X157070643Y-101468309D01*
X157064693Y-101469799D01*
X157058626Y-101470699D01*
X157052500Y-101471000D01*
X156577500Y-101471000D01*
X156571374Y-101470699D01*
X156565307Y-101469799D01*
X156559357Y-101468309D01*
X156553582Y-101466242D01*
X156548038Y-101463620D01*
X156542777Y-101460467D01*
X156537850Y-101456813D01*
X156533306Y-101452694D01*
X156529187Y-101448150D01*
X156525533Y-101443223D01*
X156522380Y-101437962D01*
X156519758Y-101432418D01*
X156517691Y-101426643D01*
X156516201Y-101420693D01*
X156515301Y-101414626D01*
X156515000Y-101408500D01*
X156515000Y-101283500D01*
X156515301Y-101277374D01*
X156516201Y-101271307D01*
X156517691Y-101265357D01*
X156519758Y-101259582D01*
X156522380Y-101254038D01*
X156525533Y-101248777D01*
X156529187Y-101243850D01*
X156533306Y-101239306D01*
X156537850Y-101235187D01*
X156542777Y-101231533D01*
X156548038Y-101228380D01*
X156553582Y-101225758D01*
X156559357Y-101223691D01*
X156565307Y-101222201D01*
X156571374Y-101221301D01*
X156577500Y-101221000D01*
X157052500Y-101221000D01*
X157058626Y-101221301D01*
X157058626Y-101221301D01*
G37*
D21*
X156815000Y-101346000D03*
D10*
G36*
X157058626Y-102221301D02*
G01*
X157064693Y-102222201D01*
X157070643Y-102223691D01*
X157076418Y-102225758D01*
X157081962Y-102228380D01*
X157087223Y-102231533D01*
X157092150Y-102235187D01*
X157096694Y-102239306D01*
X157100813Y-102243850D01*
X157104467Y-102248777D01*
X157107620Y-102254038D01*
X157110242Y-102259582D01*
X157112309Y-102265357D01*
X157113799Y-102271307D01*
X157114699Y-102277374D01*
X157115000Y-102283500D01*
X157115000Y-102408500D01*
X157114699Y-102414626D01*
X157113799Y-102420693D01*
X157112309Y-102426643D01*
X157110242Y-102432418D01*
X157107620Y-102437962D01*
X157104467Y-102443223D01*
X157100813Y-102448150D01*
X157096694Y-102452694D01*
X157092150Y-102456813D01*
X157087223Y-102460467D01*
X157081962Y-102463620D01*
X157076418Y-102466242D01*
X157070643Y-102468309D01*
X157064693Y-102469799D01*
X157058626Y-102470699D01*
X157052500Y-102471000D01*
X156577500Y-102471000D01*
X156571374Y-102470699D01*
X156565307Y-102469799D01*
X156559357Y-102468309D01*
X156553582Y-102466242D01*
X156548038Y-102463620D01*
X156542777Y-102460467D01*
X156537850Y-102456813D01*
X156533306Y-102452694D01*
X156529187Y-102448150D01*
X156525533Y-102443223D01*
X156522380Y-102437962D01*
X156519758Y-102432418D01*
X156517691Y-102426643D01*
X156516201Y-102420693D01*
X156515301Y-102414626D01*
X156515000Y-102408500D01*
X156515000Y-102283500D01*
X156515301Y-102277374D01*
X156516201Y-102271307D01*
X156517691Y-102265357D01*
X156519758Y-102259582D01*
X156522380Y-102254038D01*
X156525533Y-102248777D01*
X156529187Y-102243850D01*
X156533306Y-102239306D01*
X156537850Y-102235187D01*
X156542777Y-102231533D01*
X156548038Y-102228380D01*
X156553582Y-102225758D01*
X156559357Y-102223691D01*
X156565307Y-102222201D01*
X156571374Y-102221301D01*
X156577500Y-102221000D01*
X157052500Y-102221000D01*
X157058626Y-102221301D01*
X157058626Y-102221301D01*
G37*
D21*
X156815000Y-102346000D03*
D10*
G36*
X158358626Y-102221301D02*
G01*
X158364693Y-102222201D01*
X158370643Y-102223691D01*
X158376418Y-102225758D01*
X158381962Y-102228380D01*
X158387223Y-102231533D01*
X158392150Y-102235187D01*
X158396694Y-102239306D01*
X158400813Y-102243850D01*
X158404467Y-102248777D01*
X158407620Y-102254038D01*
X158410242Y-102259582D01*
X158412309Y-102265357D01*
X158413799Y-102271307D01*
X158414699Y-102277374D01*
X158415000Y-102283500D01*
X158415000Y-102408500D01*
X158414699Y-102414626D01*
X158413799Y-102420693D01*
X158412309Y-102426643D01*
X158410242Y-102432418D01*
X158407620Y-102437962D01*
X158404467Y-102443223D01*
X158400813Y-102448150D01*
X158396694Y-102452694D01*
X158392150Y-102456813D01*
X158387223Y-102460467D01*
X158381962Y-102463620D01*
X158376418Y-102466242D01*
X158370643Y-102468309D01*
X158364693Y-102469799D01*
X158358626Y-102470699D01*
X158352500Y-102471000D01*
X157877500Y-102471000D01*
X157871374Y-102470699D01*
X157865307Y-102469799D01*
X157859357Y-102468309D01*
X157853582Y-102466242D01*
X157848038Y-102463620D01*
X157842777Y-102460467D01*
X157837850Y-102456813D01*
X157833306Y-102452694D01*
X157829187Y-102448150D01*
X157825533Y-102443223D01*
X157822380Y-102437962D01*
X157819758Y-102432418D01*
X157817691Y-102426643D01*
X157816201Y-102420693D01*
X157815301Y-102414626D01*
X157815000Y-102408500D01*
X157815000Y-102283500D01*
X157815301Y-102277374D01*
X157816201Y-102271307D01*
X157817691Y-102265357D01*
X157819758Y-102259582D01*
X157822380Y-102254038D01*
X157825533Y-102248777D01*
X157829187Y-102243850D01*
X157833306Y-102239306D01*
X157837850Y-102235187D01*
X157842777Y-102231533D01*
X157848038Y-102228380D01*
X157853582Y-102225758D01*
X157859357Y-102223691D01*
X157865307Y-102222201D01*
X157871374Y-102221301D01*
X157877500Y-102221000D01*
X158352500Y-102221000D01*
X158358626Y-102221301D01*
X158358626Y-102221301D01*
G37*
D21*
X158115000Y-102346000D03*
D10*
G36*
X158358626Y-101721301D02*
G01*
X158364693Y-101722201D01*
X158370643Y-101723691D01*
X158376418Y-101725758D01*
X158381962Y-101728380D01*
X158387223Y-101731533D01*
X158392150Y-101735187D01*
X158396694Y-101739306D01*
X158400813Y-101743850D01*
X158404467Y-101748777D01*
X158407620Y-101754038D01*
X158410242Y-101759582D01*
X158412309Y-101765357D01*
X158413799Y-101771307D01*
X158414699Y-101777374D01*
X158415000Y-101783500D01*
X158415000Y-101908500D01*
X158414699Y-101914626D01*
X158413799Y-101920693D01*
X158412309Y-101926643D01*
X158410242Y-101932418D01*
X158407620Y-101937962D01*
X158404467Y-101943223D01*
X158400813Y-101948150D01*
X158396694Y-101952694D01*
X158392150Y-101956813D01*
X158387223Y-101960467D01*
X158381962Y-101963620D01*
X158376418Y-101966242D01*
X158370643Y-101968309D01*
X158364693Y-101969799D01*
X158358626Y-101970699D01*
X158352500Y-101971000D01*
X157877500Y-101971000D01*
X157871374Y-101970699D01*
X157865307Y-101969799D01*
X157859357Y-101968309D01*
X157853582Y-101966242D01*
X157848038Y-101963620D01*
X157842777Y-101960467D01*
X157837850Y-101956813D01*
X157833306Y-101952694D01*
X157829187Y-101948150D01*
X157825533Y-101943223D01*
X157822380Y-101937962D01*
X157819758Y-101932418D01*
X157817691Y-101926643D01*
X157816201Y-101920693D01*
X157815301Y-101914626D01*
X157815000Y-101908500D01*
X157815000Y-101783500D01*
X157815301Y-101777374D01*
X157816201Y-101771307D01*
X157817691Y-101765357D01*
X157819758Y-101759582D01*
X157822380Y-101754038D01*
X157825533Y-101748777D01*
X157829187Y-101743850D01*
X157833306Y-101739306D01*
X157837850Y-101735187D01*
X157842777Y-101731533D01*
X157848038Y-101728380D01*
X157853582Y-101725758D01*
X157859357Y-101723691D01*
X157865307Y-101722201D01*
X157871374Y-101721301D01*
X157877500Y-101721000D01*
X158352500Y-101721000D01*
X158358626Y-101721301D01*
X158358626Y-101721301D01*
G37*
D21*
X158115000Y-101846000D03*
D22*
X161300000Y-90650000D03*
X162700000Y-87900000D03*
X155700000Y-88250000D03*
X152705000Y-87905000D03*
D23*
X153505000Y-94800000D03*
X154505000Y-102450000D03*
X154530000Y-103450008D03*
X153505000Y-93600000D03*
D22*
X154680000Y-115200000D03*
X160080000Y-115400000D03*
X157430000Y-105475000D03*
X159955000Y-107050000D03*
X160630000Y-96050000D03*
X154955000Y-98250000D03*
X155280000Y-93650000D03*
X155280000Y-94525000D03*
X154130000Y-98275000D03*
X154980020Y-97500000D03*
X155702000Y-98000000D03*
X156815000Y-99822000D03*
X155956000Y-99822000D03*
X155702000Y-98806000D03*
X155250000Y-92700000D03*
X157550000Y-88250000D03*
X159950000Y-91150000D03*
X156600000Y-86850000D03*
X158650000Y-86800000D03*
X156650000Y-89550000D03*
X158550000Y-89650000D03*
X151650000Y-88800000D03*
X151150000Y-92850000D03*
X161290000Y-104040000D03*
X159780000Y-104275032D03*
D24*
X160830000Y-87905000D02*
X160830000Y-90180000D01*
X160830000Y-90180000D02*
X161300000Y-90650000D01*
X160830000Y-87905000D02*
X162695000Y-87905000D01*
X162695000Y-87905000D02*
X162700000Y-87900000D01*
X154130000Y-87905000D02*
X154475000Y-88250000D01*
X154475000Y-88250000D02*
X155700000Y-88250000D01*
X152705000Y-87905000D02*
X154130000Y-87905000D01*
X153640000Y-105410000D02*
X153767000Y-105537000D01*
X151130000Y-105410000D02*
X153640000Y-105410000D01*
X153543000Y-100990500D02*
X154940000Y-100990500D01*
X153767000Y-101214500D02*
X153543000Y-100990500D01*
D25*
X155295500Y-101346000D02*
X154940000Y-100990500D01*
X156815000Y-101346000D02*
X155295500Y-101346000D01*
X158593000Y-105537000D02*
X158593000Y-106707000D01*
X158593000Y-106707000D02*
X158310000Y-106990000D01*
X158310000Y-106990000D02*
X153950000Y-106990000D01*
X153767000Y-106807000D02*
X153767000Y-105537000D01*
X153950000Y-106990000D02*
X153767000Y-106807000D01*
D24*
X153830000Y-102450000D02*
X153767000Y-102387000D01*
X154505000Y-102450000D02*
X153830000Y-102450000D01*
X153767000Y-105537000D02*
X153767000Y-102387000D01*
X153767000Y-102387000D02*
X153767000Y-101214500D01*
D26*
X153505000Y-91775000D02*
X153505000Y-94800000D01*
X154505000Y-90775000D02*
X153505000Y-91775000D01*
X157450000Y-90775000D02*
X154505000Y-90775000D01*
X158480000Y-93655000D02*
X158480000Y-91805000D01*
X158480000Y-91805000D02*
X157450000Y-90775000D01*
D24*
X151130000Y-102870000D02*
X151130000Y-100330000D01*
D27*
X151130000Y-100330000D02*
X152069800Y-99390200D01*
X152095100Y-99415500D02*
X153543000Y-99415500D01*
X152069800Y-99390200D02*
X152095100Y-99415500D01*
X154940000Y-99415500D02*
X153543000Y-99415500D01*
X155892500Y-99415500D02*
X156692500Y-98615500D01*
X154940000Y-99415500D02*
X155892500Y-99415500D01*
D28*
X151447500Y-110897500D02*
X150280000Y-112065000D01*
X150280000Y-113793000D02*
X151066500Y-114579500D01*
X150280000Y-112065000D02*
X150280000Y-113793000D01*
X151066500Y-114579500D02*
X152527000Y-114579500D01*
X152527000Y-114579500D02*
X153987500Y-114579500D01*
D25*
X151066500Y-114579500D02*
X153987500Y-114579500D01*
X160718500Y-114579500D02*
X162115500Y-114579500D01*
X163692500Y-114579500D02*
X163957000Y-114315000D01*
X162115500Y-114579500D02*
X163692500Y-114579500D01*
X153987500Y-114579500D02*
X154059500Y-114579500D01*
X154059500Y-114579500D02*
X154680000Y-115200000D01*
X160718500Y-114579500D02*
X160718500Y-114761500D01*
X160718500Y-114761500D02*
X160080000Y-115400000D01*
D29*
X156367000Y-105537000D02*
X157368000Y-105537000D01*
X157368000Y-105537000D02*
X157430000Y-105475000D01*
X160527592Y-107050000D02*
X159955000Y-107050000D01*
X161193000Y-105537000D02*
X161193000Y-106384592D01*
X161193000Y-106384592D02*
X160527592Y-107050000D01*
D30*
X160655000Y-97193000D02*
X160655000Y-96075000D01*
X160655000Y-96075000D02*
X160630000Y-96050000D01*
X154940000Y-99415500D02*
X154940000Y-98265000D01*
X154940000Y-98265000D02*
X154955000Y-98250000D01*
X156480000Y-93655000D02*
X155285000Y-93655000D01*
X155285000Y-93655000D02*
X155280000Y-93650000D01*
X155280000Y-93650000D02*
X155280000Y-94525000D01*
X155610000Y-94525000D02*
X156480000Y-93655000D01*
X155280000Y-94525000D02*
X155610000Y-94525000D01*
X153543000Y-98862000D02*
X153830001Y-98574999D01*
X153830001Y-98574999D02*
X154130000Y-98275000D01*
X153543000Y-99415500D02*
X153543000Y-98862000D01*
X155261520Y-97218500D02*
X154980020Y-97500000D01*
X156692500Y-97218500D02*
X155261520Y-97218500D01*
D28*
X155792500Y-97987500D02*
X155780000Y-98000000D01*
X156692500Y-97987500D02*
X155792500Y-97987500D01*
D27*
X156692500Y-97218500D02*
X156692500Y-97987500D01*
X156692500Y-97987500D02*
X156692500Y-98615500D01*
D28*
X156692500Y-99612500D02*
X156815000Y-99735000D01*
X156692500Y-98615500D02*
X156692500Y-99612500D01*
X156144872Y-99735000D02*
X156079872Y-99800000D01*
X156815000Y-99735000D02*
X156144872Y-99735000D01*
D29*
X155280000Y-93650000D02*
X155280000Y-92730000D01*
X155280000Y-92730000D02*
X155250000Y-92700000D01*
X158115000Y-100846000D02*
X158754000Y-100846000D01*
D25*
X159445500Y-100154500D02*
X160655000Y-100154500D01*
D29*
X158754000Y-100846000D02*
X159445500Y-100154500D01*
D25*
X160655000Y-98768000D02*
X160655000Y-100154500D01*
X159445500Y-99793500D02*
X159445500Y-100154500D01*
X158267500Y-98615500D02*
X159445500Y-99793500D01*
D31*
X158267500Y-96405800D02*
X158267500Y-97218500D01*
X157988000Y-96126300D02*
X158267500Y-96405800D01*
X151130000Y-97790000D02*
X152793700Y-96126300D01*
X152793700Y-96126300D02*
X157988000Y-96126300D01*
X158267500Y-98615500D02*
X158267500Y-97218500D01*
D28*
X161685001Y-102875001D02*
X161754999Y-102875001D01*
X161754999Y-102875001D02*
X162330000Y-102300000D01*
X162330000Y-99290000D02*
X163830000Y-97790000D01*
X162330000Y-102300000D02*
X162330000Y-99290000D01*
X158791700Y-101846000D02*
X159820700Y-102875000D01*
X159820700Y-102875000D02*
X161619401Y-102875001D01*
X161619401Y-102875001D02*
X161685001Y-102875001D01*
X158115000Y-101846000D02*
X158791700Y-101846000D01*
X162604411Y-103794411D02*
X161685001Y-102875001D01*
X162604411Y-106439289D02*
X162604411Y-103794411D01*
X164592000Y-108426878D02*
X162604411Y-106439289D01*
X163957000Y-113015000D02*
X164592000Y-112380000D01*
X164592000Y-112380000D02*
X164592000Y-108426878D01*
X160990001Y-103740001D02*
X161290000Y-104040000D01*
X157215000Y-101846000D02*
X157514990Y-102145990D01*
X156815000Y-101846000D02*
X157215000Y-101846000D01*
X157514990Y-102145990D02*
X157514990Y-103158990D01*
X157514990Y-103158990D02*
X158031022Y-103675022D01*
X158031022Y-103675022D02*
X160925022Y-103675022D01*
X160925022Y-103675022D02*
X160990001Y-103740001D01*
X160882000Y-104040000D02*
X161290000Y-104040000D01*
X159893000Y-105537000D02*
X159893000Y-105029000D01*
X159893000Y-105029000D02*
X160882000Y-104040000D01*
D29*
X156815000Y-102346000D02*
X156872000Y-102403000D01*
X156872000Y-102403000D02*
X156872000Y-104133000D01*
X155067000Y-105113000D02*
X155067000Y-105537000D01*
X155491990Y-104688010D02*
X155067000Y-105113000D01*
X155491990Y-104652374D02*
X155491990Y-104688010D01*
X155682374Y-104461990D02*
X155491990Y-104652374D01*
X156872000Y-104133000D02*
X156543010Y-104461990D01*
X156543010Y-104461990D02*
X155682374Y-104461990D01*
D28*
X159736544Y-104133000D02*
X159780000Y-104176456D01*
D29*
X159355736Y-104275032D02*
X159780000Y-104275032D01*
D28*
X159780000Y-104176456D02*
X159780000Y-104275032D01*
D29*
X156872000Y-104133000D02*
X157014032Y-104275032D01*
X157014032Y-104275032D02*
X159355736Y-104275032D01*
D30*
X151447500Y-109447500D02*
X159817900Y-109447500D01*
X159817900Y-109447500D02*
X163512500Y-109447500D01*
D28*
X162204400Y-106629200D02*
X159817900Y-109015700D01*
X162204400Y-104025700D02*
X162204400Y-106629200D01*
X161453711Y-103275011D02*
X162204400Y-104025700D01*
X159655011Y-103275011D02*
X161453711Y-103275011D01*
X159817900Y-109015700D02*
X159817900Y-109447500D01*
X158115000Y-102346000D02*
X158726000Y-102346000D01*
X158726000Y-102346000D02*
X159655011Y-103275011D01*
X152744000Y-112014000D02*
X153860500Y-110897500D01*
X151066500Y-113004500D02*
X152057000Y-112014000D01*
X152057000Y-112014000D02*
X152744000Y-112014000D01*
X155106200Y-112064800D02*
X156273500Y-110897500D01*
X152527000Y-113004500D02*
X153466700Y-112064800D01*
X153466700Y-112064800D02*
X155106200Y-112064800D01*
X154449112Y-112542888D02*
X155389012Y-112542888D01*
X153987500Y-113004500D02*
X154449112Y-112542888D01*
X158115790Y-111468210D02*
X158686500Y-110897500D01*
X157886490Y-111697510D02*
X158115790Y-111468210D01*
X156234390Y-111697510D02*
X157886490Y-111697510D01*
X155389012Y-112542888D02*
X156234390Y-111697510D01*
X160718500Y-111278500D02*
X161099500Y-110897500D01*
X160718500Y-113004500D02*
X160718500Y-111278500D01*
X162115500Y-112294500D02*
X163512500Y-110897500D01*
X162115500Y-113004500D02*
X162115500Y-112294500D01*
D25*
X160655000Y-101555000D02*
X160655000Y-102029500D01*
D29*
X158115000Y-101346000D02*
X160446000Y-101346000D01*
D25*
X160446000Y-101346000D02*
X160655000Y-101555000D01*
D32*
G36*
X155953000Y-100852606D02*
G01*
X155953000Y-100858579D01*
X155955440Y-100883355D01*
X155962667Y-100907180D01*
X156062667Y-101148601D01*
X156074403Y-101170557D01*
X156090197Y-101189803D01*
X156109443Y-101205597D01*
X156131399Y-101217333D01*
X156234948Y-101260224D01*
X156304401Y-101317222D01*
X156358240Y-101346000D01*
X156304401Y-101374778D01*
X156229910Y-101435910D01*
X156168778Y-101510401D01*
X156164121Y-101519113D01*
X156131399Y-101532667D01*
X156109443Y-101544403D01*
X156090197Y-101560197D01*
X156074403Y-101579443D01*
X156062667Y-101601399D01*
X155962667Y-101842820D01*
X155955440Y-101866644D01*
X155953000Y-101891421D01*
X155953000Y-103418744D01*
X155735354Y-103834136D01*
X155620898Y-103913375D01*
X155574163Y-103917978D01*
X155470111Y-103949542D01*
X155374216Y-104000799D01*
X155290163Y-104069779D01*
X155272877Y-104090842D01*
X155120846Y-104242874D01*
X155099779Y-104260163D01*
X155073199Y-104292551D01*
X154978757Y-104357934D01*
X154567000Y-104357934D01*
X154483293Y-104366178D01*
X154402804Y-104390595D01*
X154328624Y-104430245D01*
X154263605Y-104483605D01*
X154231274Y-104523000D01*
X154230000Y-104523000D01*
X154205224Y-104525440D01*
X154181399Y-104532667D01*
X154159443Y-104544403D01*
X154140197Y-104560197D01*
X153840197Y-104860197D01*
X153824403Y-104879443D01*
X153812667Y-104901399D01*
X153805440Y-104925224D01*
X153803000Y-104950000D01*
X153803000Y-105016721D01*
X153793877Y-105033594D01*
X153774529Y-105068787D01*
X153774077Y-105070213D01*
X153773364Y-105071531D01*
X153761468Y-105109961D01*
X153749331Y-105148222D01*
X153749164Y-105149708D01*
X153748721Y-105151140D01*
X153744512Y-105191187D01*
X153740042Y-105231038D01*
X153740022Y-105233907D01*
X153740010Y-105234019D01*
X153740020Y-105234131D01*
X153740000Y-105237000D01*
X153740000Y-105837000D01*
X153743917Y-105876948D01*
X153747563Y-105917012D01*
X153747986Y-105918449D01*
X153748132Y-105919938D01*
X153759728Y-105958347D01*
X153771092Y-105996957D01*
X153771787Y-105998287D01*
X153772219Y-105999717D01*
X153791071Y-106035171D01*
X153803000Y-106057989D01*
X153803000Y-106385015D01*
X153577110Y-106611631D01*
X150381453Y-106621873D01*
X150312000Y-106554234D01*
X150312000Y-104748977D01*
X150333472Y-104727000D01*
X151680000Y-104727000D01*
X151704776Y-104724560D01*
X151732238Y-104715759D01*
X152230724Y-104490808D01*
X152252304Y-104478393D01*
X152273715Y-104459075D01*
X152626743Y-104058977D01*
X152641306Y-104038784D01*
X152650306Y-104019867D01*
X152848792Y-103494916D01*
X152855272Y-103470878D01*
X152857000Y-103450000D01*
X152857000Y-100989014D01*
X152946678Y-100802428D01*
X153161707Y-100727000D01*
X155827394Y-100727000D01*
X155953000Y-100852606D01*
X155953000Y-100852606D01*
G37*
X155953000Y-100852606D02*
X155953000Y-100858579D01*
X155955440Y-100883355D01*
X155962667Y-100907180D01*
X156062667Y-101148601D01*
X156074403Y-101170557D01*
X156090197Y-101189803D01*
X156109443Y-101205597D01*
X156131399Y-101217333D01*
X156234948Y-101260224D01*
X156304401Y-101317222D01*
X156358240Y-101346000D01*
X156304401Y-101374778D01*
X156229910Y-101435910D01*
X156168778Y-101510401D01*
X156164121Y-101519113D01*
X156131399Y-101532667D01*
X156109443Y-101544403D01*
X156090197Y-101560197D01*
X156074403Y-101579443D01*
X156062667Y-101601399D01*
X155962667Y-101842820D01*
X155955440Y-101866644D01*
X155953000Y-101891421D01*
X155953000Y-103418744D01*
X155735354Y-103834136D01*
X155620898Y-103913375D01*
X155574163Y-103917978D01*
X155470111Y-103949542D01*
X155374216Y-104000799D01*
X155290163Y-104069779D01*
X155272877Y-104090842D01*
X155120846Y-104242874D01*
X155099779Y-104260163D01*
X155073199Y-104292551D01*
X154978757Y-104357934D01*
X154567000Y-104357934D01*
X154483293Y-104366178D01*
X154402804Y-104390595D01*
X154328624Y-104430245D01*
X154263605Y-104483605D01*
X154231274Y-104523000D01*
X154230000Y-104523000D01*
X154205224Y-104525440D01*
X154181399Y-104532667D01*
X154159443Y-104544403D01*
X154140197Y-104560197D01*
X153840197Y-104860197D01*
X153824403Y-104879443D01*
X153812667Y-104901399D01*
X153805440Y-104925224D01*
X153803000Y-104950000D01*
X153803000Y-105016721D01*
X153793877Y-105033594D01*
X153774529Y-105068787D01*
X153774077Y-105070213D01*
X153773364Y-105071531D01*
X153761468Y-105109961D01*
X153749331Y-105148222D01*
X153749164Y-105149708D01*
X153748721Y-105151140D01*
X153744512Y-105191187D01*
X153740042Y-105231038D01*
X153740022Y-105233907D01*
X153740010Y-105234019D01*
X153740020Y-105234131D01*
X153740000Y-105237000D01*
X153740000Y-105837000D01*
X153743917Y-105876948D01*
X153747563Y-105917012D01*
X153747986Y-105918449D01*
X153748132Y-105919938D01*
X153759728Y-105958347D01*
X153771092Y-105996957D01*
X153771787Y-105998287D01*
X153772219Y-105999717D01*
X153791071Y-106035171D01*
X153803000Y-106057989D01*
X153803000Y-106385015D01*
X153577110Y-106611631D01*
X150381453Y-106621873D01*
X150312000Y-106554234D01*
X150312000Y-104748977D01*
X150333472Y-104727000D01*
X151680000Y-104727000D01*
X151704776Y-104724560D01*
X151732238Y-104715759D01*
X152230724Y-104490808D01*
X152252304Y-104478393D01*
X152273715Y-104459075D01*
X152626743Y-104058977D01*
X152641306Y-104038784D01*
X152650306Y-104019867D01*
X152848792Y-103494916D01*
X152855272Y-103470878D01*
X152857000Y-103450000D01*
X152857000Y-100989014D01*
X152946678Y-100802428D01*
X153161707Y-100727000D01*
X155827394Y-100727000D01*
X155953000Y-100852606D01*
G36*
X157053000Y-97052606D02*
G01*
X157053000Y-100747394D01*
X157008460Y-100791934D01*
X156976189Y-100791934D01*
X156928112Y-100777350D01*
X156843336Y-100769000D01*
X156828606Y-100769000D01*
X156807000Y-100747394D01*
X156807000Y-100600000D01*
X156804560Y-100575224D01*
X156797333Y-100551399D01*
X156783028Y-100525742D01*
X156593291Y-100262496D01*
X156576824Y-100243823D01*
X156557031Y-100228721D01*
X156530424Y-100216271D01*
X156309898Y-100142763D01*
X156290080Y-100137886D01*
X155900343Y-100074640D01*
X155880000Y-100073000D01*
X152880000Y-100073000D01*
X152855224Y-100075440D01*
X152831399Y-100082667D01*
X152489978Y-100224088D01*
X152468022Y-100235824D01*
X152448776Y-100251618D01*
X152331618Y-100368776D01*
X152315824Y-100388022D01*
X152304088Y-100409978D01*
X152162667Y-100751399D01*
X152155440Y-100775224D01*
X152153000Y-100800000D01*
X152153000Y-103374737D01*
X152030914Y-103669480D01*
X151749480Y-103950914D01*
X151454737Y-104073000D01*
X150905263Y-104073000D01*
X150610520Y-103950914D01*
X150329086Y-103669480D01*
X150312000Y-103628231D01*
X150312000Y-99771769D01*
X150329086Y-99730520D01*
X150610520Y-99449086D01*
X150905263Y-99327000D01*
X151480000Y-99327000D01*
X151504776Y-99324560D01*
X151528601Y-99317333D01*
X151870022Y-99175912D01*
X151891978Y-99164176D01*
X151911224Y-99148382D01*
X154081230Y-96978376D01*
X154141769Y-96953300D01*
X156953694Y-96953300D01*
X157053000Y-97052606D01*
X157053000Y-97052606D01*
G37*
X157053000Y-97052606D02*
X157053000Y-100747394D01*
X157008460Y-100791934D01*
X156976189Y-100791934D01*
X156928112Y-100777350D01*
X156843336Y-100769000D01*
X156828606Y-100769000D01*
X156807000Y-100747394D01*
X156807000Y-100600000D01*
X156804560Y-100575224D01*
X156797333Y-100551399D01*
X156783028Y-100525742D01*
X156593291Y-100262496D01*
X156576824Y-100243823D01*
X156557031Y-100228721D01*
X156530424Y-100216271D01*
X156309898Y-100142763D01*
X156290080Y-100137886D01*
X155900343Y-100074640D01*
X155880000Y-100073000D01*
X152880000Y-100073000D01*
X152855224Y-100075440D01*
X152831399Y-100082667D01*
X152489978Y-100224088D01*
X152468022Y-100235824D01*
X152448776Y-100251618D01*
X152331618Y-100368776D01*
X152315824Y-100388022D01*
X152304088Y-100409978D01*
X152162667Y-100751399D01*
X152155440Y-100775224D01*
X152153000Y-100800000D01*
X152153000Y-103374737D01*
X152030914Y-103669480D01*
X151749480Y-103950914D01*
X151454737Y-104073000D01*
X150905263Y-104073000D01*
X150610520Y-103950914D01*
X150329086Y-103669480D01*
X150312000Y-103628231D01*
X150312000Y-99771769D01*
X150329086Y-99730520D01*
X150610520Y-99449086D01*
X150905263Y-99327000D01*
X151480000Y-99327000D01*
X151504776Y-99324560D01*
X151528601Y-99317333D01*
X151870022Y-99175912D01*
X151891978Y-99164176D01*
X151911224Y-99148382D01*
X154081230Y-96978376D01*
X154141769Y-96953300D01*
X156953694Y-96953300D01*
X157053000Y-97052606D01*
G36*
X158853000Y-97052606D02*
G01*
X158853000Y-97800000D01*
X158855440Y-97824776D01*
X158862667Y-97848601D01*
X158874403Y-97870557D01*
X158890197Y-97889803D01*
X159090197Y-98089803D01*
X159109443Y-98105597D01*
X159131399Y-98117333D01*
X159155224Y-98124560D01*
X159180000Y-98127000D01*
X161427394Y-98127000D01*
X161553000Y-98252606D01*
X161553000Y-100447394D01*
X161427394Y-100573000D01*
X158880000Y-100573000D01*
X158855224Y-100575440D01*
X158831399Y-100582667D01*
X158809443Y-100594403D01*
X158790197Y-100610197D01*
X158606394Y-100794000D01*
X158373477Y-100794000D01*
X158352500Y-100791934D01*
X157907000Y-100791934D01*
X157907000Y-97052606D01*
X158032606Y-96927000D01*
X158727394Y-96927000D01*
X158853000Y-97052606D01*
X158853000Y-97052606D01*
G37*
X158853000Y-97052606D02*
X158853000Y-97800000D01*
X158855440Y-97824776D01*
X158862667Y-97848601D01*
X158874403Y-97870557D01*
X158890197Y-97889803D01*
X159090197Y-98089803D01*
X159109443Y-98105597D01*
X159131399Y-98117333D01*
X159155224Y-98124560D01*
X159180000Y-98127000D01*
X161427394Y-98127000D01*
X161553000Y-98252606D01*
X161553000Y-100447394D01*
X161427394Y-100573000D01*
X158880000Y-100573000D01*
X158855224Y-100575440D01*
X158831399Y-100582667D01*
X158809443Y-100594403D01*
X158790197Y-100610197D01*
X158606394Y-100794000D01*
X158373477Y-100794000D01*
X158352500Y-100791934D01*
X157907000Y-100791934D01*
X157907000Y-97052606D01*
X158032606Y-96927000D01*
X158727394Y-96927000D01*
X158853000Y-97052606D01*
G36*
X159614706Y-86312719D02*
G01*
X159600693Y-86455000D01*
X159600693Y-89355000D01*
X159614706Y-89497281D01*
X159656208Y-89634094D01*
X159723603Y-89760181D01*
X159814302Y-89870698D01*
X159924819Y-89961397D01*
X160050906Y-90028792D01*
X160053001Y-90029427D01*
X160053001Y-90141827D01*
X160049241Y-90180000D01*
X160054125Y-90229582D01*
X160064244Y-90332319D01*
X160077721Y-90376748D01*
X160108673Y-90478783D01*
X160180823Y-90613766D01*
X160210559Y-90649999D01*
X160277921Y-90732080D01*
X160307565Y-90756408D01*
X160696460Y-91145303D01*
X160696464Y-91145309D01*
X160804691Y-91253536D01*
X160836596Y-91274854D01*
X160866233Y-91299177D01*
X160900048Y-91317252D01*
X160931952Y-91338569D01*
X160967401Y-91353253D01*
X161001216Y-91371327D01*
X161037905Y-91382456D01*
X161073357Y-91397141D01*
X161110994Y-91404627D01*
X161147681Y-91415756D01*
X161185836Y-91419514D01*
X161223472Y-91427000D01*
X161261843Y-91427000D01*
X161299999Y-91430758D01*
X161338155Y-91427000D01*
X161376528Y-91427000D01*
X161414165Y-91419514D01*
X161452318Y-91415756D01*
X161489002Y-91404628D01*
X161526643Y-91397141D01*
X161562099Y-91382454D01*
X161598782Y-91371327D01*
X161632590Y-91353256D01*
X161668048Y-91338569D01*
X161699960Y-91317246D01*
X161733765Y-91299177D01*
X161763395Y-91274860D01*
X161795309Y-91253536D01*
X161822450Y-91226395D01*
X161852079Y-91202079D01*
X161876395Y-91172450D01*
X161903536Y-91145309D01*
X161924860Y-91113395D01*
X161949177Y-91083765D01*
X161967246Y-91049960D01*
X161988569Y-91018048D01*
X162003256Y-90982590D01*
X162021327Y-90948782D01*
X162032454Y-90912099D01*
X162047141Y-90876643D01*
X162054628Y-90839002D01*
X162065756Y-90802318D01*
X162069514Y-90764165D01*
X162077000Y-90726528D01*
X162077000Y-90688155D01*
X162080758Y-90649999D01*
X162077000Y-90611843D01*
X162077000Y-90573472D01*
X162069514Y-90535836D01*
X162065756Y-90497681D01*
X162054627Y-90460994D01*
X162047141Y-90423357D01*
X162032456Y-90387905D01*
X162021327Y-90351216D01*
X162003253Y-90317401D01*
X161988569Y-90281952D01*
X161967252Y-90250048D01*
X161949177Y-90216233D01*
X161924854Y-90186596D01*
X161903536Y-90154691D01*
X161795309Y-90046464D01*
X161795303Y-90046460D01*
X161718928Y-89970085D01*
X161735181Y-89961397D01*
X161845698Y-89870698D01*
X161936397Y-89760181D01*
X162003792Y-89634094D01*
X162045294Y-89497281D01*
X162059307Y-89355000D01*
X162059307Y-88682000D01*
X162656837Y-88682000D01*
X162695000Y-88685759D01*
X162733163Y-88682000D01*
X162733166Y-88682000D01*
X162847319Y-88670757D01*
X162922365Y-88647992D01*
X162926643Y-88647141D01*
X162930674Y-88645471D01*
X162993784Y-88626327D01*
X163051944Y-88595239D01*
X163068048Y-88588569D01*
X163082542Y-88578885D01*
X163128766Y-88554177D01*
X163169282Y-88520927D01*
X163195309Y-88503536D01*
X163217442Y-88481403D01*
X163247080Y-88457080D01*
X163271403Y-88427442D01*
X163303536Y-88395309D01*
X163324856Y-88363401D01*
X163349177Y-88333766D01*
X163367249Y-88299956D01*
X163388569Y-88268048D01*
X163403254Y-88232595D01*
X163421327Y-88198783D01*
X163432455Y-88162097D01*
X163447141Y-88126643D01*
X163454628Y-88089003D01*
X163465756Y-88052318D01*
X163469514Y-88014165D01*
X163477000Y-87976528D01*
X163477000Y-87938156D01*
X163480758Y-87900001D01*
X163477000Y-87861845D01*
X163477000Y-87823472D01*
X163469514Y-87785835D01*
X163465756Y-87747682D01*
X163454628Y-87710998D01*
X163447141Y-87673357D01*
X163432454Y-87637901D01*
X163421327Y-87601218D01*
X163403256Y-87567409D01*
X163388569Y-87531952D01*
X163367248Y-87500043D01*
X163349177Y-87466234D01*
X163324858Y-87436601D01*
X163303536Y-87404691D01*
X163276396Y-87377551D01*
X163252079Y-87347921D01*
X163222449Y-87323604D01*
X163195309Y-87296464D01*
X163163399Y-87275142D01*
X163133766Y-87250823D01*
X163099957Y-87232752D01*
X163068048Y-87211431D01*
X163032591Y-87196744D01*
X162998782Y-87178673D01*
X162962099Y-87167546D01*
X162926643Y-87152859D01*
X162889002Y-87145372D01*
X162852318Y-87134244D01*
X162814165Y-87130486D01*
X162776528Y-87123000D01*
X162738155Y-87123000D01*
X162699999Y-87119242D01*
X162661844Y-87123000D01*
X162623472Y-87123000D01*
X162598335Y-87128000D01*
X162059307Y-87128000D01*
X162059307Y-86455000D01*
X162045294Y-86312719D01*
X162019291Y-86227000D01*
X163805449Y-86227000D01*
X163978704Y-86243988D01*
X164121744Y-86287175D01*
X164253672Y-86357321D01*
X164369463Y-86451758D01*
X164464704Y-86566884D01*
X164535773Y-86698323D01*
X164579956Y-86841056D01*
X164598001Y-87012746D01*
X164598001Y-96372393D01*
X164547394Y-96423000D01*
X162100000Y-96423000D01*
X162075224Y-96425440D01*
X162051399Y-96432667D01*
X162029443Y-96444403D01*
X162010197Y-96460197D01*
X161710197Y-96760197D01*
X161694403Y-96779443D01*
X161682667Y-96801399D01*
X161675440Y-96825224D01*
X161673000Y-96850000D01*
X161673000Y-97397394D01*
X161607873Y-97462521D01*
X161607000Y-97360250D01*
X161487750Y-97241000D01*
X160703000Y-97241000D01*
X160703000Y-97261000D01*
X160607000Y-97261000D01*
X160607000Y-97241000D01*
X159822250Y-97241000D01*
X159703000Y-97360250D01*
X159700756Y-97623000D01*
X159652606Y-97623000D01*
X159427000Y-97397394D01*
X159427000Y-96755500D01*
X159700692Y-96755500D01*
X159703000Y-97025750D01*
X159822250Y-97145000D01*
X160607000Y-97145000D01*
X160607000Y-96397750D01*
X160703000Y-96397750D01*
X160703000Y-97145000D01*
X161487750Y-97145000D01*
X161607000Y-97025750D01*
X161609308Y-96755500D01*
X161600098Y-96661992D01*
X161572823Y-96572077D01*
X161528530Y-96489211D01*
X161468922Y-96416578D01*
X161396289Y-96356970D01*
X161313423Y-96312677D01*
X161223508Y-96285402D01*
X161130000Y-96276192D01*
X160822250Y-96278500D01*
X160703000Y-96397750D01*
X160607000Y-96397750D01*
X160487750Y-96278500D01*
X160180000Y-96276192D01*
X160086492Y-96285402D01*
X159996577Y-96312677D01*
X159913711Y-96356970D01*
X159841078Y-96416578D01*
X159781470Y-96489211D01*
X159737177Y-96572077D01*
X159709902Y-96661992D01*
X159700692Y-96755500D01*
X159427000Y-96755500D01*
X159427000Y-95800000D01*
X159424560Y-95775224D01*
X159417333Y-95751399D01*
X159405597Y-95729443D01*
X159389803Y-95710197D01*
X159292850Y-95613244D01*
X159336397Y-95560181D01*
X159403792Y-95434094D01*
X159445294Y-95297281D01*
X159459307Y-95155000D01*
X159459307Y-92155000D01*
X159457000Y-92131576D01*
X159457000Y-91852993D01*
X159461727Y-91805000D01*
X159442863Y-91613474D01*
X159386997Y-91429309D01*
X159328794Y-91320419D01*
X159296276Y-91259582D01*
X159174186Y-91110814D01*
X159136907Y-91080220D01*
X158174784Y-90118098D01*
X158144186Y-90080814D01*
X157995418Y-89958724D01*
X157825691Y-89868003D01*
X157641525Y-89812137D01*
X157497993Y-89798000D01*
X157450000Y-89793273D01*
X157402007Y-89798000D01*
X155205360Y-89798000D01*
X155236397Y-89760181D01*
X155303792Y-89634094D01*
X155345294Y-89497281D01*
X155359307Y-89355000D01*
X155359307Y-89027000D01*
X155776528Y-89027000D01*
X155814154Y-89019516D01*
X155852319Y-89015757D01*
X155889013Y-89004626D01*
X155926643Y-88997141D01*
X155962092Y-88982457D01*
X155998784Y-88971327D01*
X156032598Y-88953253D01*
X156068048Y-88938569D01*
X156099955Y-88917250D01*
X156133766Y-88899177D01*
X156163402Y-88874856D01*
X156195309Y-88853536D01*
X156222442Y-88826403D01*
X156252080Y-88802080D01*
X156276403Y-88772442D01*
X156303536Y-88745309D01*
X156324856Y-88713402D01*
X156349177Y-88683766D01*
X156367250Y-88649955D01*
X156388569Y-88618048D01*
X156403253Y-88582598D01*
X156421327Y-88548784D01*
X156432457Y-88512092D01*
X156447141Y-88476643D01*
X156454626Y-88439013D01*
X156465757Y-88402319D01*
X156469516Y-88364154D01*
X156477000Y-88326528D01*
X156477000Y-88288166D01*
X156480759Y-88250000D01*
X156477000Y-88211834D01*
X156477000Y-88173472D01*
X156469516Y-88135846D01*
X156465757Y-88097681D01*
X156454626Y-88060987D01*
X156447141Y-88023357D01*
X156432457Y-87987908D01*
X156421327Y-87951216D01*
X156403253Y-87917402D01*
X156388569Y-87881952D01*
X156367250Y-87850045D01*
X156349177Y-87816234D01*
X156324856Y-87786598D01*
X156303536Y-87754691D01*
X156276403Y-87727558D01*
X156252080Y-87697920D01*
X156222442Y-87673597D01*
X156195309Y-87646464D01*
X156163402Y-87625144D01*
X156133766Y-87600823D01*
X156099955Y-87582750D01*
X156068048Y-87561431D01*
X156032598Y-87546747D01*
X155998784Y-87528673D01*
X155962092Y-87517543D01*
X155926643Y-87502859D01*
X155889013Y-87495374D01*
X155852319Y-87484243D01*
X155814154Y-87480484D01*
X155776528Y-87473000D01*
X155359307Y-87473000D01*
X155359307Y-86455000D01*
X155345294Y-86312719D01*
X155319291Y-86227000D01*
X159640709Y-86227000D01*
X159614706Y-86312719D01*
X159614706Y-86312719D01*
G37*
X159614706Y-86312719D02*
X159600693Y-86455000D01*
X159600693Y-89355000D01*
X159614706Y-89497281D01*
X159656208Y-89634094D01*
X159723603Y-89760181D01*
X159814302Y-89870698D01*
X159924819Y-89961397D01*
X160050906Y-90028792D01*
X160053001Y-90029427D01*
X160053001Y-90141827D01*
X160049241Y-90180000D01*
X160054125Y-90229582D01*
X160064244Y-90332319D01*
X160077721Y-90376748D01*
X160108673Y-90478783D01*
X160180823Y-90613766D01*
X160210559Y-90649999D01*
X160277921Y-90732080D01*
X160307565Y-90756408D01*
X160696460Y-91145303D01*
X160696464Y-91145309D01*
X160804691Y-91253536D01*
X160836596Y-91274854D01*
X160866233Y-91299177D01*
X160900048Y-91317252D01*
X160931952Y-91338569D01*
X160967401Y-91353253D01*
X161001216Y-91371327D01*
X161037905Y-91382456D01*
X161073357Y-91397141D01*
X161110994Y-91404627D01*
X161147681Y-91415756D01*
X161185836Y-91419514D01*
X161223472Y-91427000D01*
X161261843Y-91427000D01*
X161299999Y-91430758D01*
X161338155Y-91427000D01*
X161376528Y-91427000D01*
X161414165Y-91419514D01*
X161452318Y-91415756D01*
X161489002Y-91404628D01*
X161526643Y-91397141D01*
X161562099Y-91382454D01*
X161598782Y-91371327D01*
X161632590Y-91353256D01*
X161668048Y-91338569D01*
X161699960Y-91317246D01*
X161733765Y-91299177D01*
X161763395Y-91274860D01*
X161795309Y-91253536D01*
X161822450Y-91226395D01*
X161852079Y-91202079D01*
X161876395Y-91172450D01*
X161903536Y-91145309D01*
X161924860Y-91113395D01*
X161949177Y-91083765D01*
X161967246Y-91049960D01*
X161988569Y-91018048D01*
X162003256Y-90982590D01*
X162021327Y-90948782D01*
X162032454Y-90912099D01*
X162047141Y-90876643D01*
X162054628Y-90839002D01*
X162065756Y-90802318D01*
X162069514Y-90764165D01*
X162077000Y-90726528D01*
X162077000Y-90688155D01*
X162080758Y-90649999D01*
X162077000Y-90611843D01*
X162077000Y-90573472D01*
X162069514Y-90535836D01*
X162065756Y-90497681D01*
X162054627Y-90460994D01*
X162047141Y-90423357D01*
X162032456Y-90387905D01*
X162021327Y-90351216D01*
X162003253Y-90317401D01*
X161988569Y-90281952D01*
X161967252Y-90250048D01*
X161949177Y-90216233D01*
X161924854Y-90186596D01*
X161903536Y-90154691D01*
X161795309Y-90046464D01*
X161795303Y-90046460D01*
X161718928Y-89970085D01*
X161735181Y-89961397D01*
X161845698Y-89870698D01*
X161936397Y-89760181D01*
X162003792Y-89634094D01*
X162045294Y-89497281D01*
X162059307Y-89355000D01*
X162059307Y-88682000D01*
X162656837Y-88682000D01*
X162695000Y-88685759D01*
X162733163Y-88682000D01*
X162733166Y-88682000D01*
X162847319Y-88670757D01*
X162922365Y-88647992D01*
X162926643Y-88647141D01*
X162930674Y-88645471D01*
X162993784Y-88626327D01*
X163051944Y-88595239D01*
X163068048Y-88588569D01*
X163082542Y-88578885D01*
X163128766Y-88554177D01*
X163169282Y-88520927D01*
X163195309Y-88503536D01*
X163217442Y-88481403D01*
X163247080Y-88457080D01*
X163271403Y-88427442D01*
X163303536Y-88395309D01*
X163324856Y-88363401D01*
X163349177Y-88333766D01*
X163367249Y-88299956D01*
X163388569Y-88268048D01*
X163403254Y-88232595D01*
X163421327Y-88198783D01*
X163432455Y-88162097D01*
X163447141Y-88126643D01*
X163454628Y-88089003D01*
X163465756Y-88052318D01*
X163469514Y-88014165D01*
X163477000Y-87976528D01*
X163477000Y-87938156D01*
X163480758Y-87900001D01*
X163477000Y-87861845D01*
X163477000Y-87823472D01*
X163469514Y-87785835D01*
X163465756Y-87747682D01*
X163454628Y-87710998D01*
X163447141Y-87673357D01*
X163432454Y-87637901D01*
X163421327Y-87601218D01*
X163403256Y-87567409D01*
X163388569Y-87531952D01*
X163367248Y-87500043D01*
X163349177Y-87466234D01*
X163324858Y-87436601D01*
X163303536Y-87404691D01*
X163276396Y-87377551D01*
X163252079Y-87347921D01*
X163222449Y-87323604D01*
X163195309Y-87296464D01*
X163163399Y-87275142D01*
X163133766Y-87250823D01*
X163099957Y-87232752D01*
X163068048Y-87211431D01*
X163032591Y-87196744D01*
X162998782Y-87178673D01*
X162962099Y-87167546D01*
X162926643Y-87152859D01*
X162889002Y-87145372D01*
X162852318Y-87134244D01*
X162814165Y-87130486D01*
X162776528Y-87123000D01*
X162738155Y-87123000D01*
X162699999Y-87119242D01*
X162661844Y-87123000D01*
X162623472Y-87123000D01*
X162598335Y-87128000D01*
X162059307Y-87128000D01*
X162059307Y-86455000D01*
X162045294Y-86312719D01*
X162019291Y-86227000D01*
X163805449Y-86227000D01*
X163978704Y-86243988D01*
X164121744Y-86287175D01*
X164253672Y-86357321D01*
X164369463Y-86451758D01*
X164464704Y-86566884D01*
X164535773Y-86698323D01*
X164579956Y-86841056D01*
X164598001Y-87012746D01*
X164598001Y-96372393D01*
X164547394Y-96423000D01*
X162100000Y-96423000D01*
X162075224Y-96425440D01*
X162051399Y-96432667D01*
X162029443Y-96444403D01*
X162010197Y-96460197D01*
X161710197Y-96760197D01*
X161694403Y-96779443D01*
X161682667Y-96801399D01*
X161675440Y-96825224D01*
X161673000Y-96850000D01*
X161673000Y-97397394D01*
X161607873Y-97462521D01*
X161607000Y-97360250D01*
X161487750Y-97241000D01*
X160703000Y-97241000D01*
X160703000Y-97261000D01*
X160607000Y-97261000D01*
X160607000Y-97241000D01*
X159822250Y-97241000D01*
X159703000Y-97360250D01*
X159700756Y-97623000D01*
X159652606Y-97623000D01*
X159427000Y-97397394D01*
X159427000Y-96755500D01*
X159700692Y-96755500D01*
X159703000Y-97025750D01*
X159822250Y-97145000D01*
X160607000Y-97145000D01*
X160607000Y-96397750D01*
X160703000Y-96397750D01*
X160703000Y-97145000D01*
X161487750Y-97145000D01*
X161607000Y-97025750D01*
X161609308Y-96755500D01*
X161600098Y-96661992D01*
X161572823Y-96572077D01*
X161528530Y-96489211D01*
X161468922Y-96416578D01*
X161396289Y-96356970D01*
X161313423Y-96312677D01*
X161223508Y-96285402D01*
X161130000Y-96276192D01*
X160822250Y-96278500D01*
X160703000Y-96397750D01*
X160607000Y-96397750D01*
X160487750Y-96278500D01*
X160180000Y-96276192D01*
X160086492Y-96285402D01*
X159996577Y-96312677D01*
X159913711Y-96356970D01*
X159841078Y-96416578D01*
X159781470Y-96489211D01*
X159737177Y-96572077D01*
X159709902Y-96661992D01*
X159700692Y-96755500D01*
X159427000Y-96755500D01*
X159427000Y-95800000D01*
X159424560Y-95775224D01*
X159417333Y-95751399D01*
X159405597Y-95729443D01*
X159389803Y-95710197D01*
X159292850Y-95613244D01*
X159336397Y-95560181D01*
X159403792Y-95434094D01*
X159445294Y-95297281D01*
X159459307Y-95155000D01*
X159459307Y-92155000D01*
X159457000Y-92131576D01*
X159457000Y-91852993D01*
X159461727Y-91805000D01*
X159442863Y-91613474D01*
X159386997Y-91429309D01*
X159328794Y-91320419D01*
X159296276Y-91259582D01*
X159174186Y-91110814D01*
X159136907Y-91080220D01*
X158174784Y-90118098D01*
X158144186Y-90080814D01*
X157995418Y-89958724D01*
X157825691Y-89868003D01*
X157641525Y-89812137D01*
X157497993Y-89798000D01*
X157450000Y-89793273D01*
X157402007Y-89798000D01*
X155205360Y-89798000D01*
X155236397Y-89760181D01*
X155303792Y-89634094D01*
X155345294Y-89497281D01*
X155359307Y-89355000D01*
X155359307Y-89027000D01*
X155776528Y-89027000D01*
X155814154Y-89019516D01*
X155852319Y-89015757D01*
X155889013Y-89004626D01*
X155926643Y-88997141D01*
X155962092Y-88982457D01*
X155998784Y-88971327D01*
X156032598Y-88953253D01*
X156068048Y-88938569D01*
X156099955Y-88917250D01*
X156133766Y-88899177D01*
X156163402Y-88874856D01*
X156195309Y-88853536D01*
X156222442Y-88826403D01*
X156252080Y-88802080D01*
X156276403Y-88772442D01*
X156303536Y-88745309D01*
X156324856Y-88713402D01*
X156349177Y-88683766D01*
X156367250Y-88649955D01*
X156388569Y-88618048D01*
X156403253Y-88582598D01*
X156421327Y-88548784D01*
X156432457Y-88512092D01*
X156447141Y-88476643D01*
X156454626Y-88439013D01*
X156465757Y-88402319D01*
X156469516Y-88364154D01*
X156477000Y-88326528D01*
X156477000Y-88288166D01*
X156480759Y-88250000D01*
X156477000Y-88211834D01*
X156477000Y-88173472D01*
X156469516Y-88135846D01*
X156465757Y-88097681D01*
X156454626Y-88060987D01*
X156447141Y-88023357D01*
X156432457Y-87987908D01*
X156421327Y-87951216D01*
X156403253Y-87917402D01*
X156388569Y-87881952D01*
X156367250Y-87850045D01*
X156349177Y-87816234D01*
X156324856Y-87786598D01*
X156303536Y-87754691D01*
X156276403Y-87727558D01*
X156252080Y-87697920D01*
X156222442Y-87673597D01*
X156195309Y-87646464D01*
X156163402Y-87625144D01*
X156133766Y-87600823D01*
X156099955Y-87582750D01*
X156068048Y-87561431D01*
X156032598Y-87546747D01*
X155998784Y-87528673D01*
X155962092Y-87517543D01*
X155926643Y-87502859D01*
X155889013Y-87495374D01*
X155852319Y-87484243D01*
X155814154Y-87480484D01*
X155776528Y-87473000D01*
X155359307Y-87473000D01*
X155359307Y-86455000D01*
X155345294Y-86312719D01*
X155319291Y-86227000D01*
X159640709Y-86227000D01*
X159614706Y-86312719D01*
G36*
X152914706Y-86312719D02*
G01*
X152900693Y-86455000D01*
X152900693Y-87128000D01*
X152628472Y-87128000D01*
X152590846Y-87135484D01*
X152552681Y-87139243D01*
X152515987Y-87150374D01*
X152478357Y-87157859D01*
X152442908Y-87172543D01*
X152406216Y-87183673D01*
X152372402Y-87201747D01*
X152336952Y-87216431D01*
X152305045Y-87237750D01*
X152271234Y-87255823D01*
X152241598Y-87280144D01*
X152209691Y-87301464D01*
X152182558Y-87328597D01*
X152152920Y-87352920D01*
X152128597Y-87382558D01*
X152101464Y-87409691D01*
X152080144Y-87441598D01*
X152055823Y-87471234D01*
X152037750Y-87505045D01*
X152016431Y-87536952D01*
X152001747Y-87572402D01*
X151983673Y-87606216D01*
X151972543Y-87642908D01*
X151957859Y-87678357D01*
X151950374Y-87715987D01*
X151939243Y-87752681D01*
X151935484Y-87790846D01*
X151928000Y-87828472D01*
X151928000Y-87866834D01*
X151924241Y-87905000D01*
X151928000Y-87943166D01*
X151928000Y-87981528D01*
X151935484Y-88019154D01*
X151939243Y-88057319D01*
X151950374Y-88094013D01*
X151957859Y-88131643D01*
X151972543Y-88167092D01*
X151983673Y-88203784D01*
X152001747Y-88237598D01*
X152016431Y-88273048D01*
X152037750Y-88304955D01*
X152055823Y-88338766D01*
X152080144Y-88368402D01*
X152101464Y-88400309D01*
X152128597Y-88427442D01*
X152152920Y-88457080D01*
X152182558Y-88481403D01*
X152209691Y-88508536D01*
X152241598Y-88529856D01*
X152271234Y-88554177D01*
X152305045Y-88572250D01*
X152336952Y-88593569D01*
X152372402Y-88608253D01*
X152406216Y-88626327D01*
X152442908Y-88637457D01*
X152478357Y-88652141D01*
X152515987Y-88659626D01*
X152552681Y-88670757D01*
X152590846Y-88674516D01*
X152628472Y-88682000D01*
X152900693Y-88682000D01*
X152900693Y-89355000D01*
X152914706Y-89497281D01*
X152956208Y-89634094D01*
X153023603Y-89760181D01*
X153114302Y-89870698D01*
X153224819Y-89961397D01*
X153350906Y-90028792D01*
X153487719Y-90070294D01*
X153630000Y-90084307D01*
X153807947Y-90084307D01*
X153780216Y-90118098D01*
X152848098Y-91050216D01*
X152810814Y-91080814D01*
X152688724Y-91229582D01*
X152640171Y-91320419D01*
X152598003Y-91399310D01*
X152542137Y-91583475D01*
X152523273Y-91775000D01*
X152528000Y-91822993D01*
X152528001Y-94847993D01*
X152542138Y-94991525D01*
X152598004Y-95175691D01*
X152643014Y-95259898D01*
X152621778Y-95261990D01*
X152456463Y-95312138D01*
X152342598Y-95373000D01*
X150452606Y-95373000D01*
X150362000Y-95282394D01*
X150362000Y-87019551D01*
X150378988Y-86846296D01*
X150422175Y-86703256D01*
X150492321Y-86571328D01*
X150586758Y-86455537D01*
X150701884Y-86360296D01*
X150833323Y-86289227D01*
X150976056Y-86245044D01*
X151147737Y-86227000D01*
X152940709Y-86227000D01*
X152914706Y-86312719D01*
X152914706Y-86312719D01*
G37*
X152914706Y-86312719D02*
X152900693Y-86455000D01*
X152900693Y-87128000D01*
X152628472Y-87128000D01*
X152590846Y-87135484D01*
X152552681Y-87139243D01*
X152515987Y-87150374D01*
X152478357Y-87157859D01*
X152442908Y-87172543D01*
X152406216Y-87183673D01*
X152372402Y-87201747D01*
X152336952Y-87216431D01*
X152305045Y-87237750D01*
X152271234Y-87255823D01*
X152241598Y-87280144D01*
X152209691Y-87301464D01*
X152182558Y-87328597D01*
X152152920Y-87352920D01*
X152128597Y-87382558D01*
X152101464Y-87409691D01*
X152080144Y-87441598D01*
X152055823Y-87471234D01*
X152037750Y-87505045D01*
X152016431Y-87536952D01*
X152001747Y-87572402D01*
X151983673Y-87606216D01*
X151972543Y-87642908D01*
X151957859Y-87678357D01*
X151950374Y-87715987D01*
X151939243Y-87752681D01*
X151935484Y-87790846D01*
X151928000Y-87828472D01*
X151928000Y-87866834D01*
X151924241Y-87905000D01*
X151928000Y-87943166D01*
X151928000Y-87981528D01*
X151935484Y-88019154D01*
X151939243Y-88057319D01*
X151950374Y-88094013D01*
X151957859Y-88131643D01*
X151972543Y-88167092D01*
X151983673Y-88203784D01*
X152001747Y-88237598D01*
X152016431Y-88273048D01*
X152037750Y-88304955D01*
X152055823Y-88338766D01*
X152080144Y-88368402D01*
X152101464Y-88400309D01*
X152128597Y-88427442D01*
X152152920Y-88457080D01*
X152182558Y-88481403D01*
X152209691Y-88508536D01*
X152241598Y-88529856D01*
X152271234Y-88554177D01*
X152305045Y-88572250D01*
X152336952Y-88593569D01*
X152372402Y-88608253D01*
X152406216Y-88626327D01*
X152442908Y-88637457D01*
X152478357Y-88652141D01*
X152515987Y-88659626D01*
X152552681Y-88670757D01*
X152590846Y-88674516D01*
X152628472Y-88682000D01*
X152900693Y-88682000D01*
X152900693Y-89355000D01*
X152914706Y-89497281D01*
X152956208Y-89634094D01*
X153023603Y-89760181D01*
X153114302Y-89870698D01*
X153224819Y-89961397D01*
X153350906Y-90028792D01*
X153487719Y-90070294D01*
X153630000Y-90084307D01*
X153807947Y-90084307D01*
X153780216Y-90118098D01*
X152848098Y-91050216D01*
X152810814Y-91080814D01*
X152688724Y-91229582D01*
X152640171Y-91320419D01*
X152598003Y-91399310D01*
X152542137Y-91583475D01*
X152523273Y-91775000D01*
X152528000Y-91822993D01*
X152528001Y-94847993D01*
X152542138Y-94991525D01*
X152598004Y-95175691D01*
X152643014Y-95259898D01*
X152621778Y-95261990D01*
X152456463Y-95312138D01*
X152342598Y-95373000D01*
X150452606Y-95373000D01*
X150362000Y-95282394D01*
X150362000Y-87019551D01*
X150378988Y-86846296D01*
X150422175Y-86703256D01*
X150492321Y-86571328D01*
X150586758Y-86455537D01*
X150701884Y-86360296D01*
X150833323Y-86289227D01*
X150976056Y-86245044D01*
X151147737Y-86227000D01*
X152940709Y-86227000D01*
X152914706Y-86312719D01*
G36*
X155509902Y-91811492D02*
G01*
X155500692Y-91905000D01*
X155503000Y-93487750D01*
X155622250Y-93607000D01*
X156432000Y-93607000D01*
X156432000Y-93587000D01*
X156528000Y-93587000D01*
X156528000Y-93607000D01*
X157337750Y-93607000D01*
X157457000Y-93487750D01*
X157458928Y-92165615D01*
X157500693Y-92207380D01*
X157500693Y-95155000D01*
X157509980Y-95249300D01*
X157459081Y-95249300D01*
X157457000Y-93822250D01*
X157337750Y-93703000D01*
X156528000Y-93703000D01*
X156528000Y-93723000D01*
X156432000Y-93723000D01*
X156432000Y-93703000D01*
X155622250Y-93703000D01*
X155503000Y-93822250D01*
X155500919Y-95249300D01*
X154372652Y-95249300D01*
X154411997Y-95175691D01*
X154467863Y-94991525D01*
X154482000Y-94847993D01*
X154482000Y-92179686D01*
X154909686Y-91752000D01*
X155527948Y-91752000D01*
X155509902Y-91811492D01*
X155509902Y-91811492D01*
G37*
X155509902Y-91811492D02*
X155500692Y-91905000D01*
X155503000Y-93487750D01*
X155622250Y-93607000D01*
X156432000Y-93607000D01*
X156432000Y-93587000D01*
X156528000Y-93587000D01*
X156528000Y-93607000D01*
X157337750Y-93607000D01*
X157457000Y-93487750D01*
X157458928Y-92165615D01*
X157500693Y-92207380D01*
X157500693Y-95155000D01*
X157509980Y-95249300D01*
X157459081Y-95249300D01*
X157457000Y-93822250D01*
X157337750Y-93703000D01*
X156528000Y-93703000D01*
X156528000Y-93723000D01*
X156432000Y-93723000D01*
X156432000Y-93703000D01*
X155622250Y-93703000D01*
X155503000Y-93822250D01*
X155500919Y-95249300D01*
X154372652Y-95249300D01*
X154411997Y-95175691D01*
X154467863Y-94991525D01*
X154482000Y-94847993D01*
X154482000Y-92179686D01*
X154909686Y-91752000D01*
X155527948Y-91752000D01*
X155509902Y-91811492D01*
G36*
X161523000Y-101252606D02*
G01*
X161523000Y-102247394D01*
X161422392Y-102348002D01*
X160214908Y-102348000D01*
X159980520Y-102250914D01*
X159381224Y-101651618D01*
X159361978Y-101635824D01*
X159340022Y-101624088D01*
X159297439Y-101606449D01*
X159182655Y-101491666D01*
X159166148Y-101471552D01*
X159085902Y-101405696D01*
X158994350Y-101356761D01*
X158978445Y-101351936D01*
X159062158Y-101307191D01*
X159146211Y-101238211D01*
X159163500Y-101217144D01*
X159173713Y-101206931D01*
X159366684Y-101127000D01*
X161397394Y-101127000D01*
X161523000Y-101252606D01*
X161523000Y-101252606D01*
G37*
X161523000Y-101252606D02*
X161523000Y-102247394D01*
X161422392Y-102348002D01*
X160214908Y-102348000D01*
X159980520Y-102250914D01*
X159381224Y-101651618D01*
X159361978Y-101635824D01*
X159340022Y-101624088D01*
X159297439Y-101606449D01*
X159182655Y-101491666D01*
X159166148Y-101471552D01*
X159085902Y-101405696D01*
X158994350Y-101356761D01*
X158978445Y-101351936D01*
X159062158Y-101307191D01*
X159146211Y-101238211D01*
X159163500Y-101217144D01*
X159173713Y-101206931D01*
X159366684Y-101127000D01*
X161397394Y-101127000D01*
X161523000Y-101252606D01*
M02*
