G04 #@! TF.GenerationSoftware,KiCad,Pcbnew,(5.1.4)-1*
G04 #@! TF.CreationDate,2019-11-18T19:24:08+01:00*
G04 #@! TF.ProjectId,olmBoard-v1,6f6c6d42-6f61-4726-942d-76312e6b6963,0.1*
G04 #@! TF.SameCoordinates,Original*
G04 #@! TF.FileFunction,Soldermask,Bot*
G04 #@! TF.FilePolarity,Negative*
%FSLAX46Y46*%
G04 Gerber Fmt 4.6, Leading zero omitted, Abs format (unit mm)*
G04 Created by KiCad (PCBNEW (5.1.4)-1) date 2019-11-18 19:24:08*
%MOMM*%
%LPD*%
G04 APERTURE LIST*
%ADD10C,0.100000*%
G04 APERTURE END LIST*
D10*
G36*
X158049085Y-112423975D02*
G01*
X158404143Y-112571045D01*
X158404145Y-112571046D01*
X158723690Y-112784559D01*
X158995441Y-113056310D01*
X159208954Y-113375855D01*
X159208955Y-113375857D01*
X159356025Y-113730915D01*
X159431000Y-114107842D01*
X159431000Y-114492158D01*
X159356025Y-114869085D01*
X159208955Y-115224143D01*
X159208954Y-115224145D01*
X158995441Y-115543690D01*
X158723690Y-115815441D01*
X158404145Y-116028954D01*
X158404144Y-116028955D01*
X158404143Y-116028955D01*
X158049085Y-116176025D01*
X157672158Y-116251000D01*
X157287842Y-116251000D01*
X156910915Y-116176025D01*
X156555857Y-116028955D01*
X156555856Y-116028955D01*
X156555855Y-116028954D01*
X156236310Y-115815441D01*
X155964559Y-115543690D01*
X155751046Y-115224145D01*
X155751045Y-115224143D01*
X155603975Y-114869085D01*
X155529000Y-114492158D01*
X155529000Y-114107842D01*
X155603975Y-113730915D01*
X155751045Y-113375857D01*
X155751046Y-113375855D01*
X155964559Y-113056310D01*
X156236310Y-112784559D01*
X156555855Y-112571046D01*
X156555857Y-112571045D01*
X156910915Y-112423975D01*
X157287842Y-112349000D01*
X157672158Y-112349000D01*
X158049085Y-112423975D01*
X158049085Y-112423975D01*
G37*
G36*
X164731000Y-106311000D02*
G01*
X162929000Y-106311000D01*
X162929000Y-104509000D01*
X164731000Y-104509000D01*
X164731000Y-106311000D01*
X164731000Y-106311000D01*
G37*
G36*
X152031000Y-106311000D02*
G01*
X150229000Y-106311000D01*
X150229000Y-104509000D01*
X152031000Y-104509000D01*
X152031000Y-106311000D01*
X152031000Y-106311000D01*
G37*
G36*
X151240442Y-101975518D02*
G01*
X151306627Y-101982037D01*
X151476466Y-102033557D01*
X151632991Y-102117222D01*
X151668729Y-102146552D01*
X151770186Y-102229814D01*
X151853448Y-102331271D01*
X151882778Y-102367009D01*
X151966443Y-102523534D01*
X152017963Y-102693373D01*
X152035359Y-102870000D01*
X152017963Y-103046627D01*
X151966443Y-103216466D01*
X151882778Y-103372991D01*
X151853448Y-103408729D01*
X151770186Y-103510186D01*
X151668729Y-103593448D01*
X151632991Y-103622778D01*
X151476466Y-103706443D01*
X151306627Y-103757963D01*
X151240443Y-103764481D01*
X151174260Y-103771000D01*
X151085740Y-103771000D01*
X151019557Y-103764481D01*
X150953373Y-103757963D01*
X150783534Y-103706443D01*
X150627009Y-103622778D01*
X150591271Y-103593448D01*
X150489814Y-103510186D01*
X150406552Y-103408729D01*
X150377222Y-103372991D01*
X150293557Y-103216466D01*
X150242037Y-103046627D01*
X150224641Y-102870000D01*
X150242037Y-102693373D01*
X150293557Y-102523534D01*
X150377222Y-102367009D01*
X150406552Y-102331271D01*
X150489814Y-102229814D01*
X150591271Y-102146552D01*
X150627009Y-102117222D01*
X150783534Y-102033557D01*
X150953373Y-101982037D01*
X151019558Y-101975518D01*
X151085740Y-101969000D01*
X151174260Y-101969000D01*
X151240442Y-101975518D01*
X151240442Y-101975518D01*
G37*
G36*
X163940442Y-101975518D02*
G01*
X164006627Y-101982037D01*
X164176466Y-102033557D01*
X164332991Y-102117222D01*
X164368729Y-102146552D01*
X164470186Y-102229814D01*
X164553448Y-102331271D01*
X164582778Y-102367009D01*
X164666443Y-102523534D01*
X164717963Y-102693373D01*
X164735359Y-102870000D01*
X164717963Y-103046627D01*
X164666443Y-103216466D01*
X164582778Y-103372991D01*
X164553448Y-103408729D01*
X164470186Y-103510186D01*
X164368729Y-103593448D01*
X164332991Y-103622778D01*
X164176466Y-103706443D01*
X164006627Y-103757963D01*
X163940443Y-103764481D01*
X163874260Y-103771000D01*
X163785740Y-103771000D01*
X163719557Y-103764481D01*
X163653373Y-103757963D01*
X163483534Y-103706443D01*
X163327009Y-103622778D01*
X163291271Y-103593448D01*
X163189814Y-103510186D01*
X163106552Y-103408729D01*
X163077222Y-103372991D01*
X162993557Y-103216466D01*
X162942037Y-103046627D01*
X162924641Y-102870000D01*
X162942037Y-102693373D01*
X162993557Y-102523534D01*
X163077222Y-102367009D01*
X163106552Y-102331271D01*
X163189814Y-102229814D01*
X163291271Y-102146552D01*
X163327009Y-102117222D01*
X163483534Y-102033557D01*
X163653373Y-101982037D01*
X163719558Y-101975518D01*
X163785740Y-101969000D01*
X163874260Y-101969000D01*
X163940442Y-101975518D01*
X163940442Y-101975518D01*
G37*
G36*
X163940443Y-99435519D02*
G01*
X164006627Y-99442037D01*
X164176466Y-99493557D01*
X164332991Y-99577222D01*
X164368729Y-99606552D01*
X164470186Y-99689814D01*
X164553448Y-99791271D01*
X164582778Y-99827009D01*
X164666443Y-99983534D01*
X164717963Y-100153373D01*
X164735359Y-100330000D01*
X164717963Y-100506627D01*
X164666443Y-100676466D01*
X164582778Y-100832991D01*
X164553448Y-100868729D01*
X164470186Y-100970186D01*
X164368729Y-101053448D01*
X164332991Y-101082778D01*
X164176466Y-101166443D01*
X164006627Y-101217963D01*
X163940443Y-101224481D01*
X163874260Y-101231000D01*
X163785740Y-101231000D01*
X163719558Y-101224482D01*
X163653373Y-101217963D01*
X163483534Y-101166443D01*
X163327009Y-101082778D01*
X163291271Y-101053448D01*
X163189814Y-100970186D01*
X163106552Y-100868729D01*
X163077222Y-100832991D01*
X162993557Y-100676466D01*
X162942037Y-100506627D01*
X162924641Y-100330000D01*
X162942037Y-100153373D01*
X162993557Y-99983534D01*
X163077222Y-99827009D01*
X163106552Y-99791271D01*
X163189814Y-99689814D01*
X163291271Y-99606552D01*
X163327009Y-99577222D01*
X163483534Y-99493557D01*
X163653373Y-99442037D01*
X163719558Y-99435518D01*
X163785740Y-99429000D01*
X163874260Y-99429000D01*
X163940443Y-99435519D01*
X163940443Y-99435519D01*
G37*
G36*
X151240443Y-99435519D02*
G01*
X151306627Y-99442037D01*
X151476466Y-99493557D01*
X151632991Y-99577222D01*
X151668729Y-99606552D01*
X151770186Y-99689814D01*
X151853448Y-99791271D01*
X151882778Y-99827009D01*
X151966443Y-99983534D01*
X152017963Y-100153373D01*
X152035359Y-100330000D01*
X152017963Y-100506627D01*
X151966443Y-100676466D01*
X151882778Y-100832991D01*
X151853448Y-100868729D01*
X151770186Y-100970186D01*
X151668729Y-101053448D01*
X151632991Y-101082778D01*
X151476466Y-101166443D01*
X151306627Y-101217963D01*
X151240443Y-101224481D01*
X151174260Y-101231000D01*
X151085740Y-101231000D01*
X151019558Y-101224482D01*
X150953373Y-101217963D01*
X150783534Y-101166443D01*
X150627009Y-101082778D01*
X150591271Y-101053448D01*
X150489814Y-100970186D01*
X150406552Y-100868729D01*
X150377222Y-100832991D01*
X150293557Y-100676466D01*
X150242037Y-100506627D01*
X150224641Y-100330000D01*
X150242037Y-100153373D01*
X150293557Y-99983534D01*
X150377222Y-99827009D01*
X150406552Y-99791271D01*
X150489814Y-99689814D01*
X150591271Y-99606552D01*
X150627009Y-99577222D01*
X150783534Y-99493557D01*
X150953373Y-99442037D01*
X151019558Y-99435518D01*
X151085740Y-99429000D01*
X151174260Y-99429000D01*
X151240443Y-99435519D01*
X151240443Y-99435519D01*
G37*
G36*
X163940442Y-96895518D02*
G01*
X164006627Y-96902037D01*
X164176466Y-96953557D01*
X164332991Y-97037222D01*
X164368729Y-97066552D01*
X164470186Y-97149814D01*
X164553448Y-97251271D01*
X164582778Y-97287009D01*
X164666443Y-97443534D01*
X164717963Y-97613373D01*
X164735359Y-97790000D01*
X164717963Y-97966627D01*
X164666443Y-98136466D01*
X164582778Y-98292991D01*
X164553448Y-98328729D01*
X164470186Y-98430186D01*
X164368729Y-98513448D01*
X164332991Y-98542778D01*
X164176466Y-98626443D01*
X164006627Y-98677963D01*
X163940442Y-98684482D01*
X163874260Y-98691000D01*
X163785740Y-98691000D01*
X163719558Y-98684482D01*
X163653373Y-98677963D01*
X163483534Y-98626443D01*
X163327009Y-98542778D01*
X163291271Y-98513448D01*
X163189814Y-98430186D01*
X163106552Y-98328729D01*
X163077222Y-98292991D01*
X162993557Y-98136466D01*
X162942037Y-97966627D01*
X162924641Y-97790000D01*
X162942037Y-97613373D01*
X162993557Y-97443534D01*
X163077222Y-97287009D01*
X163106552Y-97251271D01*
X163189814Y-97149814D01*
X163291271Y-97066552D01*
X163327009Y-97037222D01*
X163483534Y-96953557D01*
X163653373Y-96902037D01*
X163719558Y-96895518D01*
X163785740Y-96889000D01*
X163874260Y-96889000D01*
X163940442Y-96895518D01*
X163940442Y-96895518D01*
G37*
G36*
X151240442Y-96895518D02*
G01*
X151306627Y-96902037D01*
X151476466Y-96953557D01*
X151632991Y-97037222D01*
X151668729Y-97066552D01*
X151770186Y-97149814D01*
X151853448Y-97251271D01*
X151882778Y-97287009D01*
X151966443Y-97443534D01*
X152017963Y-97613373D01*
X152035359Y-97790000D01*
X152017963Y-97966627D01*
X151966443Y-98136466D01*
X151882778Y-98292991D01*
X151853448Y-98328729D01*
X151770186Y-98430186D01*
X151668729Y-98513448D01*
X151632991Y-98542778D01*
X151476466Y-98626443D01*
X151306627Y-98677963D01*
X151240442Y-98684482D01*
X151174260Y-98691000D01*
X151085740Y-98691000D01*
X151019558Y-98684482D01*
X150953373Y-98677963D01*
X150783534Y-98626443D01*
X150627009Y-98542778D01*
X150591271Y-98513448D01*
X150489814Y-98430186D01*
X150406552Y-98328729D01*
X150377222Y-98292991D01*
X150293557Y-98136466D01*
X150242037Y-97966627D01*
X150224641Y-97790000D01*
X150242037Y-97613373D01*
X150293557Y-97443534D01*
X150377222Y-97287009D01*
X150406552Y-97251271D01*
X150489814Y-97149814D01*
X150591271Y-97066552D01*
X150627009Y-97037222D01*
X150783534Y-96953557D01*
X150953373Y-96902037D01*
X151019558Y-96895518D01*
X151085740Y-96889000D01*
X151174260Y-96889000D01*
X151240442Y-96895518D01*
X151240442Y-96895518D01*
G37*
M02*
